G75*
%MOIN*%
%OFA0B0*%
%FSLAX25Y25*%
%IPPOS*%
%LPD*%
%AMOC8*
5,1,8,0,0,1.08239X$1,22.5*
%
%ADD10C,0.07400*%
%ADD11C,0.08000*%
%ADD12C,0.00787*%
%ADD13C,0.04724*%
%ADD14R,0.07400X0.07400*%
%ADD15C,0.04800*%
%ADD16R,0.07087X0.07087*%
%ADD17C,0.00600*%
%ADD18C,0.00500*%
%ADD19C,0.04000*%
D10*
X0074124Y0083140D03*
X0084124Y0083140D03*
X0094124Y0083140D03*
X0110241Y0137793D03*
X0110241Y0147793D03*
X0110241Y0157793D03*
X0099124Y0364085D03*
X0099124Y0372589D03*
X0129163Y0421722D03*
X0129163Y0431722D03*
X0129163Y0441722D03*
X0129163Y0451722D03*
X0129163Y0461722D03*
X0129163Y0471722D03*
X0129163Y0481722D03*
X0129163Y0491722D03*
X0069124Y0372589D03*
X0069124Y0364085D03*
X0039163Y0431722D03*
X0039163Y0441722D03*
X0039163Y0451722D03*
X0039163Y0461722D03*
X0039163Y0471722D03*
X0039163Y0481722D03*
X0039163Y0491722D03*
X0040860Y0517728D03*
X0030860Y0517728D03*
D11*
X0084124Y0335896D03*
X0084124Y0054006D03*
D12*
X0069754Y0507707D02*
X0065817Y0507707D01*
X0065817Y0512904D01*
X0069754Y0512904D01*
X0069754Y0507707D01*
X0098494Y0507707D02*
X0098494Y0512904D01*
X0102431Y0512904D01*
X0102431Y0507707D01*
X0098494Y0507707D01*
X0098496Y0507711D02*
X0098496Y0512907D01*
X0102433Y0512907D01*
X0102433Y0507711D01*
X0098496Y0507711D01*
X0098495Y0512906D02*
X0102432Y0512906D01*
X0102432Y0507710D01*
D13*
X0091998Y0510305D03*
X0084124Y0510305D03*
X0076250Y0510305D03*
D14*
X0039163Y0421722D03*
X0110241Y0167793D03*
D15*
X0101524Y0355581D02*
X0096724Y0355581D01*
X0071524Y0355581D02*
X0066724Y0355581D01*
D16*
X0067993Y0426016D03*
X0056182Y0426016D03*
X0056182Y0514205D03*
X0100473Y0426016D03*
X0112284Y0426016D03*
X0112284Y0514205D03*
D17*
X0128367Y0519133D02*
X0129163Y0518337D01*
X0129163Y0491722D01*
X0067842Y0491722D01*
X0066829Y0490709D01*
X0066829Y0453190D01*
X0076312Y0443707D01*
X0076312Y0384626D01*
X0075893Y0384207D01*
X0064581Y0384207D01*
X0062700Y0382326D01*
X0062700Y0357269D01*
X0064388Y0355581D01*
X0069124Y0355581D01*
X0069124Y0364085D02*
X0081506Y0364085D01*
X0082931Y0365510D01*
X0082931Y0357082D01*
X0082078Y0356228D01*
X0077116Y0356228D01*
X0076366Y0355478D01*
X0076366Y0324270D01*
X0077395Y0323241D01*
X0083000Y0323241D01*
X0084010Y0322230D01*
X0084010Y0083254D01*
X0084124Y0083140D01*
X0086623Y0355598D02*
X0084911Y0357309D01*
X0084911Y0444501D01*
X0087052Y0446642D01*
X0133778Y0446642D01*
X0135108Y0447972D01*
X0135108Y0470613D01*
X0133999Y0471722D01*
X0129163Y0471722D01*
X0129163Y0481722D02*
X0082989Y0481722D01*
X0080974Y0479708D01*
X0080974Y0373789D01*
X0079774Y0372589D01*
X0069124Y0372589D01*
X0082931Y0365990D02*
X0082931Y0365510D01*
X0082931Y0365990D02*
X0082931Y0450100D01*
X0084554Y0451722D01*
X0129163Y0451722D01*
X0128367Y0519133D02*
X0050257Y0519133D01*
X0048852Y0517728D01*
X0040860Y0517728D01*
X0086623Y0355598D02*
X0099107Y0355598D01*
X0099124Y0355581D01*
D18*
X0025047Y0050597D02*
X0025400Y0050244D01*
X0081027Y0050244D01*
X0080401Y0050870D01*
X0060891Y0050870D01*
X0059844Y0051304D01*
X0059042Y0052106D01*
X0059042Y0052106D01*
X0057333Y0053814D01*
X0057333Y0053814D01*
X0056532Y0054616D01*
X0056098Y0055664D01*
X0056098Y0295795D01*
X0054329Y0295062D01*
X0050927Y0295062D01*
X0047785Y0296364D01*
X0045380Y0298769D01*
X0044078Y0301911D01*
X0044078Y0305313D01*
X0045380Y0308455D01*
X0047785Y0310861D01*
X0050927Y0312162D01*
X0054329Y0312162D01*
X0056098Y0311429D01*
X0056098Y0390000D01*
X0056532Y0391048D01*
X0057333Y0391849D01*
X0057333Y0391849D01*
X0058204Y0392720D01*
X0058204Y0392720D01*
X0059006Y0393522D01*
X0060053Y0393956D01*
X0065143Y0393956D01*
X0065143Y0421623D01*
X0064097Y0421623D01*
X0063599Y0422121D01*
X0063599Y0429911D01*
X0064097Y0430409D01*
X0071888Y0430409D01*
X0072386Y0429911D01*
X0072386Y0422121D01*
X0071888Y0421623D01*
X0070843Y0421623D01*
X0070843Y0392052D01*
X0070409Y0391005D01*
X0068895Y0389491D01*
X0068093Y0388690D01*
X0067046Y0388256D01*
X0061801Y0388256D01*
X0061798Y0388253D01*
X0061798Y0383050D01*
X0062224Y0383476D01*
X0062224Y0383476D01*
X0063431Y0384684D01*
X0063431Y0384684D01*
X0064105Y0385357D01*
X0075162Y0385357D01*
X0075162Y0443231D01*
X0065679Y0452713D01*
X0065679Y0491186D01*
X0066353Y0491859D01*
X0067366Y0492872D01*
X0124715Y0492872D01*
X0125306Y0494300D01*
X0126586Y0495580D01*
X0128013Y0496171D01*
X0128013Y0517860D01*
X0127891Y0517983D01*
X0116677Y0517983D01*
X0116677Y0510310D01*
X0116180Y0509812D01*
X0108389Y0509812D01*
X0107891Y0510310D01*
X0107891Y0517983D01*
X0060956Y0517983D01*
X0060975Y0517913D01*
X0060975Y0514455D01*
X0056432Y0514455D01*
X0056432Y0513955D01*
X0060975Y0513955D01*
X0060975Y0510497D01*
X0060890Y0510179D01*
X0060725Y0509894D01*
X0060493Y0509661D01*
X0060208Y0509497D01*
X0059890Y0509412D01*
X0056432Y0509412D01*
X0056432Y0513955D01*
X0055932Y0513955D01*
X0055932Y0509412D01*
X0052474Y0509412D01*
X0052156Y0509497D01*
X0051871Y0509661D01*
X0051638Y0509894D01*
X0051474Y0510179D01*
X0051388Y0510497D01*
X0051388Y0513955D01*
X0055932Y0513955D01*
X0055932Y0514455D01*
X0051388Y0514455D01*
X0051388Y0517913D01*
X0051407Y0517983D01*
X0050734Y0517983D01*
X0050002Y0517252D01*
X0050002Y0517252D01*
X0049328Y0516578D01*
X0045308Y0516578D01*
X0044717Y0515150D01*
X0043437Y0513871D01*
X0041765Y0513178D01*
X0039955Y0513178D01*
X0038282Y0513871D01*
X0037002Y0515150D01*
X0036310Y0516823D01*
X0036310Y0518633D01*
X0037002Y0520305D01*
X0038282Y0521585D01*
X0039955Y0522278D01*
X0041765Y0522278D01*
X0043437Y0521585D01*
X0043789Y0521233D01*
X0043789Y0521661D01*
X0043791Y0521663D01*
X0043791Y0529226D01*
X0041076Y0531941D01*
X0030124Y0531941D01*
X0027409Y0529226D01*
X0027409Y0521278D01*
X0027635Y0521504D01*
X0028265Y0521961D01*
X0028960Y0522315D01*
X0029701Y0522556D01*
X0030470Y0522678D01*
X0030610Y0522678D01*
X0030610Y0517978D01*
X0031110Y0517978D01*
X0035810Y0517978D01*
X0035810Y0518117D01*
X0035688Y0518887D01*
X0035447Y0519628D01*
X0035093Y0520322D01*
X0034635Y0520953D01*
X0034084Y0521504D01*
X0033454Y0521961D01*
X0032760Y0522315D01*
X0032019Y0522556D01*
X0031249Y0522678D01*
X0031110Y0522678D01*
X0031110Y0517978D01*
X0031110Y0517478D01*
X0035810Y0517478D01*
X0035810Y0517338D01*
X0035688Y0516569D01*
X0035447Y0515828D01*
X0035093Y0515133D01*
X0034635Y0514503D01*
X0034084Y0513952D01*
X0033454Y0513494D01*
X0032760Y0513141D01*
X0032019Y0512900D01*
X0031249Y0512778D01*
X0031110Y0512778D01*
X0031110Y0517478D01*
X0030610Y0517478D01*
X0030610Y0512778D01*
X0030470Y0512778D01*
X0029701Y0512900D01*
X0028960Y0513141D01*
X0028265Y0513494D01*
X0027635Y0513952D01*
X0027409Y0514178D01*
X0027409Y0512336D01*
X0026384Y0511311D01*
X0025047Y0511311D01*
X0025047Y0050597D01*
X0025156Y0050488D02*
X0080783Y0050488D01*
X0079937Y0056570D02*
X0062639Y0056570D01*
X0061798Y0057411D01*
X0061798Y0294185D01*
X0065344Y0297731D01*
X0065778Y0298779D01*
X0065778Y0308446D01*
X0065344Y0309493D01*
X0064542Y0310295D01*
X0061798Y0313039D01*
X0061798Y0356545D01*
X0062224Y0356119D01*
X0063238Y0355104D01*
X0063521Y0354822D01*
X0063969Y0353740D01*
X0064883Y0352825D01*
X0066078Y0352331D01*
X0072170Y0352331D01*
X0073365Y0352825D01*
X0074279Y0353740D01*
X0074774Y0354934D01*
X0074774Y0356227D01*
X0074279Y0357422D01*
X0073365Y0358336D01*
X0072170Y0358831D01*
X0066078Y0358831D01*
X0064883Y0358336D01*
X0064071Y0357524D01*
X0063850Y0357745D01*
X0063850Y0381850D01*
X0065058Y0383057D01*
X0076370Y0383057D01*
X0076788Y0383476D01*
X0077462Y0384149D01*
X0077462Y0444183D01*
X0076788Y0444857D01*
X0067979Y0453666D01*
X0067979Y0490233D01*
X0068318Y0490572D01*
X0124715Y0490572D01*
X0125306Y0489145D01*
X0126586Y0487865D01*
X0128258Y0487172D01*
X0130068Y0487172D01*
X0131741Y0487865D01*
X0133021Y0489145D01*
X0133713Y0490817D01*
X0133713Y0492627D01*
X0133021Y0494300D01*
X0131741Y0495580D01*
X0130313Y0496171D01*
X0130313Y0518813D01*
X0129640Y0519487D01*
X0128843Y0520283D01*
X0124459Y0520283D01*
X0124459Y0521661D01*
X0124457Y0521663D01*
X0124457Y0529226D01*
X0127172Y0531941D01*
X0137336Y0531941D01*
X0140051Y0529226D01*
X0140051Y0512336D01*
X0141076Y0511311D01*
X0142413Y0511311D01*
X0142413Y0050597D01*
X0142061Y0050244D01*
X0087221Y0050244D01*
X0088236Y0051259D01*
X0088974Y0053041D01*
X0088974Y0054971D01*
X0088236Y0056753D01*
X0086871Y0058118D01*
X0085089Y0058856D01*
X0083159Y0058856D01*
X0081377Y0058118D01*
X0080012Y0056753D01*
X0079937Y0056570D01*
X0080228Y0056969D02*
X0062240Y0056969D01*
X0061798Y0057467D02*
X0080726Y0057467D01*
X0081225Y0057966D02*
X0061798Y0057966D01*
X0061798Y0058464D02*
X0082214Y0058464D01*
X0086034Y0058464D02*
X0142413Y0058464D01*
X0142413Y0057966D02*
X0087023Y0057966D01*
X0087522Y0057467D02*
X0142413Y0057467D01*
X0142413Y0056969D02*
X0088020Y0056969D01*
X0088353Y0056470D02*
X0142413Y0056470D01*
X0142413Y0055972D02*
X0088559Y0055972D01*
X0088766Y0055473D02*
X0142413Y0055473D01*
X0142413Y0054975D02*
X0088972Y0054975D01*
X0088974Y0054476D02*
X0142413Y0054476D01*
X0142413Y0053978D02*
X0088974Y0053978D01*
X0088974Y0053479D02*
X0142413Y0053479D01*
X0142413Y0052981D02*
X0088949Y0052981D01*
X0088742Y0052482D02*
X0142413Y0052482D01*
X0142413Y0051984D02*
X0088536Y0051984D01*
X0088329Y0051485D02*
X0142413Y0051485D01*
X0142413Y0050987D02*
X0087964Y0050987D01*
X0087465Y0050488D02*
X0142305Y0050488D01*
X0142413Y0058963D02*
X0061798Y0058963D01*
X0061798Y0059461D02*
X0142413Y0059461D01*
X0142413Y0059960D02*
X0061798Y0059960D01*
X0061798Y0060458D02*
X0142413Y0060458D01*
X0142413Y0060957D02*
X0061798Y0060957D01*
X0061798Y0061455D02*
X0142413Y0061455D01*
X0142413Y0061954D02*
X0061798Y0061954D01*
X0061798Y0062452D02*
X0142413Y0062452D01*
X0142413Y0062951D02*
X0061798Y0062951D01*
X0061798Y0063449D02*
X0142413Y0063449D01*
X0142413Y0063948D02*
X0061798Y0063948D01*
X0061798Y0064446D02*
X0142413Y0064446D01*
X0142413Y0064945D02*
X0061798Y0064945D01*
X0061798Y0065443D02*
X0142413Y0065443D01*
X0142413Y0065942D02*
X0061798Y0065942D01*
X0061798Y0066441D02*
X0142413Y0066441D01*
X0142413Y0066939D02*
X0061798Y0066939D01*
X0061798Y0067438D02*
X0142413Y0067438D01*
X0142413Y0067936D02*
X0061798Y0067936D01*
X0061798Y0068435D02*
X0142413Y0068435D01*
X0142413Y0068933D02*
X0061798Y0068933D01*
X0061798Y0069432D02*
X0142413Y0069432D01*
X0142413Y0069930D02*
X0061798Y0069930D01*
X0061798Y0070429D02*
X0142413Y0070429D01*
X0142413Y0070927D02*
X0061798Y0070927D01*
X0061798Y0071426D02*
X0142413Y0071426D01*
X0142413Y0071924D02*
X0061798Y0071924D01*
X0061798Y0072423D02*
X0142413Y0072423D01*
X0142413Y0072921D02*
X0061798Y0072921D01*
X0061798Y0073420D02*
X0142413Y0073420D01*
X0142413Y0073918D02*
X0061798Y0073918D01*
X0061798Y0074417D02*
X0142413Y0074417D01*
X0142413Y0074915D02*
X0061798Y0074915D01*
X0061798Y0075414D02*
X0142413Y0075414D01*
X0142413Y0075912D02*
X0061798Y0075912D01*
X0061798Y0076411D02*
X0142413Y0076411D01*
X0142413Y0076909D02*
X0061798Y0076909D01*
X0061798Y0077408D02*
X0142413Y0077408D01*
X0142413Y0077906D02*
X0117724Y0077906D01*
X0117321Y0077739D02*
X0120463Y0079041D01*
X0122868Y0081446D01*
X0124170Y0084589D01*
X0124170Y0087990D01*
X0122868Y0091133D01*
X0120463Y0093538D01*
X0117321Y0094839D01*
X0113919Y0094839D01*
X0110777Y0093538D01*
X0108372Y0091133D01*
X0107070Y0087990D01*
X0107070Y0084589D01*
X0108372Y0081446D01*
X0110777Y0079041D01*
X0113919Y0077739D01*
X0117321Y0077739D01*
X0118927Y0078405D02*
X0142413Y0078405D01*
X0142413Y0078903D02*
X0120131Y0078903D01*
X0120824Y0079402D02*
X0142413Y0079402D01*
X0142413Y0079900D02*
X0121323Y0079900D01*
X0121821Y0080399D02*
X0142413Y0080399D01*
X0142413Y0080897D02*
X0122320Y0080897D01*
X0122818Y0081396D02*
X0142413Y0081396D01*
X0142413Y0081894D02*
X0123054Y0081894D01*
X0123261Y0082393D02*
X0142413Y0082393D01*
X0142413Y0082891D02*
X0123467Y0082891D01*
X0123674Y0083390D02*
X0142413Y0083390D01*
X0142413Y0083888D02*
X0123880Y0083888D01*
X0124086Y0084387D02*
X0142413Y0084387D01*
X0142413Y0084885D02*
X0124170Y0084885D01*
X0124170Y0085384D02*
X0142413Y0085384D01*
X0142413Y0085882D02*
X0124170Y0085882D01*
X0124170Y0086381D02*
X0142413Y0086381D01*
X0142413Y0086879D02*
X0124170Y0086879D01*
X0124170Y0087378D02*
X0142413Y0087378D01*
X0142413Y0087876D02*
X0124170Y0087876D01*
X0124011Y0088375D02*
X0142413Y0088375D01*
X0142413Y0088874D02*
X0123804Y0088874D01*
X0123598Y0089372D02*
X0142413Y0089372D01*
X0142413Y0089871D02*
X0123391Y0089871D01*
X0123185Y0090369D02*
X0142413Y0090369D01*
X0142413Y0090868D02*
X0122978Y0090868D01*
X0122635Y0091366D02*
X0142413Y0091366D01*
X0142413Y0091865D02*
X0122136Y0091865D01*
X0121638Y0092363D02*
X0142413Y0092363D01*
X0142413Y0092862D02*
X0121139Y0092862D01*
X0120641Y0093360D02*
X0142413Y0093360D01*
X0142413Y0093859D02*
X0119688Y0093859D01*
X0118485Y0094357D02*
X0142413Y0094357D01*
X0142413Y0094856D02*
X0085160Y0094856D01*
X0085160Y0095354D02*
X0142413Y0095354D01*
X0142413Y0095853D02*
X0085160Y0095853D01*
X0085160Y0096351D02*
X0142413Y0096351D01*
X0142413Y0096850D02*
X0085160Y0096850D01*
X0085160Y0097348D02*
X0142413Y0097348D01*
X0142413Y0097847D02*
X0085160Y0097847D01*
X0085160Y0098345D02*
X0142413Y0098345D01*
X0142413Y0098844D02*
X0085160Y0098844D01*
X0085160Y0099342D02*
X0142413Y0099342D01*
X0142413Y0099841D02*
X0085160Y0099841D01*
X0085160Y0100339D02*
X0142413Y0100339D01*
X0142413Y0100838D02*
X0085160Y0100838D01*
X0085160Y0101336D02*
X0142413Y0101336D01*
X0142413Y0101835D02*
X0085160Y0101835D01*
X0085160Y0102333D02*
X0142413Y0102333D01*
X0142413Y0102832D02*
X0085160Y0102832D01*
X0085160Y0103330D02*
X0142413Y0103330D01*
X0142413Y0103829D02*
X0085160Y0103829D01*
X0085160Y0104327D02*
X0142413Y0104327D01*
X0142413Y0104826D02*
X0085160Y0104826D01*
X0085160Y0105324D02*
X0142413Y0105324D01*
X0142413Y0105823D02*
X0085160Y0105823D01*
X0085160Y0106321D02*
X0142413Y0106321D01*
X0142413Y0106820D02*
X0085160Y0106820D01*
X0085160Y0107318D02*
X0142413Y0107318D01*
X0142413Y0107817D02*
X0085160Y0107817D01*
X0085160Y0108315D02*
X0142413Y0108315D01*
X0142413Y0108814D02*
X0085160Y0108814D01*
X0085160Y0109312D02*
X0142413Y0109312D01*
X0142413Y0109811D02*
X0085160Y0109811D01*
X0085160Y0110309D02*
X0142413Y0110309D01*
X0142413Y0110808D02*
X0085160Y0110808D01*
X0085160Y0111307D02*
X0142413Y0111307D01*
X0142413Y0111805D02*
X0085160Y0111805D01*
X0085160Y0112304D02*
X0142413Y0112304D01*
X0142413Y0112802D02*
X0085160Y0112802D01*
X0085160Y0113301D02*
X0142413Y0113301D01*
X0142413Y0113799D02*
X0085160Y0113799D01*
X0085160Y0114298D02*
X0142413Y0114298D01*
X0142413Y0114796D02*
X0085160Y0114796D01*
X0085160Y0115295D02*
X0142413Y0115295D01*
X0142413Y0115793D02*
X0085160Y0115793D01*
X0085160Y0116292D02*
X0142413Y0116292D01*
X0142413Y0116790D02*
X0085160Y0116790D01*
X0085160Y0117289D02*
X0142413Y0117289D01*
X0142413Y0117787D02*
X0085160Y0117787D01*
X0085160Y0118286D02*
X0142413Y0118286D01*
X0142413Y0118784D02*
X0085160Y0118784D01*
X0085160Y0119283D02*
X0142413Y0119283D01*
X0142413Y0119781D02*
X0085160Y0119781D01*
X0085160Y0120280D02*
X0142413Y0120280D01*
X0142413Y0120778D02*
X0085160Y0120778D01*
X0085160Y0121277D02*
X0142413Y0121277D01*
X0142413Y0121775D02*
X0085160Y0121775D01*
X0085160Y0122274D02*
X0142413Y0122274D01*
X0142413Y0122772D02*
X0085160Y0122772D01*
X0085160Y0123271D02*
X0142413Y0123271D01*
X0142413Y0123769D02*
X0085160Y0123769D01*
X0085160Y0124268D02*
X0142413Y0124268D01*
X0142413Y0124766D02*
X0085160Y0124766D01*
X0085160Y0125265D02*
X0142413Y0125265D01*
X0142413Y0125763D02*
X0085160Y0125763D01*
X0085160Y0126262D02*
X0142413Y0126262D01*
X0142413Y0126760D02*
X0085160Y0126760D01*
X0085160Y0127259D02*
X0142413Y0127259D01*
X0142413Y0127757D02*
X0085160Y0127757D01*
X0085160Y0128256D02*
X0142413Y0128256D01*
X0142413Y0128754D02*
X0085160Y0128754D01*
X0085160Y0129253D02*
X0142413Y0129253D01*
X0142413Y0129751D02*
X0085160Y0129751D01*
X0085160Y0130250D02*
X0142413Y0130250D01*
X0142413Y0130748D02*
X0085160Y0130748D01*
X0085160Y0131247D02*
X0142413Y0131247D01*
X0142413Y0131745D02*
X0085160Y0131745D01*
X0085160Y0132244D02*
X0142413Y0132244D01*
X0142413Y0132743D02*
X0085160Y0132743D01*
X0085160Y0133241D02*
X0142413Y0133241D01*
X0142413Y0133740D02*
X0112345Y0133740D01*
X0112819Y0133936D02*
X0114099Y0135216D01*
X0114791Y0136888D01*
X0114791Y0138698D01*
X0114099Y0140370D01*
X0112819Y0141650D01*
X0111146Y0142343D01*
X0109336Y0142343D01*
X0107664Y0141650D01*
X0106384Y0140370D01*
X0105691Y0138698D01*
X0105691Y0136888D01*
X0106384Y0135216D01*
X0107664Y0133936D01*
X0109336Y0133243D01*
X0111146Y0133243D01*
X0112819Y0133936D01*
X0113121Y0134238D02*
X0142413Y0134238D01*
X0142413Y0134737D02*
X0113619Y0134737D01*
X0114107Y0135235D02*
X0142413Y0135235D01*
X0142413Y0135734D02*
X0114313Y0135734D01*
X0114520Y0136232D02*
X0142413Y0136232D01*
X0142413Y0136731D02*
X0114726Y0136731D01*
X0114791Y0137229D02*
X0142413Y0137229D01*
X0142413Y0137728D02*
X0114791Y0137728D01*
X0114791Y0138226D02*
X0142413Y0138226D01*
X0142413Y0138725D02*
X0114780Y0138725D01*
X0114574Y0139223D02*
X0142413Y0139223D01*
X0142413Y0139722D02*
X0114367Y0139722D01*
X0114161Y0140220D02*
X0142413Y0140220D01*
X0142413Y0140719D02*
X0113750Y0140719D01*
X0113252Y0141217D02*
X0142413Y0141217D01*
X0142413Y0141716D02*
X0112661Y0141716D01*
X0111457Y0142214D02*
X0142413Y0142214D01*
X0142413Y0142713D02*
X0085160Y0142713D01*
X0085160Y0143211D02*
X0142413Y0143211D01*
X0142413Y0143710D02*
X0112273Y0143710D01*
X0112819Y0143936D02*
X0114099Y0145216D01*
X0114791Y0146888D01*
X0114791Y0148698D01*
X0114099Y0150370D01*
X0112819Y0151650D01*
X0111146Y0152343D01*
X0109336Y0152343D01*
X0107664Y0151650D01*
X0106384Y0150370D01*
X0105691Y0148698D01*
X0105691Y0146888D01*
X0106384Y0145216D01*
X0107664Y0143936D01*
X0109336Y0143243D01*
X0111146Y0143243D01*
X0112819Y0143936D01*
X0113091Y0144208D02*
X0142413Y0144208D01*
X0142413Y0144707D02*
X0113590Y0144707D01*
X0114088Y0145205D02*
X0142413Y0145205D01*
X0142413Y0145704D02*
X0114301Y0145704D01*
X0114507Y0146202D02*
X0142413Y0146202D01*
X0142413Y0146701D02*
X0114714Y0146701D01*
X0114791Y0147199D02*
X0142413Y0147199D01*
X0142413Y0147698D02*
X0114791Y0147698D01*
X0114791Y0148196D02*
X0142413Y0148196D01*
X0142413Y0148695D02*
X0114791Y0148695D01*
X0114586Y0149193D02*
X0142413Y0149193D01*
X0142413Y0149692D02*
X0114380Y0149692D01*
X0114173Y0150190D02*
X0142413Y0150190D01*
X0142413Y0150689D02*
X0113780Y0150689D01*
X0113282Y0151187D02*
X0142413Y0151187D01*
X0142413Y0151686D02*
X0112733Y0151686D01*
X0111529Y0152184D02*
X0142413Y0152184D01*
X0142413Y0152683D02*
X0085160Y0152683D01*
X0085160Y0153181D02*
X0108416Y0153181D01*
X0108341Y0153206D02*
X0109082Y0152965D01*
X0109852Y0152843D01*
X0109991Y0152843D01*
X0109991Y0157543D01*
X0105291Y0157543D01*
X0105291Y0157404D01*
X0105413Y0156634D01*
X0105654Y0155893D01*
X0106008Y0155199D01*
X0106466Y0154568D01*
X0107017Y0154017D01*
X0107647Y0153559D01*
X0108341Y0153206D01*
X0107481Y0153680D02*
X0085160Y0153680D01*
X0085160Y0154178D02*
X0106855Y0154178D01*
X0106387Y0154677D02*
X0085160Y0154677D01*
X0085160Y0155176D02*
X0106024Y0155176D01*
X0105765Y0155674D02*
X0085160Y0155674D01*
X0085160Y0156173D02*
X0105563Y0156173D01*
X0105407Y0156671D02*
X0085160Y0156671D01*
X0085160Y0157170D02*
X0105328Y0157170D01*
X0105291Y0158043D02*
X0109991Y0158043D01*
X0109991Y0157543D01*
X0110491Y0157543D01*
X0110491Y0152843D01*
X0110631Y0152843D01*
X0111400Y0152965D01*
X0112141Y0153206D01*
X0112836Y0153559D01*
X0113466Y0154017D01*
X0114017Y0154568D01*
X0114475Y0155199D01*
X0114829Y0155893D01*
X0115069Y0156634D01*
X0115191Y0157404D01*
X0115191Y0157543D01*
X0110491Y0157543D01*
X0110491Y0158043D01*
X0109991Y0158043D01*
X0109991Y0162743D01*
X0109852Y0162743D01*
X0109082Y0162621D01*
X0108341Y0162380D01*
X0107647Y0162027D01*
X0107017Y0161569D01*
X0106466Y0161018D01*
X0106008Y0160387D01*
X0105654Y0159693D01*
X0105413Y0158952D01*
X0105291Y0158183D01*
X0105291Y0158043D01*
X0105291Y0158167D02*
X0085160Y0158167D01*
X0085160Y0158665D02*
X0105368Y0158665D01*
X0105482Y0159164D02*
X0085160Y0159164D01*
X0085160Y0159662D02*
X0105644Y0159662D01*
X0105892Y0160161D02*
X0085160Y0160161D01*
X0085160Y0160659D02*
X0106205Y0160659D01*
X0106605Y0161158D02*
X0085160Y0161158D01*
X0085160Y0161656D02*
X0107137Y0161656D01*
X0107898Y0162155D02*
X0085160Y0162155D01*
X0085160Y0162653D02*
X0109284Y0162653D01*
X0109991Y0162653D02*
X0110491Y0162653D01*
X0110491Y0162743D02*
X0110631Y0162743D01*
X0111400Y0162621D01*
X0112141Y0162380D01*
X0112836Y0162027D01*
X0113466Y0161569D01*
X0114017Y0161018D01*
X0114475Y0160387D01*
X0114829Y0159693D01*
X0115069Y0158952D01*
X0115191Y0158183D01*
X0115191Y0158043D01*
X0110491Y0158043D01*
X0110491Y0162743D01*
X0110491Y0162155D02*
X0109991Y0162155D01*
X0109991Y0161656D02*
X0110491Y0161656D01*
X0110491Y0161158D02*
X0109991Y0161158D01*
X0109991Y0160659D02*
X0110491Y0160659D01*
X0110491Y0160161D02*
X0109991Y0160161D01*
X0109991Y0159662D02*
X0110491Y0159662D01*
X0110491Y0159164D02*
X0109991Y0159164D01*
X0109991Y0158665D02*
X0110491Y0158665D01*
X0110491Y0158167D02*
X0109991Y0158167D01*
X0109991Y0157668D02*
X0085160Y0157668D01*
X0085160Y0152184D02*
X0108953Y0152184D01*
X0107750Y0151686D02*
X0085160Y0151686D01*
X0085160Y0151187D02*
X0107201Y0151187D01*
X0106702Y0150689D02*
X0085160Y0150689D01*
X0085160Y0150190D02*
X0106309Y0150190D01*
X0106103Y0149692D02*
X0085160Y0149692D01*
X0085160Y0149193D02*
X0105896Y0149193D01*
X0105691Y0148695D02*
X0085160Y0148695D01*
X0085160Y0148196D02*
X0105691Y0148196D01*
X0105691Y0147698D02*
X0085160Y0147698D01*
X0085160Y0147199D02*
X0105691Y0147199D01*
X0105769Y0146701D02*
X0085160Y0146701D01*
X0085160Y0146202D02*
X0105975Y0146202D01*
X0106182Y0145704D02*
X0085160Y0145704D01*
X0085160Y0145205D02*
X0106394Y0145205D01*
X0106893Y0144707D02*
X0085160Y0144707D01*
X0085160Y0144208D02*
X0107391Y0144208D01*
X0108210Y0143710D02*
X0085160Y0143710D01*
X0085160Y0142214D02*
X0109025Y0142214D01*
X0107822Y0141716D02*
X0085160Y0141716D01*
X0085160Y0141217D02*
X0107231Y0141217D01*
X0106732Y0140719D02*
X0085160Y0140719D01*
X0085160Y0140220D02*
X0106322Y0140220D01*
X0106115Y0139722D02*
X0085160Y0139722D01*
X0085160Y0139223D02*
X0105909Y0139223D01*
X0105702Y0138725D02*
X0085160Y0138725D01*
X0085160Y0138226D02*
X0105691Y0138226D01*
X0105691Y0137728D02*
X0085160Y0137728D01*
X0085160Y0137229D02*
X0105691Y0137229D01*
X0105756Y0136731D02*
X0085160Y0136731D01*
X0085160Y0136232D02*
X0105963Y0136232D01*
X0106169Y0135734D02*
X0085160Y0135734D01*
X0085160Y0135235D02*
X0106376Y0135235D01*
X0106863Y0134737D02*
X0085160Y0134737D01*
X0085160Y0134238D02*
X0107362Y0134238D01*
X0108138Y0133740D02*
X0085160Y0133740D01*
X0082860Y0133740D02*
X0061798Y0133740D01*
X0061798Y0134238D02*
X0082860Y0134238D01*
X0082860Y0134737D02*
X0061798Y0134737D01*
X0061798Y0135235D02*
X0082860Y0135235D01*
X0082860Y0135734D02*
X0061798Y0135734D01*
X0061798Y0136232D02*
X0082860Y0136232D01*
X0082860Y0136731D02*
X0061798Y0136731D01*
X0061798Y0137229D02*
X0082860Y0137229D01*
X0082860Y0137728D02*
X0061798Y0137728D01*
X0061798Y0138226D02*
X0082860Y0138226D01*
X0082860Y0138725D02*
X0061798Y0138725D01*
X0061798Y0139223D02*
X0082860Y0139223D01*
X0082860Y0139722D02*
X0061798Y0139722D01*
X0061798Y0140220D02*
X0082860Y0140220D01*
X0082860Y0140719D02*
X0061798Y0140719D01*
X0061798Y0141217D02*
X0082860Y0141217D01*
X0082860Y0141716D02*
X0061798Y0141716D01*
X0061798Y0142214D02*
X0082860Y0142214D01*
X0082860Y0142713D02*
X0061798Y0142713D01*
X0061798Y0143211D02*
X0082860Y0143211D01*
X0082860Y0143710D02*
X0061798Y0143710D01*
X0061798Y0144208D02*
X0082860Y0144208D01*
X0082860Y0144707D02*
X0061798Y0144707D01*
X0061798Y0145205D02*
X0082860Y0145205D01*
X0082860Y0145704D02*
X0061798Y0145704D01*
X0061798Y0146202D02*
X0082860Y0146202D01*
X0082860Y0146701D02*
X0061798Y0146701D01*
X0061798Y0147199D02*
X0082860Y0147199D01*
X0082860Y0147698D02*
X0061798Y0147698D01*
X0061798Y0148196D02*
X0082860Y0148196D01*
X0082860Y0148695D02*
X0061798Y0148695D01*
X0061798Y0149193D02*
X0082860Y0149193D01*
X0082860Y0149692D02*
X0061798Y0149692D01*
X0061798Y0150190D02*
X0082860Y0150190D01*
X0082860Y0150689D02*
X0061798Y0150689D01*
X0061798Y0151187D02*
X0082860Y0151187D01*
X0082860Y0151686D02*
X0061798Y0151686D01*
X0061798Y0152184D02*
X0082860Y0152184D01*
X0082860Y0152683D02*
X0061798Y0152683D01*
X0061798Y0153181D02*
X0082860Y0153181D01*
X0082860Y0153680D02*
X0061798Y0153680D01*
X0061798Y0154178D02*
X0082860Y0154178D01*
X0082860Y0154677D02*
X0061798Y0154677D01*
X0061798Y0155176D02*
X0082860Y0155176D01*
X0082860Y0155674D02*
X0061798Y0155674D01*
X0061798Y0156173D02*
X0082860Y0156173D01*
X0082860Y0156671D02*
X0061798Y0156671D01*
X0061798Y0157170D02*
X0082860Y0157170D01*
X0082860Y0157668D02*
X0061798Y0157668D01*
X0061798Y0158167D02*
X0082860Y0158167D01*
X0082860Y0158665D02*
X0061798Y0158665D01*
X0061798Y0159164D02*
X0082860Y0159164D01*
X0082860Y0159662D02*
X0061798Y0159662D01*
X0061798Y0160161D02*
X0082860Y0160161D01*
X0082860Y0160659D02*
X0061798Y0160659D01*
X0061798Y0161158D02*
X0082860Y0161158D01*
X0082860Y0161656D02*
X0061798Y0161656D01*
X0061798Y0162155D02*
X0082860Y0162155D01*
X0082860Y0162653D02*
X0061798Y0162653D01*
X0061798Y0163152D02*
X0082860Y0163152D01*
X0082860Y0163650D02*
X0061798Y0163650D01*
X0061798Y0164149D02*
X0082860Y0164149D01*
X0082860Y0164647D02*
X0061798Y0164647D01*
X0061798Y0165146D02*
X0082860Y0165146D01*
X0082860Y0165644D02*
X0061798Y0165644D01*
X0061798Y0166143D02*
X0082860Y0166143D01*
X0082860Y0166641D02*
X0061798Y0166641D01*
X0061798Y0167140D02*
X0082860Y0167140D01*
X0082860Y0167638D02*
X0061798Y0167638D01*
X0061798Y0168137D02*
X0082860Y0168137D01*
X0082860Y0168635D02*
X0061798Y0168635D01*
X0061798Y0169134D02*
X0082860Y0169134D01*
X0082860Y0169632D02*
X0061798Y0169632D01*
X0061798Y0170131D02*
X0082860Y0170131D01*
X0082860Y0170629D02*
X0061798Y0170629D01*
X0061798Y0171128D02*
X0082860Y0171128D01*
X0082860Y0171626D02*
X0061798Y0171626D01*
X0061798Y0172125D02*
X0082860Y0172125D01*
X0082860Y0172623D02*
X0061798Y0172623D01*
X0061798Y0173122D02*
X0082860Y0173122D01*
X0082860Y0173620D02*
X0061798Y0173620D01*
X0061798Y0174119D02*
X0082860Y0174119D01*
X0082860Y0174617D02*
X0061798Y0174617D01*
X0061798Y0175116D02*
X0082860Y0175116D01*
X0082860Y0175614D02*
X0061798Y0175614D01*
X0061798Y0176113D02*
X0082860Y0176113D01*
X0082860Y0176612D02*
X0061798Y0176612D01*
X0061798Y0177110D02*
X0082860Y0177110D01*
X0082860Y0177609D02*
X0061798Y0177609D01*
X0061798Y0178107D02*
X0082860Y0178107D01*
X0082860Y0178606D02*
X0061798Y0178606D01*
X0061798Y0179104D02*
X0082860Y0179104D01*
X0082860Y0179603D02*
X0061798Y0179603D01*
X0061798Y0180101D02*
X0082860Y0180101D01*
X0082860Y0180600D02*
X0061798Y0180600D01*
X0061798Y0181098D02*
X0082860Y0181098D01*
X0082860Y0181597D02*
X0061798Y0181597D01*
X0061798Y0182095D02*
X0082860Y0182095D01*
X0082860Y0182594D02*
X0061798Y0182594D01*
X0061798Y0183092D02*
X0082860Y0183092D01*
X0082860Y0183591D02*
X0061798Y0183591D01*
X0061798Y0184089D02*
X0082860Y0184089D01*
X0082860Y0184588D02*
X0061798Y0184588D01*
X0061798Y0185086D02*
X0082860Y0185086D01*
X0082860Y0185585D02*
X0061798Y0185585D01*
X0061798Y0186083D02*
X0082860Y0186083D01*
X0082860Y0186582D02*
X0061798Y0186582D01*
X0061798Y0187080D02*
X0082860Y0187080D01*
X0082860Y0187579D02*
X0061798Y0187579D01*
X0061798Y0188077D02*
X0082860Y0188077D01*
X0082860Y0188576D02*
X0061798Y0188576D01*
X0061798Y0189074D02*
X0082860Y0189074D01*
X0082860Y0189573D02*
X0061798Y0189573D01*
X0061798Y0190071D02*
X0082860Y0190071D01*
X0082860Y0190570D02*
X0061798Y0190570D01*
X0061798Y0191068D02*
X0082860Y0191068D01*
X0082860Y0191567D02*
X0061798Y0191567D01*
X0061798Y0192065D02*
X0082860Y0192065D01*
X0082860Y0192564D02*
X0061798Y0192564D01*
X0061798Y0193062D02*
X0082860Y0193062D01*
X0082860Y0193561D02*
X0061798Y0193561D01*
X0061798Y0194059D02*
X0082860Y0194059D01*
X0082860Y0194558D02*
X0061798Y0194558D01*
X0061798Y0195056D02*
X0082860Y0195056D01*
X0082860Y0195555D02*
X0061798Y0195555D01*
X0061798Y0196053D02*
X0082860Y0196053D01*
X0082860Y0196552D02*
X0061798Y0196552D01*
X0061798Y0197050D02*
X0082860Y0197050D01*
X0082860Y0197549D02*
X0061798Y0197549D01*
X0061798Y0198047D02*
X0082860Y0198047D01*
X0082860Y0198546D02*
X0061798Y0198546D01*
X0061798Y0199045D02*
X0082860Y0199045D01*
X0082860Y0199543D02*
X0061798Y0199543D01*
X0061798Y0200042D02*
X0082860Y0200042D01*
X0082860Y0200540D02*
X0061798Y0200540D01*
X0061798Y0201039D02*
X0082860Y0201039D01*
X0082860Y0201537D02*
X0061798Y0201537D01*
X0061798Y0202036D02*
X0082860Y0202036D01*
X0082860Y0202534D02*
X0061798Y0202534D01*
X0061798Y0203033D02*
X0082860Y0203033D01*
X0082860Y0203531D02*
X0061798Y0203531D01*
X0061798Y0204030D02*
X0082860Y0204030D01*
X0082860Y0204528D02*
X0061798Y0204528D01*
X0061798Y0205027D02*
X0082860Y0205027D01*
X0082860Y0205525D02*
X0061798Y0205525D01*
X0061798Y0206024D02*
X0082860Y0206024D01*
X0082860Y0206522D02*
X0061798Y0206522D01*
X0061798Y0207021D02*
X0082860Y0207021D01*
X0082860Y0207519D02*
X0061798Y0207519D01*
X0061798Y0208018D02*
X0082860Y0208018D01*
X0082860Y0208516D02*
X0061798Y0208516D01*
X0061798Y0209015D02*
X0082860Y0209015D01*
X0082860Y0209513D02*
X0061798Y0209513D01*
X0061798Y0210012D02*
X0082860Y0210012D01*
X0082860Y0210510D02*
X0061798Y0210510D01*
X0061798Y0211009D02*
X0082860Y0211009D01*
X0082860Y0211507D02*
X0061798Y0211507D01*
X0061798Y0212006D02*
X0082860Y0212006D01*
X0082860Y0212504D02*
X0061798Y0212504D01*
X0061798Y0213003D02*
X0082860Y0213003D01*
X0082860Y0213501D02*
X0061798Y0213501D01*
X0061798Y0214000D02*
X0082860Y0214000D01*
X0082860Y0214498D02*
X0061798Y0214498D01*
X0061798Y0214997D02*
X0082860Y0214997D01*
X0082860Y0215495D02*
X0061798Y0215495D01*
X0061798Y0215994D02*
X0082860Y0215994D01*
X0082860Y0216492D02*
X0061798Y0216492D01*
X0061798Y0216991D02*
X0082860Y0216991D01*
X0082860Y0217489D02*
X0061798Y0217489D01*
X0061798Y0217988D02*
X0082860Y0217988D01*
X0082860Y0218486D02*
X0061798Y0218486D01*
X0061798Y0218985D02*
X0082860Y0218985D01*
X0082860Y0219483D02*
X0061798Y0219483D01*
X0061798Y0219982D02*
X0082860Y0219982D01*
X0082860Y0220480D02*
X0061798Y0220480D01*
X0061798Y0220979D02*
X0082860Y0220979D01*
X0082860Y0221478D02*
X0061798Y0221478D01*
X0061798Y0221976D02*
X0082860Y0221976D01*
X0082860Y0222475D02*
X0061798Y0222475D01*
X0061798Y0222973D02*
X0082860Y0222973D01*
X0082860Y0223472D02*
X0061798Y0223472D01*
X0061798Y0223970D02*
X0082860Y0223970D01*
X0082860Y0224469D02*
X0061798Y0224469D01*
X0061798Y0224967D02*
X0082860Y0224967D01*
X0082860Y0225466D02*
X0061798Y0225466D01*
X0061798Y0225964D02*
X0082860Y0225964D01*
X0082860Y0226463D02*
X0061798Y0226463D01*
X0061798Y0226961D02*
X0082860Y0226961D01*
X0082860Y0227460D02*
X0061798Y0227460D01*
X0061798Y0227958D02*
X0082860Y0227958D01*
X0082860Y0228457D02*
X0061798Y0228457D01*
X0061798Y0228955D02*
X0082860Y0228955D01*
X0082860Y0229454D02*
X0061798Y0229454D01*
X0061798Y0229952D02*
X0082860Y0229952D01*
X0082860Y0230451D02*
X0061798Y0230451D01*
X0061798Y0230949D02*
X0082860Y0230949D01*
X0082860Y0231448D02*
X0061798Y0231448D01*
X0061798Y0231946D02*
X0082860Y0231946D01*
X0082860Y0232445D02*
X0061798Y0232445D01*
X0061798Y0232943D02*
X0082860Y0232943D01*
X0082860Y0233442D02*
X0061798Y0233442D01*
X0061798Y0233940D02*
X0082860Y0233940D01*
X0082860Y0234439D02*
X0061798Y0234439D01*
X0061798Y0234937D02*
X0082860Y0234937D01*
X0082860Y0235436D02*
X0061798Y0235436D01*
X0061798Y0235934D02*
X0082860Y0235934D01*
X0082860Y0236433D02*
X0061798Y0236433D01*
X0061798Y0236931D02*
X0082860Y0236931D01*
X0082860Y0237430D02*
X0061798Y0237430D01*
X0061798Y0237928D02*
X0082860Y0237928D01*
X0082860Y0238427D02*
X0061798Y0238427D01*
X0061798Y0238925D02*
X0082860Y0238925D01*
X0082860Y0239424D02*
X0061798Y0239424D01*
X0061798Y0239922D02*
X0082860Y0239922D01*
X0082860Y0240421D02*
X0061798Y0240421D01*
X0061798Y0240919D02*
X0082860Y0240919D01*
X0082860Y0241418D02*
X0061798Y0241418D01*
X0061798Y0241916D02*
X0082860Y0241916D01*
X0082860Y0242415D02*
X0061798Y0242415D01*
X0061798Y0242914D02*
X0082860Y0242914D01*
X0082860Y0243412D02*
X0061798Y0243412D01*
X0061798Y0243911D02*
X0082860Y0243911D01*
X0082860Y0244409D02*
X0061798Y0244409D01*
X0061798Y0244908D02*
X0082860Y0244908D01*
X0082860Y0245406D02*
X0061798Y0245406D01*
X0061798Y0245905D02*
X0082860Y0245905D01*
X0082860Y0246403D02*
X0061798Y0246403D01*
X0061798Y0246902D02*
X0082860Y0246902D01*
X0082860Y0247400D02*
X0061798Y0247400D01*
X0061798Y0247899D02*
X0082860Y0247899D01*
X0082860Y0248397D02*
X0061798Y0248397D01*
X0061798Y0248896D02*
X0082860Y0248896D01*
X0082860Y0249394D02*
X0061798Y0249394D01*
X0061798Y0249893D02*
X0082860Y0249893D01*
X0082860Y0250391D02*
X0061798Y0250391D01*
X0061798Y0250890D02*
X0082860Y0250890D01*
X0082860Y0251388D02*
X0061798Y0251388D01*
X0061798Y0251887D02*
X0082860Y0251887D01*
X0082860Y0252385D02*
X0061798Y0252385D01*
X0061798Y0252884D02*
X0082860Y0252884D01*
X0082860Y0253382D02*
X0061798Y0253382D01*
X0061798Y0253881D02*
X0082860Y0253881D01*
X0082860Y0254379D02*
X0061798Y0254379D01*
X0061798Y0254878D02*
X0082860Y0254878D01*
X0082860Y0255376D02*
X0061798Y0255376D01*
X0061798Y0255875D02*
X0082860Y0255875D01*
X0082860Y0256373D02*
X0061798Y0256373D01*
X0061798Y0256872D02*
X0082860Y0256872D01*
X0082860Y0257370D02*
X0061798Y0257370D01*
X0061798Y0257869D02*
X0082860Y0257869D01*
X0082860Y0258367D02*
X0061798Y0258367D01*
X0061798Y0258866D02*
X0082860Y0258866D01*
X0082860Y0259364D02*
X0061798Y0259364D01*
X0061798Y0259863D02*
X0082860Y0259863D01*
X0082860Y0260361D02*
X0061798Y0260361D01*
X0061798Y0260860D02*
X0082860Y0260860D01*
X0082860Y0261358D02*
X0061798Y0261358D01*
X0061798Y0261857D02*
X0082860Y0261857D01*
X0082860Y0262355D02*
X0061798Y0262355D01*
X0061798Y0262854D02*
X0082860Y0262854D01*
X0082860Y0263352D02*
X0061798Y0263352D01*
X0061798Y0263851D02*
X0082860Y0263851D01*
X0082860Y0264349D02*
X0061798Y0264349D01*
X0061798Y0264848D02*
X0082860Y0264848D01*
X0082860Y0265347D02*
X0061798Y0265347D01*
X0061798Y0265845D02*
X0082860Y0265845D01*
X0082860Y0266344D02*
X0061798Y0266344D01*
X0061798Y0266842D02*
X0082860Y0266842D01*
X0082860Y0267341D02*
X0061798Y0267341D01*
X0061798Y0267839D02*
X0082860Y0267839D01*
X0082860Y0268338D02*
X0061798Y0268338D01*
X0061798Y0268836D02*
X0082860Y0268836D01*
X0082860Y0269335D02*
X0061798Y0269335D01*
X0061798Y0269833D02*
X0082860Y0269833D01*
X0082860Y0270332D02*
X0061798Y0270332D01*
X0061798Y0270830D02*
X0082860Y0270830D01*
X0082860Y0271329D02*
X0061798Y0271329D01*
X0061798Y0271827D02*
X0082860Y0271827D01*
X0082860Y0272326D02*
X0061798Y0272326D01*
X0061798Y0272824D02*
X0082860Y0272824D01*
X0082860Y0273323D02*
X0061798Y0273323D01*
X0061798Y0273821D02*
X0082860Y0273821D01*
X0082860Y0274320D02*
X0061798Y0274320D01*
X0061798Y0274818D02*
X0082860Y0274818D01*
X0082860Y0275317D02*
X0061798Y0275317D01*
X0061798Y0275815D02*
X0082860Y0275815D01*
X0082860Y0276314D02*
X0061798Y0276314D01*
X0061798Y0276812D02*
X0082860Y0276812D01*
X0082860Y0277311D02*
X0061798Y0277311D01*
X0061798Y0277809D02*
X0082860Y0277809D01*
X0082860Y0278308D02*
X0061798Y0278308D01*
X0061798Y0278806D02*
X0082860Y0278806D01*
X0082860Y0279305D02*
X0061798Y0279305D01*
X0061798Y0279803D02*
X0082860Y0279803D01*
X0082860Y0280302D02*
X0061798Y0280302D01*
X0061798Y0280800D02*
X0082860Y0280800D01*
X0082860Y0281299D02*
X0061798Y0281299D01*
X0061798Y0281797D02*
X0082860Y0281797D01*
X0082860Y0282296D02*
X0061798Y0282296D01*
X0061798Y0282794D02*
X0082860Y0282794D01*
X0082860Y0283293D02*
X0061798Y0283293D01*
X0061798Y0283791D02*
X0082860Y0283791D01*
X0082860Y0284290D02*
X0061798Y0284290D01*
X0061798Y0284788D02*
X0082860Y0284788D01*
X0082860Y0285287D02*
X0061798Y0285287D01*
X0061798Y0285785D02*
X0082860Y0285785D01*
X0082860Y0286284D02*
X0061798Y0286284D01*
X0061798Y0286783D02*
X0082860Y0286783D01*
X0082860Y0287281D02*
X0061798Y0287281D01*
X0061798Y0287780D02*
X0082860Y0287780D01*
X0082860Y0288278D02*
X0061798Y0288278D01*
X0061798Y0288777D02*
X0082860Y0288777D01*
X0082860Y0289275D02*
X0061798Y0289275D01*
X0061798Y0289774D02*
X0082860Y0289774D01*
X0082860Y0290272D02*
X0061798Y0290272D01*
X0061798Y0290771D02*
X0082860Y0290771D01*
X0082860Y0291269D02*
X0061798Y0291269D01*
X0061798Y0291768D02*
X0082860Y0291768D01*
X0082860Y0292266D02*
X0061798Y0292266D01*
X0061798Y0292765D02*
X0082860Y0292765D01*
X0082860Y0293263D02*
X0061798Y0293263D01*
X0061798Y0293762D02*
X0082860Y0293762D01*
X0082860Y0294260D02*
X0061873Y0294260D01*
X0062371Y0294759D02*
X0082860Y0294759D01*
X0082860Y0295257D02*
X0062870Y0295257D01*
X0063368Y0295756D02*
X0082860Y0295756D01*
X0082860Y0296254D02*
X0063867Y0296254D01*
X0064365Y0296753D02*
X0082860Y0296753D01*
X0082860Y0297251D02*
X0064864Y0297251D01*
X0065352Y0297750D02*
X0082860Y0297750D01*
X0082860Y0298248D02*
X0065558Y0298248D01*
X0065765Y0298747D02*
X0082860Y0298747D01*
X0082860Y0299245D02*
X0065778Y0299245D01*
X0065778Y0299744D02*
X0082860Y0299744D01*
X0082860Y0300242D02*
X0065778Y0300242D01*
X0065778Y0300741D02*
X0082860Y0300741D01*
X0082860Y0301239D02*
X0065778Y0301239D01*
X0065778Y0301738D02*
X0082860Y0301738D01*
X0082860Y0302236D02*
X0065778Y0302236D01*
X0065778Y0302735D02*
X0082860Y0302735D01*
X0082860Y0303233D02*
X0065778Y0303233D01*
X0065778Y0303732D02*
X0082860Y0303732D01*
X0082860Y0304230D02*
X0065778Y0304230D01*
X0065778Y0304729D02*
X0082860Y0304729D01*
X0082860Y0305227D02*
X0065778Y0305227D01*
X0065778Y0305726D02*
X0082860Y0305726D01*
X0082860Y0306224D02*
X0065778Y0306224D01*
X0065778Y0306723D02*
X0082860Y0306723D01*
X0082860Y0307221D02*
X0065778Y0307221D01*
X0065778Y0307720D02*
X0082860Y0307720D01*
X0082860Y0308218D02*
X0065778Y0308218D01*
X0065665Y0308717D02*
X0082860Y0308717D01*
X0082860Y0309216D02*
X0065459Y0309216D01*
X0065123Y0309714D02*
X0082860Y0309714D01*
X0082860Y0310213D02*
X0064625Y0310213D01*
X0064126Y0310711D02*
X0082860Y0310711D01*
X0082860Y0311210D02*
X0063627Y0311210D01*
X0063129Y0311708D02*
X0082860Y0311708D01*
X0082860Y0312207D02*
X0062630Y0312207D01*
X0062132Y0312705D02*
X0082860Y0312705D01*
X0082860Y0313204D02*
X0061798Y0313204D01*
X0061798Y0313702D02*
X0082860Y0313702D01*
X0082860Y0314201D02*
X0061798Y0314201D01*
X0061798Y0314699D02*
X0082860Y0314699D01*
X0082860Y0315198D02*
X0061798Y0315198D01*
X0061798Y0315696D02*
X0082860Y0315696D01*
X0082860Y0316195D02*
X0061798Y0316195D01*
X0061798Y0316693D02*
X0082860Y0316693D01*
X0082860Y0317192D02*
X0061798Y0317192D01*
X0061798Y0317690D02*
X0082860Y0317690D01*
X0082860Y0318189D02*
X0061798Y0318189D01*
X0061798Y0318687D02*
X0082860Y0318687D01*
X0082860Y0319186D02*
X0061798Y0319186D01*
X0061798Y0319684D02*
X0082860Y0319684D01*
X0082860Y0320183D02*
X0061798Y0320183D01*
X0061798Y0320681D02*
X0082860Y0320681D01*
X0082860Y0321180D02*
X0061798Y0321180D01*
X0061798Y0321678D02*
X0082860Y0321678D01*
X0082860Y0321754D02*
X0082860Y0087541D01*
X0081547Y0086997D01*
X0080267Y0085717D01*
X0079574Y0084045D01*
X0079574Y0082235D01*
X0080267Y0080562D01*
X0081547Y0079282D01*
X0083219Y0078590D01*
X0085029Y0078590D01*
X0086701Y0079282D01*
X0087981Y0080562D01*
X0088674Y0082235D01*
X0088674Y0084045D01*
X0087981Y0085717D01*
X0086701Y0086997D01*
X0085160Y0087636D01*
X0085160Y0322707D01*
X0084486Y0323380D01*
X0084150Y0323717D01*
X0083476Y0324391D01*
X0077871Y0324391D01*
X0077516Y0324746D01*
X0077516Y0355002D01*
X0077592Y0355078D01*
X0082554Y0355078D01*
X0083228Y0355752D01*
X0084035Y0356559D01*
X0084435Y0356159D01*
X0085473Y0355121D01*
X0086146Y0354448D01*
X0093676Y0354448D01*
X0093969Y0353740D01*
X0094883Y0352825D01*
X0096078Y0352331D01*
X0102170Y0352331D01*
X0103365Y0352825D01*
X0104279Y0353740D01*
X0104774Y0354934D01*
X0104774Y0356227D01*
X0104279Y0357422D01*
X0103365Y0358336D01*
X0102170Y0358831D01*
X0096078Y0358831D01*
X0094883Y0358336D01*
X0093969Y0357422D01*
X0093690Y0356748D01*
X0087099Y0356748D01*
X0086061Y0357785D01*
X0086061Y0444025D01*
X0087528Y0445492D01*
X0126498Y0445492D01*
X0125306Y0444300D01*
X0124613Y0442627D01*
X0124613Y0440817D01*
X0125306Y0439145D01*
X0126586Y0437865D01*
X0128258Y0437172D01*
X0130068Y0437172D01*
X0131741Y0437865D01*
X0133021Y0439145D01*
X0133713Y0440817D01*
X0133713Y0442627D01*
X0133021Y0444300D01*
X0131829Y0445492D01*
X0134254Y0445492D01*
X0135585Y0446822D01*
X0136258Y0447496D01*
X0136258Y0471090D01*
X0134476Y0472872D01*
X0133612Y0472872D01*
X0133021Y0474300D01*
X0131741Y0475580D01*
X0130068Y0476272D01*
X0128258Y0476272D01*
X0126586Y0475580D01*
X0125306Y0474300D01*
X0124613Y0472627D01*
X0124613Y0470817D01*
X0125306Y0469145D01*
X0126586Y0467865D01*
X0128258Y0467172D01*
X0130068Y0467172D01*
X0131741Y0467865D01*
X0133021Y0469145D01*
X0133586Y0470510D01*
X0133958Y0470137D01*
X0133958Y0448448D01*
X0133302Y0447792D01*
X0131564Y0447792D01*
X0131741Y0447865D01*
X0133021Y0449145D01*
X0133713Y0450817D01*
X0133713Y0452627D01*
X0133021Y0454300D01*
X0131741Y0455580D01*
X0130068Y0456272D01*
X0128258Y0456272D01*
X0126586Y0455580D01*
X0125306Y0454300D01*
X0124715Y0452872D01*
X0084078Y0452872D01*
X0082124Y0450919D01*
X0082124Y0479231D01*
X0083466Y0480572D01*
X0124715Y0480572D01*
X0125306Y0479145D01*
X0126586Y0477865D01*
X0128258Y0477172D01*
X0130068Y0477172D01*
X0131741Y0477865D01*
X0133021Y0479145D01*
X0133713Y0480817D01*
X0133713Y0482627D01*
X0133021Y0484300D01*
X0131741Y0485580D01*
X0130068Y0486272D01*
X0128258Y0486272D01*
X0126586Y0485580D01*
X0125306Y0484300D01*
X0124715Y0482872D01*
X0082513Y0482872D01*
X0079824Y0480184D01*
X0079824Y0374266D01*
X0079297Y0373739D01*
X0073573Y0373739D01*
X0072981Y0375166D01*
X0071701Y0376446D01*
X0070029Y0377139D01*
X0068219Y0377139D01*
X0066547Y0376446D01*
X0065267Y0375166D01*
X0064574Y0373494D01*
X0064574Y0371684D01*
X0065267Y0370011D01*
X0066547Y0368731D01*
X0067499Y0368337D01*
X0066547Y0367942D01*
X0065267Y0366662D01*
X0064574Y0364990D01*
X0064574Y0363180D01*
X0065267Y0361507D01*
X0066547Y0360227D01*
X0068219Y0359535D01*
X0070029Y0359535D01*
X0071701Y0360227D01*
X0072981Y0361507D01*
X0073573Y0362935D01*
X0081781Y0362935D01*
X0081781Y0357558D01*
X0081601Y0357378D01*
X0076639Y0357378D01*
X0075216Y0355955D01*
X0075216Y0323793D01*
X0076918Y0322091D01*
X0082523Y0322091D01*
X0082860Y0321754D01*
X0084194Y0323672D02*
X0142413Y0323672D01*
X0142413Y0323174D02*
X0084693Y0323174D01*
X0085160Y0322675D02*
X0142413Y0322675D01*
X0142413Y0322177D02*
X0085160Y0322177D01*
X0085160Y0321678D02*
X0142413Y0321678D01*
X0142413Y0321180D02*
X0085160Y0321180D01*
X0085160Y0320681D02*
X0142413Y0320681D01*
X0142413Y0320183D02*
X0085160Y0320183D01*
X0085160Y0319684D02*
X0142413Y0319684D01*
X0142413Y0319186D02*
X0085160Y0319186D01*
X0085160Y0318687D02*
X0142413Y0318687D01*
X0142413Y0318189D02*
X0085160Y0318189D01*
X0085160Y0317690D02*
X0142413Y0317690D01*
X0142413Y0317192D02*
X0085160Y0317192D01*
X0085160Y0316693D02*
X0142413Y0316693D01*
X0142413Y0316195D02*
X0085160Y0316195D01*
X0085160Y0315696D02*
X0142413Y0315696D01*
X0142413Y0315198D02*
X0085160Y0315198D01*
X0085160Y0314699D02*
X0142413Y0314699D01*
X0142413Y0314201D02*
X0085160Y0314201D01*
X0085160Y0313702D02*
X0142413Y0313702D01*
X0142413Y0313204D02*
X0085160Y0313204D01*
X0085160Y0312705D02*
X0142413Y0312705D01*
X0142413Y0312207D02*
X0085160Y0312207D01*
X0085160Y0311708D02*
X0142413Y0311708D01*
X0142413Y0311210D02*
X0085160Y0311210D01*
X0085160Y0310711D02*
X0142413Y0310711D01*
X0142413Y0310213D02*
X0085160Y0310213D01*
X0085160Y0309714D02*
X0142413Y0309714D01*
X0142413Y0309216D02*
X0085160Y0309216D01*
X0085160Y0308717D02*
X0142413Y0308717D01*
X0142413Y0308218D02*
X0085160Y0308218D01*
X0085160Y0307720D02*
X0142413Y0307720D01*
X0142413Y0307221D02*
X0085160Y0307221D01*
X0085160Y0306723D02*
X0142413Y0306723D01*
X0142413Y0306224D02*
X0085160Y0306224D01*
X0085160Y0305726D02*
X0142413Y0305726D01*
X0142413Y0305227D02*
X0085160Y0305227D01*
X0085160Y0304729D02*
X0142413Y0304729D01*
X0142413Y0304230D02*
X0085160Y0304230D01*
X0085160Y0303732D02*
X0142413Y0303732D01*
X0142413Y0303233D02*
X0085160Y0303233D01*
X0085160Y0302735D02*
X0142413Y0302735D01*
X0142413Y0302236D02*
X0085160Y0302236D01*
X0085160Y0301738D02*
X0142413Y0301738D01*
X0142413Y0301239D02*
X0085160Y0301239D01*
X0085160Y0300741D02*
X0142413Y0300741D01*
X0142413Y0300242D02*
X0085160Y0300242D01*
X0085160Y0299744D02*
X0142413Y0299744D01*
X0142413Y0299245D02*
X0085160Y0299245D01*
X0085160Y0298747D02*
X0142413Y0298747D01*
X0142413Y0298248D02*
X0085160Y0298248D01*
X0085160Y0297750D02*
X0142413Y0297750D01*
X0142413Y0297251D02*
X0085160Y0297251D01*
X0085160Y0296753D02*
X0142413Y0296753D01*
X0142413Y0296254D02*
X0085160Y0296254D01*
X0085160Y0295756D02*
X0142413Y0295756D01*
X0142413Y0295257D02*
X0085160Y0295257D01*
X0085160Y0294759D02*
X0142413Y0294759D01*
X0142413Y0294260D02*
X0085160Y0294260D01*
X0085160Y0293762D02*
X0142413Y0293762D01*
X0142413Y0293263D02*
X0085160Y0293263D01*
X0085160Y0292765D02*
X0142413Y0292765D01*
X0142413Y0292266D02*
X0085160Y0292266D01*
X0085160Y0291768D02*
X0142413Y0291768D01*
X0142413Y0291269D02*
X0085160Y0291269D01*
X0085160Y0290771D02*
X0142413Y0290771D01*
X0142413Y0290272D02*
X0085160Y0290272D01*
X0085160Y0289774D02*
X0142413Y0289774D01*
X0142413Y0289275D02*
X0085160Y0289275D01*
X0085160Y0288777D02*
X0142413Y0288777D01*
X0142413Y0288278D02*
X0085160Y0288278D01*
X0085160Y0287780D02*
X0142413Y0287780D01*
X0142413Y0287281D02*
X0085160Y0287281D01*
X0085160Y0286783D02*
X0142413Y0286783D01*
X0142413Y0286284D02*
X0085160Y0286284D01*
X0085160Y0285785D02*
X0142413Y0285785D01*
X0142413Y0285287D02*
X0085160Y0285287D01*
X0085160Y0284788D02*
X0142413Y0284788D01*
X0142413Y0284290D02*
X0085160Y0284290D01*
X0085160Y0283791D02*
X0142413Y0283791D01*
X0142413Y0283293D02*
X0085160Y0283293D01*
X0085160Y0282794D02*
X0142413Y0282794D01*
X0142413Y0282296D02*
X0085160Y0282296D01*
X0085160Y0281797D02*
X0142413Y0281797D01*
X0142413Y0281299D02*
X0085160Y0281299D01*
X0085160Y0280800D02*
X0142413Y0280800D01*
X0142413Y0280302D02*
X0085160Y0280302D01*
X0085160Y0279803D02*
X0142413Y0279803D01*
X0142413Y0279305D02*
X0085160Y0279305D01*
X0085160Y0278806D02*
X0142413Y0278806D01*
X0142413Y0278308D02*
X0085160Y0278308D01*
X0085160Y0277809D02*
X0142413Y0277809D01*
X0142413Y0277311D02*
X0085160Y0277311D01*
X0085160Y0276812D02*
X0142413Y0276812D01*
X0142413Y0276314D02*
X0085160Y0276314D01*
X0085160Y0275815D02*
X0142413Y0275815D01*
X0142413Y0275317D02*
X0085160Y0275317D01*
X0085160Y0274818D02*
X0142413Y0274818D01*
X0142413Y0274320D02*
X0085160Y0274320D01*
X0085160Y0273821D02*
X0142413Y0273821D01*
X0142413Y0273323D02*
X0085160Y0273323D01*
X0085160Y0272824D02*
X0142413Y0272824D01*
X0142413Y0272326D02*
X0085160Y0272326D01*
X0085160Y0271827D02*
X0142413Y0271827D01*
X0142413Y0271329D02*
X0085160Y0271329D01*
X0085160Y0270830D02*
X0142413Y0270830D01*
X0142413Y0270332D02*
X0085160Y0270332D01*
X0085160Y0269833D02*
X0142413Y0269833D01*
X0142413Y0269335D02*
X0085160Y0269335D01*
X0085160Y0268836D02*
X0142413Y0268836D01*
X0142413Y0268338D02*
X0085160Y0268338D01*
X0085160Y0267839D02*
X0142413Y0267839D01*
X0142413Y0267341D02*
X0085160Y0267341D01*
X0085160Y0266842D02*
X0142413Y0266842D01*
X0142413Y0266344D02*
X0085160Y0266344D01*
X0085160Y0265845D02*
X0142413Y0265845D01*
X0142413Y0265347D02*
X0085160Y0265347D01*
X0085160Y0264848D02*
X0142413Y0264848D01*
X0142413Y0264349D02*
X0085160Y0264349D01*
X0085160Y0263851D02*
X0142413Y0263851D01*
X0142413Y0263352D02*
X0085160Y0263352D01*
X0085160Y0262854D02*
X0142413Y0262854D01*
X0142413Y0262355D02*
X0085160Y0262355D01*
X0085160Y0261857D02*
X0142413Y0261857D01*
X0142413Y0261358D02*
X0085160Y0261358D01*
X0085160Y0260860D02*
X0142413Y0260860D01*
X0142413Y0260361D02*
X0085160Y0260361D01*
X0085160Y0259863D02*
X0142413Y0259863D01*
X0142413Y0259364D02*
X0085160Y0259364D01*
X0085160Y0258866D02*
X0142413Y0258866D01*
X0142413Y0258367D02*
X0085160Y0258367D01*
X0085160Y0257869D02*
X0142413Y0257869D01*
X0142413Y0257370D02*
X0085160Y0257370D01*
X0085160Y0256872D02*
X0142413Y0256872D01*
X0142413Y0256373D02*
X0085160Y0256373D01*
X0085160Y0255875D02*
X0142413Y0255875D01*
X0142413Y0255376D02*
X0085160Y0255376D01*
X0085160Y0254878D02*
X0142413Y0254878D01*
X0142413Y0254379D02*
X0085160Y0254379D01*
X0085160Y0253881D02*
X0142413Y0253881D01*
X0142413Y0253382D02*
X0085160Y0253382D01*
X0085160Y0252884D02*
X0142413Y0252884D01*
X0142413Y0252385D02*
X0085160Y0252385D01*
X0085160Y0251887D02*
X0142413Y0251887D01*
X0142413Y0251388D02*
X0085160Y0251388D01*
X0085160Y0250890D02*
X0142413Y0250890D01*
X0142413Y0250391D02*
X0085160Y0250391D01*
X0085160Y0249893D02*
X0142413Y0249893D01*
X0142413Y0249394D02*
X0085160Y0249394D01*
X0085160Y0248896D02*
X0142413Y0248896D01*
X0142413Y0248397D02*
X0085160Y0248397D01*
X0085160Y0247899D02*
X0142413Y0247899D01*
X0142413Y0247400D02*
X0085160Y0247400D01*
X0085160Y0246902D02*
X0142413Y0246902D01*
X0142413Y0246403D02*
X0085160Y0246403D01*
X0085160Y0245905D02*
X0142413Y0245905D01*
X0142413Y0245406D02*
X0085160Y0245406D01*
X0085160Y0244908D02*
X0142413Y0244908D01*
X0142413Y0244409D02*
X0085160Y0244409D01*
X0085160Y0243911D02*
X0142413Y0243911D01*
X0142413Y0243412D02*
X0085160Y0243412D01*
X0085160Y0242914D02*
X0142413Y0242914D01*
X0142413Y0242415D02*
X0085160Y0242415D01*
X0085160Y0241916D02*
X0142413Y0241916D01*
X0142413Y0241418D02*
X0085160Y0241418D01*
X0085160Y0240919D02*
X0142413Y0240919D01*
X0142413Y0240421D02*
X0085160Y0240421D01*
X0085160Y0239922D02*
X0142413Y0239922D01*
X0142413Y0239424D02*
X0085160Y0239424D01*
X0085160Y0238925D02*
X0142413Y0238925D01*
X0142413Y0238427D02*
X0085160Y0238427D01*
X0085160Y0237928D02*
X0142413Y0237928D01*
X0142413Y0237430D02*
X0085160Y0237430D01*
X0085160Y0236931D02*
X0142413Y0236931D01*
X0142413Y0236433D02*
X0085160Y0236433D01*
X0085160Y0235934D02*
X0142413Y0235934D01*
X0142413Y0235436D02*
X0085160Y0235436D01*
X0085160Y0234937D02*
X0142413Y0234937D01*
X0142413Y0234439D02*
X0085160Y0234439D01*
X0085160Y0233940D02*
X0142413Y0233940D01*
X0142413Y0233442D02*
X0085160Y0233442D01*
X0085160Y0232943D02*
X0142413Y0232943D01*
X0142413Y0232445D02*
X0085160Y0232445D01*
X0085160Y0231946D02*
X0142413Y0231946D01*
X0142413Y0231448D02*
X0085160Y0231448D01*
X0085160Y0230949D02*
X0142413Y0230949D01*
X0142413Y0230451D02*
X0085160Y0230451D01*
X0085160Y0229952D02*
X0142413Y0229952D01*
X0142413Y0229454D02*
X0085160Y0229454D01*
X0085160Y0228955D02*
X0142413Y0228955D01*
X0142413Y0228457D02*
X0085160Y0228457D01*
X0085160Y0227958D02*
X0142413Y0227958D01*
X0142413Y0227460D02*
X0085160Y0227460D01*
X0085160Y0226961D02*
X0142413Y0226961D01*
X0142413Y0226463D02*
X0085160Y0226463D01*
X0085160Y0225964D02*
X0142413Y0225964D01*
X0142413Y0225466D02*
X0085160Y0225466D01*
X0085160Y0224967D02*
X0142413Y0224967D01*
X0142413Y0224469D02*
X0085160Y0224469D01*
X0085160Y0223970D02*
X0142413Y0223970D01*
X0142413Y0223472D02*
X0085160Y0223472D01*
X0085160Y0222973D02*
X0142413Y0222973D01*
X0142413Y0222475D02*
X0085160Y0222475D01*
X0085160Y0221976D02*
X0142413Y0221976D01*
X0142413Y0221478D02*
X0085160Y0221478D01*
X0085160Y0220979D02*
X0142413Y0220979D01*
X0142413Y0220480D02*
X0085160Y0220480D01*
X0085160Y0219982D02*
X0142413Y0219982D01*
X0142413Y0219483D02*
X0085160Y0219483D01*
X0085160Y0218985D02*
X0142413Y0218985D01*
X0142413Y0218486D02*
X0085160Y0218486D01*
X0085160Y0217988D02*
X0142413Y0217988D01*
X0142413Y0217489D02*
X0085160Y0217489D01*
X0085160Y0216991D02*
X0142413Y0216991D01*
X0142413Y0216492D02*
X0085160Y0216492D01*
X0085160Y0215994D02*
X0142413Y0215994D01*
X0142413Y0215495D02*
X0085160Y0215495D01*
X0085160Y0214997D02*
X0142413Y0214997D01*
X0142413Y0214498D02*
X0085160Y0214498D01*
X0085160Y0214000D02*
X0142413Y0214000D01*
X0142413Y0213501D02*
X0085160Y0213501D01*
X0085160Y0213003D02*
X0142413Y0213003D01*
X0142413Y0212504D02*
X0085160Y0212504D01*
X0085160Y0212006D02*
X0142413Y0212006D01*
X0142413Y0211507D02*
X0085160Y0211507D01*
X0085160Y0211009D02*
X0142413Y0211009D01*
X0142413Y0210510D02*
X0085160Y0210510D01*
X0085160Y0210012D02*
X0142413Y0210012D01*
X0142413Y0209513D02*
X0085160Y0209513D01*
X0085160Y0209015D02*
X0142413Y0209015D01*
X0142413Y0208516D02*
X0085160Y0208516D01*
X0085160Y0208018D02*
X0142413Y0208018D01*
X0142413Y0207519D02*
X0085160Y0207519D01*
X0085160Y0207021D02*
X0142413Y0207021D01*
X0142413Y0206522D02*
X0085160Y0206522D01*
X0085160Y0206024D02*
X0142413Y0206024D01*
X0142413Y0205525D02*
X0085160Y0205525D01*
X0085160Y0205027D02*
X0142413Y0205027D01*
X0142413Y0204528D02*
X0085160Y0204528D01*
X0085160Y0204030D02*
X0142413Y0204030D01*
X0142413Y0203531D02*
X0085160Y0203531D01*
X0085160Y0203033D02*
X0142413Y0203033D01*
X0142413Y0202534D02*
X0085160Y0202534D01*
X0085160Y0202036D02*
X0142413Y0202036D01*
X0142413Y0201537D02*
X0085160Y0201537D01*
X0085160Y0201039D02*
X0142413Y0201039D01*
X0142413Y0200540D02*
X0085160Y0200540D01*
X0085160Y0200042D02*
X0142413Y0200042D01*
X0142413Y0199543D02*
X0085160Y0199543D01*
X0085160Y0199045D02*
X0142413Y0199045D01*
X0142413Y0198546D02*
X0085160Y0198546D01*
X0085160Y0198047D02*
X0142413Y0198047D01*
X0142413Y0197549D02*
X0085160Y0197549D01*
X0085160Y0197050D02*
X0142413Y0197050D01*
X0142413Y0196552D02*
X0085160Y0196552D01*
X0085160Y0196053D02*
X0142413Y0196053D01*
X0142413Y0195555D02*
X0085160Y0195555D01*
X0085160Y0195056D02*
X0142413Y0195056D01*
X0142413Y0194558D02*
X0085160Y0194558D01*
X0085160Y0194059D02*
X0142413Y0194059D01*
X0142413Y0193561D02*
X0085160Y0193561D01*
X0085160Y0193062D02*
X0142413Y0193062D01*
X0142413Y0192564D02*
X0085160Y0192564D01*
X0085160Y0192065D02*
X0142413Y0192065D01*
X0142413Y0191567D02*
X0085160Y0191567D01*
X0085160Y0191068D02*
X0142413Y0191068D01*
X0142413Y0190570D02*
X0085160Y0190570D01*
X0085160Y0190071D02*
X0142413Y0190071D01*
X0142413Y0189573D02*
X0085160Y0189573D01*
X0085160Y0189074D02*
X0142413Y0189074D01*
X0142413Y0188576D02*
X0085160Y0188576D01*
X0085160Y0188077D02*
X0142413Y0188077D01*
X0142413Y0187579D02*
X0085160Y0187579D01*
X0085160Y0187080D02*
X0142413Y0187080D01*
X0142413Y0186582D02*
X0085160Y0186582D01*
X0085160Y0186083D02*
X0142413Y0186083D01*
X0142413Y0185585D02*
X0085160Y0185585D01*
X0085160Y0185086D02*
X0142413Y0185086D01*
X0142413Y0184588D02*
X0085160Y0184588D01*
X0085160Y0184089D02*
X0142413Y0184089D01*
X0142413Y0183591D02*
X0085160Y0183591D01*
X0085160Y0183092D02*
X0142413Y0183092D01*
X0142413Y0182594D02*
X0085160Y0182594D01*
X0085160Y0182095D02*
X0142413Y0182095D01*
X0142413Y0181597D02*
X0085160Y0181597D01*
X0085160Y0181098D02*
X0142413Y0181098D01*
X0142413Y0180600D02*
X0085160Y0180600D01*
X0085160Y0180101D02*
X0142413Y0180101D01*
X0142413Y0179603D02*
X0085160Y0179603D01*
X0085160Y0179104D02*
X0142413Y0179104D01*
X0142413Y0178606D02*
X0085160Y0178606D01*
X0085160Y0178107D02*
X0142413Y0178107D01*
X0142413Y0177609D02*
X0085160Y0177609D01*
X0085160Y0177110D02*
X0142413Y0177110D01*
X0142413Y0176612D02*
X0085160Y0176612D01*
X0085160Y0176113D02*
X0142413Y0176113D01*
X0142413Y0175614D02*
X0085160Y0175614D01*
X0085160Y0175116D02*
X0142413Y0175116D01*
X0142413Y0174617D02*
X0085160Y0174617D01*
X0085160Y0174119D02*
X0142413Y0174119D01*
X0142413Y0173620D02*
X0085160Y0173620D01*
X0085160Y0173122D02*
X0142413Y0173122D01*
X0142413Y0172623D02*
X0085160Y0172623D01*
X0085160Y0172125D02*
X0105971Y0172125D01*
X0106189Y0172343D02*
X0105691Y0171845D01*
X0105691Y0163741D01*
X0106189Y0163243D01*
X0114293Y0163243D01*
X0114791Y0163741D01*
X0114791Y0171845D01*
X0114293Y0172343D01*
X0106189Y0172343D01*
X0105691Y0171626D02*
X0085160Y0171626D01*
X0085160Y0171128D02*
X0105691Y0171128D01*
X0105691Y0170629D02*
X0085160Y0170629D01*
X0085160Y0170131D02*
X0105691Y0170131D01*
X0105691Y0169632D02*
X0085160Y0169632D01*
X0085160Y0169134D02*
X0105691Y0169134D01*
X0105691Y0168635D02*
X0085160Y0168635D01*
X0085160Y0168137D02*
X0105691Y0168137D01*
X0105691Y0167638D02*
X0085160Y0167638D01*
X0085160Y0167140D02*
X0105691Y0167140D01*
X0105691Y0166641D02*
X0085160Y0166641D01*
X0085160Y0166143D02*
X0105691Y0166143D01*
X0105691Y0165644D02*
X0085160Y0165644D01*
X0085160Y0165146D02*
X0105691Y0165146D01*
X0105691Y0164647D02*
X0085160Y0164647D01*
X0085160Y0164149D02*
X0105691Y0164149D01*
X0105782Y0163650D02*
X0085160Y0163650D01*
X0085160Y0163152D02*
X0142413Y0163152D01*
X0142413Y0163650D02*
X0114700Y0163650D01*
X0114791Y0164149D02*
X0142413Y0164149D01*
X0142413Y0164647D02*
X0114791Y0164647D01*
X0114791Y0165146D02*
X0142413Y0165146D01*
X0142413Y0165644D02*
X0114791Y0165644D01*
X0114791Y0166143D02*
X0142413Y0166143D01*
X0142413Y0166641D02*
X0114791Y0166641D01*
X0114791Y0167140D02*
X0142413Y0167140D01*
X0142413Y0167638D02*
X0114791Y0167638D01*
X0114791Y0168137D02*
X0142413Y0168137D01*
X0142413Y0168635D02*
X0114791Y0168635D01*
X0114791Y0169134D02*
X0142413Y0169134D01*
X0142413Y0169632D02*
X0114791Y0169632D01*
X0114791Y0170131D02*
X0142413Y0170131D01*
X0142413Y0170629D02*
X0114791Y0170629D01*
X0114791Y0171128D02*
X0142413Y0171128D01*
X0142413Y0171626D02*
X0114791Y0171626D01*
X0114512Y0172125D02*
X0142413Y0172125D01*
X0142413Y0162653D02*
X0111198Y0162653D01*
X0112584Y0162155D02*
X0142413Y0162155D01*
X0142413Y0161656D02*
X0113346Y0161656D01*
X0113877Y0161158D02*
X0142413Y0161158D01*
X0142413Y0160659D02*
X0114277Y0160659D01*
X0114590Y0160161D02*
X0142413Y0160161D01*
X0142413Y0159662D02*
X0114839Y0159662D01*
X0115001Y0159164D02*
X0142413Y0159164D01*
X0142413Y0158665D02*
X0115115Y0158665D01*
X0115191Y0158167D02*
X0142413Y0158167D01*
X0142413Y0157668D02*
X0110491Y0157668D01*
X0110491Y0157170D02*
X0109991Y0157170D01*
X0109991Y0156671D02*
X0110491Y0156671D01*
X0110491Y0156173D02*
X0109991Y0156173D01*
X0109991Y0155674D02*
X0110491Y0155674D01*
X0110491Y0155176D02*
X0109991Y0155176D01*
X0109991Y0154677D02*
X0110491Y0154677D01*
X0110491Y0154178D02*
X0109991Y0154178D01*
X0109991Y0153680D02*
X0110491Y0153680D01*
X0110491Y0153181D02*
X0109991Y0153181D01*
X0112067Y0153181D02*
X0142413Y0153181D01*
X0142413Y0153680D02*
X0113001Y0153680D01*
X0113627Y0154178D02*
X0142413Y0154178D01*
X0142413Y0154677D02*
X0114096Y0154677D01*
X0114458Y0155176D02*
X0142413Y0155176D01*
X0142413Y0155674D02*
X0114717Y0155674D01*
X0114919Y0156173D02*
X0142413Y0156173D01*
X0142413Y0156671D02*
X0115075Y0156671D01*
X0115154Y0157170D02*
X0142413Y0157170D01*
X0113516Y0077906D02*
X0061798Y0077906D01*
X0061798Y0078405D02*
X0072678Y0078405D01*
X0072965Y0078312D02*
X0073734Y0078190D01*
X0073874Y0078190D01*
X0073874Y0082890D01*
X0069174Y0082890D01*
X0069174Y0082750D01*
X0069296Y0081981D01*
X0069537Y0081240D01*
X0069890Y0080545D01*
X0070348Y0079915D01*
X0070899Y0079364D01*
X0071530Y0078906D01*
X0072224Y0078552D01*
X0072965Y0078312D01*
X0073874Y0078405D02*
X0074374Y0078405D01*
X0074374Y0078190D02*
X0074514Y0078190D01*
X0075283Y0078312D01*
X0076024Y0078552D01*
X0076718Y0078906D01*
X0077349Y0079364D01*
X0077900Y0079915D01*
X0078358Y0080545D01*
X0078711Y0081240D01*
X0078952Y0081981D01*
X0079074Y0082750D01*
X0079074Y0082890D01*
X0074374Y0082890D01*
X0074374Y0083390D01*
X0073874Y0083390D01*
X0073874Y0088090D01*
X0073734Y0088090D01*
X0072965Y0087968D01*
X0072224Y0087727D01*
X0071530Y0087373D01*
X0070899Y0086915D01*
X0070348Y0086364D01*
X0069890Y0085734D01*
X0069537Y0085040D01*
X0069296Y0084299D01*
X0069174Y0083529D01*
X0069174Y0083390D01*
X0061798Y0083390D01*
X0061798Y0083888D02*
X0069231Y0083888D01*
X0069174Y0083390D02*
X0073874Y0083390D01*
X0074374Y0083390D01*
X0074374Y0088090D01*
X0074514Y0088090D01*
X0075283Y0087968D01*
X0076024Y0087727D01*
X0076718Y0087373D01*
X0077349Y0086915D01*
X0077900Y0086364D01*
X0078358Y0085734D01*
X0078711Y0085040D01*
X0078952Y0084299D01*
X0079074Y0083529D01*
X0079074Y0083390D01*
X0079574Y0083390D01*
X0079574Y0083888D02*
X0079017Y0083888D01*
X0079074Y0083390D02*
X0074374Y0083390D01*
X0074374Y0083888D02*
X0073874Y0083888D01*
X0073874Y0083390D02*
X0073874Y0082890D01*
X0074374Y0082890D01*
X0074374Y0078190D01*
X0074374Y0078903D02*
X0073874Y0078903D01*
X0073874Y0079402D02*
X0074374Y0079402D01*
X0074374Y0079900D02*
X0073874Y0079900D01*
X0073874Y0080399D02*
X0074374Y0080399D01*
X0074374Y0080897D02*
X0073874Y0080897D01*
X0073874Y0081396D02*
X0074374Y0081396D01*
X0074374Y0081894D02*
X0073874Y0081894D01*
X0073874Y0082393D02*
X0074374Y0082393D01*
X0074374Y0082891D02*
X0079574Y0082891D01*
X0079574Y0082393D02*
X0079017Y0082393D01*
X0078924Y0081894D02*
X0079715Y0081894D01*
X0079921Y0081396D02*
X0078762Y0081396D01*
X0078537Y0080897D02*
X0080128Y0080897D01*
X0080430Y0080399D02*
X0078251Y0080399D01*
X0077885Y0079900D02*
X0080929Y0079900D01*
X0081427Y0079402D02*
X0077386Y0079402D01*
X0076713Y0078903D02*
X0082462Y0078903D01*
X0079716Y0084387D02*
X0078924Y0084387D01*
X0078762Y0084885D02*
X0079922Y0084885D01*
X0080129Y0085384D02*
X0078536Y0085384D01*
X0078250Y0085882D02*
X0080432Y0085882D01*
X0080931Y0086381D02*
X0077883Y0086381D01*
X0077385Y0086879D02*
X0081429Y0086879D01*
X0082466Y0087378D02*
X0076709Y0087378D01*
X0075564Y0087876D02*
X0082860Y0087876D01*
X0082860Y0088375D02*
X0061798Y0088375D01*
X0061798Y0088874D02*
X0082860Y0088874D01*
X0082860Y0089372D02*
X0061798Y0089372D01*
X0061798Y0089871D02*
X0082860Y0089871D01*
X0082860Y0090369D02*
X0061798Y0090369D01*
X0061798Y0090868D02*
X0082860Y0090868D01*
X0082860Y0091366D02*
X0061798Y0091366D01*
X0061798Y0091865D02*
X0082860Y0091865D01*
X0082860Y0092363D02*
X0061798Y0092363D01*
X0061798Y0092862D02*
X0082860Y0092862D01*
X0082860Y0093360D02*
X0061798Y0093360D01*
X0061798Y0093859D02*
X0082860Y0093859D01*
X0082860Y0094357D02*
X0061798Y0094357D01*
X0061798Y0094856D02*
X0082860Y0094856D01*
X0082860Y0095354D02*
X0061798Y0095354D01*
X0061798Y0095853D02*
X0082860Y0095853D01*
X0082860Y0096351D02*
X0061798Y0096351D01*
X0061798Y0096850D02*
X0082860Y0096850D01*
X0082860Y0097348D02*
X0061798Y0097348D01*
X0061798Y0097847D02*
X0082860Y0097847D01*
X0082860Y0098345D02*
X0061798Y0098345D01*
X0061798Y0098844D02*
X0082860Y0098844D01*
X0082860Y0099342D02*
X0061798Y0099342D01*
X0061798Y0099841D02*
X0082860Y0099841D01*
X0082860Y0100339D02*
X0061798Y0100339D01*
X0061798Y0100838D02*
X0082860Y0100838D01*
X0082860Y0101336D02*
X0061798Y0101336D01*
X0061798Y0101835D02*
X0082860Y0101835D01*
X0082860Y0102333D02*
X0061798Y0102333D01*
X0061798Y0102832D02*
X0082860Y0102832D01*
X0082860Y0103330D02*
X0061798Y0103330D01*
X0061798Y0103829D02*
X0082860Y0103829D01*
X0082860Y0104327D02*
X0061798Y0104327D01*
X0061798Y0104826D02*
X0082860Y0104826D01*
X0082860Y0105324D02*
X0061798Y0105324D01*
X0061798Y0105823D02*
X0082860Y0105823D01*
X0082860Y0106321D02*
X0061798Y0106321D01*
X0061798Y0106820D02*
X0082860Y0106820D01*
X0082860Y0107318D02*
X0061798Y0107318D01*
X0061798Y0107817D02*
X0082860Y0107817D01*
X0082860Y0108315D02*
X0061798Y0108315D01*
X0061798Y0108814D02*
X0082860Y0108814D01*
X0082860Y0109312D02*
X0061798Y0109312D01*
X0061798Y0109811D02*
X0082860Y0109811D01*
X0082860Y0110309D02*
X0061798Y0110309D01*
X0061798Y0110808D02*
X0082860Y0110808D01*
X0082860Y0111307D02*
X0061798Y0111307D01*
X0061798Y0111805D02*
X0082860Y0111805D01*
X0082860Y0112304D02*
X0061798Y0112304D01*
X0061798Y0112802D02*
X0082860Y0112802D01*
X0082860Y0113301D02*
X0061798Y0113301D01*
X0061798Y0113799D02*
X0082860Y0113799D01*
X0082860Y0114298D02*
X0061798Y0114298D01*
X0061798Y0114796D02*
X0082860Y0114796D01*
X0082860Y0115295D02*
X0061798Y0115295D01*
X0061798Y0115793D02*
X0082860Y0115793D01*
X0082860Y0116292D02*
X0061798Y0116292D01*
X0061798Y0116790D02*
X0082860Y0116790D01*
X0082860Y0117289D02*
X0061798Y0117289D01*
X0061798Y0117787D02*
X0082860Y0117787D01*
X0082860Y0118286D02*
X0061798Y0118286D01*
X0061798Y0118784D02*
X0082860Y0118784D01*
X0082860Y0119283D02*
X0061798Y0119283D01*
X0061798Y0119781D02*
X0082860Y0119781D01*
X0082860Y0120280D02*
X0061798Y0120280D01*
X0061798Y0120778D02*
X0082860Y0120778D01*
X0082860Y0121277D02*
X0061798Y0121277D01*
X0061798Y0121775D02*
X0082860Y0121775D01*
X0082860Y0122274D02*
X0061798Y0122274D01*
X0061798Y0122772D02*
X0082860Y0122772D01*
X0082860Y0123271D02*
X0061798Y0123271D01*
X0061798Y0123769D02*
X0082860Y0123769D01*
X0082860Y0124268D02*
X0061798Y0124268D01*
X0061798Y0124766D02*
X0082860Y0124766D01*
X0082860Y0125265D02*
X0061798Y0125265D01*
X0061798Y0125763D02*
X0082860Y0125763D01*
X0082860Y0126262D02*
X0061798Y0126262D01*
X0061798Y0126760D02*
X0082860Y0126760D01*
X0082860Y0127259D02*
X0061798Y0127259D01*
X0061798Y0127757D02*
X0082860Y0127757D01*
X0082860Y0128256D02*
X0061798Y0128256D01*
X0061798Y0128754D02*
X0082860Y0128754D01*
X0082860Y0129253D02*
X0061798Y0129253D01*
X0061798Y0129751D02*
X0082860Y0129751D01*
X0082860Y0130250D02*
X0061798Y0130250D01*
X0061798Y0130748D02*
X0082860Y0130748D01*
X0082860Y0131247D02*
X0061798Y0131247D01*
X0061798Y0131745D02*
X0082860Y0131745D01*
X0082860Y0132244D02*
X0061798Y0132244D01*
X0061798Y0132743D02*
X0082860Y0132743D01*
X0082860Y0133241D02*
X0061798Y0133241D01*
X0056098Y0133241D02*
X0025047Y0133241D01*
X0025047Y0132743D02*
X0056098Y0132743D01*
X0056098Y0132244D02*
X0025047Y0132244D01*
X0025047Y0131745D02*
X0056098Y0131745D01*
X0056098Y0131247D02*
X0025047Y0131247D01*
X0025047Y0130748D02*
X0056098Y0130748D01*
X0056098Y0130250D02*
X0025047Y0130250D01*
X0025047Y0129751D02*
X0056098Y0129751D01*
X0056098Y0129253D02*
X0025047Y0129253D01*
X0025047Y0128754D02*
X0056098Y0128754D01*
X0056098Y0128256D02*
X0025047Y0128256D01*
X0025047Y0127757D02*
X0056098Y0127757D01*
X0056098Y0127259D02*
X0025047Y0127259D01*
X0025047Y0126760D02*
X0056098Y0126760D01*
X0056098Y0126262D02*
X0025047Y0126262D01*
X0025047Y0125763D02*
X0056098Y0125763D01*
X0056098Y0125265D02*
X0025047Y0125265D01*
X0025047Y0124766D02*
X0056098Y0124766D01*
X0056098Y0124268D02*
X0025047Y0124268D01*
X0025047Y0123769D02*
X0056098Y0123769D01*
X0056098Y0123271D02*
X0025047Y0123271D01*
X0025047Y0122772D02*
X0056098Y0122772D01*
X0056098Y0122274D02*
X0025047Y0122274D01*
X0025047Y0121775D02*
X0056098Y0121775D01*
X0056098Y0121277D02*
X0025047Y0121277D01*
X0025047Y0120778D02*
X0056098Y0120778D01*
X0056098Y0120280D02*
X0025047Y0120280D01*
X0025047Y0119781D02*
X0056098Y0119781D01*
X0056098Y0119283D02*
X0025047Y0119283D01*
X0025047Y0118784D02*
X0056098Y0118784D01*
X0056098Y0118286D02*
X0025047Y0118286D01*
X0025047Y0117787D02*
X0056098Y0117787D01*
X0056098Y0117289D02*
X0025047Y0117289D01*
X0025047Y0116790D02*
X0056098Y0116790D01*
X0056098Y0116292D02*
X0025047Y0116292D01*
X0025047Y0115793D02*
X0056098Y0115793D01*
X0056098Y0115295D02*
X0025047Y0115295D01*
X0025047Y0114796D02*
X0056098Y0114796D01*
X0056098Y0114298D02*
X0025047Y0114298D01*
X0025047Y0113799D02*
X0056098Y0113799D01*
X0056098Y0113301D02*
X0025047Y0113301D01*
X0025047Y0112802D02*
X0056098Y0112802D01*
X0056098Y0112304D02*
X0025047Y0112304D01*
X0025047Y0111805D02*
X0056098Y0111805D01*
X0056098Y0111307D02*
X0025047Y0111307D01*
X0025047Y0110808D02*
X0056098Y0110808D01*
X0056098Y0110309D02*
X0025047Y0110309D01*
X0025047Y0109811D02*
X0056098Y0109811D01*
X0056098Y0109312D02*
X0025047Y0109312D01*
X0025047Y0108814D02*
X0056098Y0108814D01*
X0056098Y0108315D02*
X0025047Y0108315D01*
X0025047Y0107817D02*
X0056098Y0107817D01*
X0056098Y0107318D02*
X0025047Y0107318D01*
X0025047Y0106820D02*
X0056098Y0106820D01*
X0056098Y0106321D02*
X0025047Y0106321D01*
X0025047Y0105823D02*
X0056098Y0105823D01*
X0056098Y0105324D02*
X0025047Y0105324D01*
X0025047Y0104826D02*
X0056098Y0104826D01*
X0056098Y0104327D02*
X0025047Y0104327D01*
X0025047Y0103829D02*
X0056098Y0103829D01*
X0056098Y0103330D02*
X0025047Y0103330D01*
X0025047Y0102832D02*
X0056098Y0102832D01*
X0056098Y0102333D02*
X0025047Y0102333D01*
X0025047Y0101835D02*
X0056098Y0101835D01*
X0056098Y0101336D02*
X0025047Y0101336D01*
X0025047Y0100838D02*
X0056098Y0100838D01*
X0056098Y0100339D02*
X0025047Y0100339D01*
X0025047Y0099841D02*
X0056098Y0099841D01*
X0056098Y0099342D02*
X0025047Y0099342D01*
X0025047Y0098844D02*
X0056098Y0098844D01*
X0056098Y0098345D02*
X0025047Y0098345D01*
X0025047Y0097847D02*
X0056098Y0097847D01*
X0056098Y0097348D02*
X0025047Y0097348D01*
X0025047Y0096850D02*
X0056098Y0096850D01*
X0056098Y0096351D02*
X0025047Y0096351D01*
X0025047Y0095853D02*
X0056098Y0095853D01*
X0056098Y0095354D02*
X0025047Y0095354D01*
X0025047Y0094856D02*
X0056098Y0094856D01*
X0056098Y0094357D02*
X0025047Y0094357D01*
X0025047Y0093859D02*
X0056098Y0093859D01*
X0056098Y0093360D02*
X0025047Y0093360D01*
X0025047Y0092862D02*
X0056098Y0092862D01*
X0056098Y0092363D02*
X0025047Y0092363D01*
X0025047Y0091865D02*
X0056098Y0091865D01*
X0056098Y0091366D02*
X0025047Y0091366D01*
X0025047Y0090868D02*
X0056098Y0090868D01*
X0056098Y0090369D02*
X0025047Y0090369D01*
X0025047Y0089871D02*
X0056098Y0089871D01*
X0056098Y0089372D02*
X0025047Y0089372D01*
X0025047Y0088874D02*
X0056098Y0088874D01*
X0056098Y0088375D02*
X0025047Y0088375D01*
X0025047Y0087876D02*
X0056098Y0087876D01*
X0056098Y0087378D02*
X0025047Y0087378D01*
X0025047Y0086879D02*
X0056098Y0086879D01*
X0056098Y0086381D02*
X0025047Y0086381D01*
X0025047Y0085882D02*
X0056098Y0085882D01*
X0056098Y0085384D02*
X0025047Y0085384D01*
X0025047Y0084885D02*
X0056098Y0084885D01*
X0056098Y0084387D02*
X0025047Y0084387D01*
X0025047Y0083888D02*
X0056098Y0083888D01*
X0056098Y0083390D02*
X0025047Y0083390D01*
X0025047Y0082891D02*
X0056098Y0082891D01*
X0056098Y0082393D02*
X0025047Y0082393D01*
X0025047Y0081894D02*
X0056098Y0081894D01*
X0056098Y0081396D02*
X0025047Y0081396D01*
X0025047Y0080897D02*
X0056098Y0080897D01*
X0056098Y0080399D02*
X0025047Y0080399D01*
X0025047Y0079900D02*
X0056098Y0079900D01*
X0056098Y0079402D02*
X0025047Y0079402D01*
X0025047Y0078903D02*
X0056098Y0078903D01*
X0056098Y0078405D02*
X0025047Y0078405D01*
X0025047Y0077906D02*
X0056098Y0077906D01*
X0056098Y0077408D02*
X0025047Y0077408D01*
X0025047Y0076909D02*
X0056098Y0076909D01*
X0056098Y0076411D02*
X0025047Y0076411D01*
X0025047Y0075912D02*
X0056098Y0075912D01*
X0056098Y0075414D02*
X0025047Y0075414D01*
X0025047Y0074915D02*
X0056098Y0074915D01*
X0056098Y0074417D02*
X0025047Y0074417D01*
X0025047Y0073918D02*
X0056098Y0073918D01*
X0056098Y0073420D02*
X0025047Y0073420D01*
X0025047Y0072921D02*
X0056098Y0072921D01*
X0056098Y0072423D02*
X0025047Y0072423D01*
X0025047Y0071924D02*
X0056098Y0071924D01*
X0056098Y0071426D02*
X0025047Y0071426D01*
X0025047Y0070927D02*
X0056098Y0070927D01*
X0056098Y0070429D02*
X0025047Y0070429D01*
X0025047Y0069930D02*
X0056098Y0069930D01*
X0056098Y0069432D02*
X0025047Y0069432D01*
X0025047Y0068933D02*
X0056098Y0068933D01*
X0056098Y0068435D02*
X0025047Y0068435D01*
X0025047Y0067936D02*
X0056098Y0067936D01*
X0056098Y0067438D02*
X0025047Y0067438D01*
X0025047Y0066939D02*
X0056098Y0066939D01*
X0056098Y0066441D02*
X0025047Y0066441D01*
X0025047Y0065942D02*
X0056098Y0065942D01*
X0056098Y0065443D02*
X0025047Y0065443D01*
X0025047Y0064945D02*
X0056098Y0064945D01*
X0056098Y0064446D02*
X0025047Y0064446D01*
X0025047Y0063948D02*
X0056098Y0063948D01*
X0056098Y0063449D02*
X0025047Y0063449D01*
X0025047Y0062951D02*
X0056098Y0062951D01*
X0056098Y0062452D02*
X0025047Y0062452D01*
X0025047Y0061954D02*
X0056098Y0061954D01*
X0056098Y0061455D02*
X0025047Y0061455D01*
X0025047Y0060957D02*
X0056098Y0060957D01*
X0056098Y0060458D02*
X0025047Y0060458D01*
X0025047Y0059960D02*
X0056098Y0059960D01*
X0056098Y0059461D02*
X0025047Y0059461D01*
X0025047Y0058963D02*
X0056098Y0058963D01*
X0056098Y0058464D02*
X0025047Y0058464D01*
X0025047Y0057966D02*
X0056098Y0057966D01*
X0056098Y0057467D02*
X0025047Y0057467D01*
X0025047Y0056969D02*
X0056098Y0056969D01*
X0056098Y0056470D02*
X0025047Y0056470D01*
X0025047Y0055972D02*
X0056098Y0055972D01*
X0056177Y0055473D02*
X0025047Y0055473D01*
X0025047Y0054975D02*
X0056383Y0054975D01*
X0056672Y0054476D02*
X0025047Y0054476D01*
X0025047Y0053978D02*
X0057170Y0053978D01*
X0057669Y0053479D02*
X0025047Y0053479D01*
X0025047Y0052981D02*
X0058167Y0052981D01*
X0058666Y0052482D02*
X0025047Y0052482D01*
X0025047Y0051984D02*
X0059164Y0051984D01*
X0059663Y0051485D02*
X0025047Y0051485D01*
X0025047Y0050987D02*
X0060610Y0050987D01*
X0061798Y0078903D02*
X0071535Y0078903D01*
X0070862Y0079402D02*
X0061798Y0079402D01*
X0061798Y0079900D02*
X0070363Y0079900D01*
X0069997Y0080399D02*
X0061798Y0080399D01*
X0061798Y0080897D02*
X0069711Y0080897D01*
X0069486Y0081396D02*
X0061798Y0081396D01*
X0061798Y0081894D02*
X0069324Y0081894D01*
X0069231Y0082393D02*
X0061798Y0082393D01*
X0061798Y0082891D02*
X0073874Y0082891D01*
X0073874Y0084387D02*
X0074374Y0084387D01*
X0074374Y0084885D02*
X0073874Y0084885D01*
X0073874Y0085384D02*
X0074374Y0085384D01*
X0074374Y0085882D02*
X0073874Y0085882D01*
X0073874Y0086381D02*
X0074374Y0086381D01*
X0074374Y0086879D02*
X0073874Y0086879D01*
X0073874Y0087378D02*
X0074374Y0087378D01*
X0074374Y0087876D02*
X0073874Y0087876D01*
X0072684Y0087876D02*
X0061798Y0087876D01*
X0061798Y0087378D02*
X0071539Y0087378D01*
X0070863Y0086879D02*
X0061798Y0086879D01*
X0061798Y0086381D02*
X0070365Y0086381D01*
X0069998Y0085882D02*
X0061798Y0085882D01*
X0061798Y0085384D02*
X0069712Y0085384D01*
X0069486Y0084885D02*
X0061798Y0084885D01*
X0061798Y0084387D02*
X0069325Y0084387D01*
X0075570Y0078405D02*
X0112313Y0078405D01*
X0111109Y0078903D02*
X0095786Y0078903D01*
X0095029Y0078590D02*
X0096701Y0079282D01*
X0097981Y0080562D01*
X0098674Y0082235D01*
X0098674Y0084045D01*
X0097981Y0085717D01*
X0096701Y0086997D01*
X0095029Y0087690D01*
X0093219Y0087690D01*
X0091547Y0086997D01*
X0090267Y0085717D01*
X0089574Y0084045D01*
X0089574Y0082235D01*
X0090267Y0080562D01*
X0091547Y0079282D01*
X0093219Y0078590D01*
X0095029Y0078590D01*
X0096821Y0079402D02*
X0110416Y0079402D01*
X0109918Y0079900D02*
X0097319Y0079900D01*
X0097818Y0080399D02*
X0109419Y0080399D01*
X0108921Y0080897D02*
X0098120Y0080897D01*
X0098327Y0081396D02*
X0108422Y0081396D01*
X0108186Y0081894D02*
X0098533Y0081894D01*
X0098674Y0082393D02*
X0107980Y0082393D01*
X0107773Y0082891D02*
X0098674Y0082891D01*
X0098674Y0083390D02*
X0107567Y0083390D01*
X0107360Y0083888D02*
X0098674Y0083888D01*
X0098532Y0084387D02*
X0107154Y0084387D01*
X0107070Y0084885D02*
X0098326Y0084885D01*
X0098119Y0085384D02*
X0107070Y0085384D01*
X0107070Y0085882D02*
X0097816Y0085882D01*
X0097317Y0086381D02*
X0107070Y0086381D01*
X0107070Y0086879D02*
X0096819Y0086879D01*
X0095782Y0087378D02*
X0107070Y0087378D01*
X0107070Y0087876D02*
X0085160Y0087876D01*
X0085160Y0088375D02*
X0107230Y0088375D01*
X0107436Y0088874D02*
X0085160Y0088874D01*
X0085160Y0089372D02*
X0107643Y0089372D01*
X0107849Y0089871D02*
X0085160Y0089871D01*
X0085160Y0090369D02*
X0108055Y0090369D01*
X0108262Y0090868D02*
X0085160Y0090868D01*
X0085160Y0091366D02*
X0108605Y0091366D01*
X0109104Y0091865D02*
X0085160Y0091865D01*
X0085160Y0092363D02*
X0109602Y0092363D01*
X0110101Y0092862D02*
X0085160Y0092862D01*
X0085160Y0093360D02*
X0110599Y0093360D01*
X0111552Y0093859D02*
X0085160Y0093859D01*
X0085160Y0094357D02*
X0112755Y0094357D01*
X0092466Y0087378D02*
X0085782Y0087378D01*
X0086819Y0086879D02*
X0091429Y0086879D01*
X0090931Y0086381D02*
X0087317Y0086381D01*
X0087816Y0085882D02*
X0090432Y0085882D01*
X0090129Y0085384D02*
X0088119Y0085384D01*
X0088326Y0084885D02*
X0089922Y0084885D01*
X0089716Y0084387D02*
X0088532Y0084387D01*
X0088674Y0083888D02*
X0089574Y0083888D01*
X0089574Y0083390D02*
X0088674Y0083390D01*
X0088674Y0082891D02*
X0089574Y0082891D01*
X0089574Y0082393D02*
X0088674Y0082393D01*
X0088533Y0081894D02*
X0089715Y0081894D01*
X0089921Y0081396D02*
X0088327Y0081396D01*
X0088120Y0080897D02*
X0090128Y0080897D01*
X0090430Y0080399D02*
X0087818Y0080399D01*
X0087319Y0079900D02*
X0090929Y0079900D01*
X0091427Y0079402D02*
X0086821Y0079402D01*
X0085786Y0078903D02*
X0092462Y0078903D01*
X0056098Y0133740D02*
X0025047Y0133740D01*
X0025047Y0134238D02*
X0056098Y0134238D01*
X0056098Y0134737D02*
X0025047Y0134737D01*
X0025047Y0135235D02*
X0056098Y0135235D01*
X0056098Y0135734D02*
X0025047Y0135734D01*
X0025047Y0136232D02*
X0056098Y0136232D01*
X0056098Y0136731D02*
X0025047Y0136731D01*
X0025047Y0137229D02*
X0056098Y0137229D01*
X0056098Y0137728D02*
X0025047Y0137728D01*
X0025047Y0138226D02*
X0056098Y0138226D01*
X0056098Y0138725D02*
X0025047Y0138725D01*
X0025047Y0139223D02*
X0056098Y0139223D01*
X0056098Y0139722D02*
X0025047Y0139722D01*
X0025047Y0140220D02*
X0056098Y0140220D01*
X0056098Y0140719D02*
X0025047Y0140719D01*
X0025047Y0141217D02*
X0056098Y0141217D01*
X0056098Y0141716D02*
X0025047Y0141716D01*
X0025047Y0142214D02*
X0056098Y0142214D01*
X0056098Y0142713D02*
X0025047Y0142713D01*
X0025047Y0143211D02*
X0056098Y0143211D01*
X0056098Y0143710D02*
X0025047Y0143710D01*
X0025047Y0144208D02*
X0056098Y0144208D01*
X0056098Y0144707D02*
X0025047Y0144707D01*
X0025047Y0145205D02*
X0056098Y0145205D01*
X0056098Y0145704D02*
X0025047Y0145704D01*
X0025047Y0146202D02*
X0056098Y0146202D01*
X0056098Y0146701D02*
X0025047Y0146701D01*
X0025047Y0147199D02*
X0056098Y0147199D01*
X0056098Y0147698D02*
X0025047Y0147698D01*
X0025047Y0148196D02*
X0056098Y0148196D01*
X0056098Y0148695D02*
X0025047Y0148695D01*
X0025047Y0149193D02*
X0056098Y0149193D01*
X0056098Y0149692D02*
X0025047Y0149692D01*
X0025047Y0150190D02*
X0056098Y0150190D01*
X0056098Y0150689D02*
X0025047Y0150689D01*
X0025047Y0151187D02*
X0056098Y0151187D01*
X0056098Y0151686D02*
X0025047Y0151686D01*
X0025047Y0152184D02*
X0056098Y0152184D01*
X0056098Y0152683D02*
X0025047Y0152683D01*
X0025047Y0153181D02*
X0056098Y0153181D01*
X0056098Y0153680D02*
X0025047Y0153680D01*
X0025047Y0154178D02*
X0056098Y0154178D01*
X0056098Y0154677D02*
X0025047Y0154677D01*
X0025047Y0155176D02*
X0056098Y0155176D01*
X0056098Y0155674D02*
X0025047Y0155674D01*
X0025047Y0156173D02*
X0056098Y0156173D01*
X0056098Y0156671D02*
X0025047Y0156671D01*
X0025047Y0157170D02*
X0056098Y0157170D01*
X0056098Y0157668D02*
X0025047Y0157668D01*
X0025047Y0158167D02*
X0056098Y0158167D01*
X0056098Y0158665D02*
X0025047Y0158665D01*
X0025047Y0159164D02*
X0056098Y0159164D01*
X0056098Y0159662D02*
X0025047Y0159662D01*
X0025047Y0160161D02*
X0056098Y0160161D01*
X0056098Y0160659D02*
X0025047Y0160659D01*
X0025047Y0161158D02*
X0056098Y0161158D01*
X0056098Y0161656D02*
X0025047Y0161656D01*
X0025047Y0162155D02*
X0056098Y0162155D01*
X0056098Y0162653D02*
X0025047Y0162653D01*
X0025047Y0163152D02*
X0056098Y0163152D01*
X0056098Y0163650D02*
X0025047Y0163650D01*
X0025047Y0164149D02*
X0056098Y0164149D01*
X0056098Y0164647D02*
X0025047Y0164647D01*
X0025047Y0165146D02*
X0056098Y0165146D01*
X0056098Y0165644D02*
X0025047Y0165644D01*
X0025047Y0166143D02*
X0056098Y0166143D01*
X0056098Y0166641D02*
X0025047Y0166641D01*
X0025047Y0167140D02*
X0056098Y0167140D01*
X0056098Y0167638D02*
X0025047Y0167638D01*
X0025047Y0168137D02*
X0056098Y0168137D01*
X0056098Y0168635D02*
X0025047Y0168635D01*
X0025047Y0169134D02*
X0056098Y0169134D01*
X0056098Y0169632D02*
X0025047Y0169632D01*
X0025047Y0170131D02*
X0056098Y0170131D01*
X0056098Y0170629D02*
X0025047Y0170629D01*
X0025047Y0171128D02*
X0056098Y0171128D01*
X0056098Y0171626D02*
X0025047Y0171626D01*
X0025047Y0172125D02*
X0056098Y0172125D01*
X0056098Y0172623D02*
X0025047Y0172623D01*
X0025047Y0173122D02*
X0056098Y0173122D01*
X0056098Y0173620D02*
X0025047Y0173620D01*
X0025047Y0174119D02*
X0056098Y0174119D01*
X0056098Y0174617D02*
X0025047Y0174617D01*
X0025047Y0175116D02*
X0056098Y0175116D01*
X0056098Y0175614D02*
X0025047Y0175614D01*
X0025047Y0176113D02*
X0056098Y0176113D01*
X0056098Y0176612D02*
X0025047Y0176612D01*
X0025047Y0177110D02*
X0056098Y0177110D01*
X0056098Y0177609D02*
X0025047Y0177609D01*
X0025047Y0178107D02*
X0056098Y0178107D01*
X0056098Y0178606D02*
X0025047Y0178606D01*
X0025047Y0179104D02*
X0056098Y0179104D01*
X0056098Y0179603D02*
X0025047Y0179603D01*
X0025047Y0180101D02*
X0056098Y0180101D01*
X0056098Y0180600D02*
X0025047Y0180600D01*
X0025047Y0181098D02*
X0056098Y0181098D01*
X0056098Y0181597D02*
X0025047Y0181597D01*
X0025047Y0182095D02*
X0056098Y0182095D01*
X0056098Y0182594D02*
X0025047Y0182594D01*
X0025047Y0183092D02*
X0056098Y0183092D01*
X0056098Y0183591D02*
X0025047Y0183591D01*
X0025047Y0184089D02*
X0056098Y0184089D01*
X0056098Y0184588D02*
X0025047Y0184588D01*
X0025047Y0185086D02*
X0056098Y0185086D01*
X0056098Y0185585D02*
X0025047Y0185585D01*
X0025047Y0186083D02*
X0056098Y0186083D01*
X0056098Y0186582D02*
X0025047Y0186582D01*
X0025047Y0187080D02*
X0056098Y0187080D01*
X0056098Y0187579D02*
X0025047Y0187579D01*
X0025047Y0188077D02*
X0056098Y0188077D01*
X0056098Y0188576D02*
X0025047Y0188576D01*
X0025047Y0189074D02*
X0056098Y0189074D01*
X0056098Y0189573D02*
X0025047Y0189573D01*
X0025047Y0190071D02*
X0056098Y0190071D01*
X0056098Y0190570D02*
X0025047Y0190570D01*
X0025047Y0191068D02*
X0056098Y0191068D01*
X0056098Y0191567D02*
X0025047Y0191567D01*
X0025047Y0192065D02*
X0056098Y0192065D01*
X0056098Y0192564D02*
X0025047Y0192564D01*
X0025047Y0193062D02*
X0056098Y0193062D01*
X0056098Y0193561D02*
X0025047Y0193561D01*
X0025047Y0194059D02*
X0056098Y0194059D01*
X0056098Y0194558D02*
X0025047Y0194558D01*
X0025047Y0195056D02*
X0056098Y0195056D01*
X0056098Y0195555D02*
X0025047Y0195555D01*
X0025047Y0196053D02*
X0056098Y0196053D01*
X0056098Y0196552D02*
X0025047Y0196552D01*
X0025047Y0197050D02*
X0056098Y0197050D01*
X0056098Y0197549D02*
X0025047Y0197549D01*
X0025047Y0198047D02*
X0056098Y0198047D01*
X0056098Y0198546D02*
X0025047Y0198546D01*
X0025047Y0199045D02*
X0056098Y0199045D01*
X0056098Y0199543D02*
X0025047Y0199543D01*
X0025047Y0200042D02*
X0056098Y0200042D01*
X0056098Y0200540D02*
X0025047Y0200540D01*
X0025047Y0201039D02*
X0056098Y0201039D01*
X0056098Y0201537D02*
X0025047Y0201537D01*
X0025047Y0202036D02*
X0056098Y0202036D01*
X0056098Y0202534D02*
X0025047Y0202534D01*
X0025047Y0203033D02*
X0056098Y0203033D01*
X0056098Y0203531D02*
X0025047Y0203531D01*
X0025047Y0204030D02*
X0056098Y0204030D01*
X0056098Y0204528D02*
X0025047Y0204528D01*
X0025047Y0205027D02*
X0056098Y0205027D01*
X0056098Y0205525D02*
X0025047Y0205525D01*
X0025047Y0206024D02*
X0056098Y0206024D01*
X0056098Y0206522D02*
X0025047Y0206522D01*
X0025047Y0207021D02*
X0056098Y0207021D01*
X0056098Y0207519D02*
X0025047Y0207519D01*
X0025047Y0208018D02*
X0056098Y0208018D01*
X0056098Y0208516D02*
X0025047Y0208516D01*
X0025047Y0209015D02*
X0056098Y0209015D01*
X0056098Y0209513D02*
X0025047Y0209513D01*
X0025047Y0210012D02*
X0056098Y0210012D01*
X0056098Y0210510D02*
X0025047Y0210510D01*
X0025047Y0211009D02*
X0056098Y0211009D01*
X0056098Y0211507D02*
X0025047Y0211507D01*
X0025047Y0212006D02*
X0056098Y0212006D01*
X0056098Y0212504D02*
X0025047Y0212504D01*
X0025047Y0213003D02*
X0056098Y0213003D01*
X0056098Y0213501D02*
X0025047Y0213501D01*
X0025047Y0214000D02*
X0056098Y0214000D01*
X0056098Y0214498D02*
X0025047Y0214498D01*
X0025047Y0214997D02*
X0056098Y0214997D01*
X0056098Y0215495D02*
X0025047Y0215495D01*
X0025047Y0215994D02*
X0056098Y0215994D01*
X0056098Y0216492D02*
X0025047Y0216492D01*
X0025047Y0216991D02*
X0056098Y0216991D01*
X0056098Y0217489D02*
X0025047Y0217489D01*
X0025047Y0217988D02*
X0056098Y0217988D01*
X0056098Y0218486D02*
X0025047Y0218486D01*
X0025047Y0218985D02*
X0056098Y0218985D01*
X0056098Y0219483D02*
X0025047Y0219483D01*
X0025047Y0219982D02*
X0056098Y0219982D01*
X0056098Y0220480D02*
X0025047Y0220480D01*
X0025047Y0220979D02*
X0056098Y0220979D01*
X0056098Y0221478D02*
X0025047Y0221478D01*
X0025047Y0221976D02*
X0056098Y0221976D01*
X0056098Y0222475D02*
X0025047Y0222475D01*
X0025047Y0222973D02*
X0056098Y0222973D01*
X0056098Y0223472D02*
X0025047Y0223472D01*
X0025047Y0223970D02*
X0056098Y0223970D01*
X0056098Y0224469D02*
X0025047Y0224469D01*
X0025047Y0224967D02*
X0056098Y0224967D01*
X0056098Y0225466D02*
X0025047Y0225466D01*
X0025047Y0225964D02*
X0056098Y0225964D01*
X0056098Y0226463D02*
X0025047Y0226463D01*
X0025047Y0226961D02*
X0056098Y0226961D01*
X0056098Y0227460D02*
X0025047Y0227460D01*
X0025047Y0227958D02*
X0056098Y0227958D01*
X0056098Y0228457D02*
X0025047Y0228457D01*
X0025047Y0228955D02*
X0056098Y0228955D01*
X0056098Y0229454D02*
X0025047Y0229454D01*
X0025047Y0229952D02*
X0056098Y0229952D01*
X0056098Y0230451D02*
X0025047Y0230451D01*
X0025047Y0230949D02*
X0056098Y0230949D01*
X0056098Y0231448D02*
X0025047Y0231448D01*
X0025047Y0231946D02*
X0056098Y0231946D01*
X0056098Y0232445D02*
X0025047Y0232445D01*
X0025047Y0232943D02*
X0056098Y0232943D01*
X0056098Y0233442D02*
X0025047Y0233442D01*
X0025047Y0233940D02*
X0056098Y0233940D01*
X0056098Y0234439D02*
X0025047Y0234439D01*
X0025047Y0234937D02*
X0056098Y0234937D01*
X0056098Y0235436D02*
X0025047Y0235436D01*
X0025047Y0235934D02*
X0056098Y0235934D01*
X0056098Y0236433D02*
X0025047Y0236433D01*
X0025047Y0236931D02*
X0056098Y0236931D01*
X0056098Y0237430D02*
X0025047Y0237430D01*
X0025047Y0237928D02*
X0056098Y0237928D01*
X0056098Y0238427D02*
X0025047Y0238427D01*
X0025047Y0238925D02*
X0056098Y0238925D01*
X0056098Y0239424D02*
X0025047Y0239424D01*
X0025047Y0239922D02*
X0056098Y0239922D01*
X0056098Y0240421D02*
X0025047Y0240421D01*
X0025047Y0240919D02*
X0056098Y0240919D01*
X0056098Y0241418D02*
X0025047Y0241418D01*
X0025047Y0241916D02*
X0056098Y0241916D01*
X0056098Y0242415D02*
X0025047Y0242415D01*
X0025047Y0242914D02*
X0056098Y0242914D01*
X0056098Y0243412D02*
X0025047Y0243412D01*
X0025047Y0243911D02*
X0056098Y0243911D01*
X0056098Y0244409D02*
X0025047Y0244409D01*
X0025047Y0244908D02*
X0056098Y0244908D01*
X0056098Y0245406D02*
X0025047Y0245406D01*
X0025047Y0245905D02*
X0056098Y0245905D01*
X0056098Y0246403D02*
X0025047Y0246403D01*
X0025047Y0246902D02*
X0056098Y0246902D01*
X0056098Y0247400D02*
X0025047Y0247400D01*
X0025047Y0247899D02*
X0056098Y0247899D01*
X0056098Y0248397D02*
X0025047Y0248397D01*
X0025047Y0248896D02*
X0056098Y0248896D01*
X0056098Y0249394D02*
X0025047Y0249394D01*
X0025047Y0249893D02*
X0056098Y0249893D01*
X0056098Y0250391D02*
X0025047Y0250391D01*
X0025047Y0250890D02*
X0056098Y0250890D01*
X0056098Y0251388D02*
X0025047Y0251388D01*
X0025047Y0251887D02*
X0056098Y0251887D01*
X0056098Y0252385D02*
X0025047Y0252385D01*
X0025047Y0252884D02*
X0056098Y0252884D01*
X0056098Y0253382D02*
X0025047Y0253382D01*
X0025047Y0253881D02*
X0056098Y0253881D01*
X0056098Y0254379D02*
X0025047Y0254379D01*
X0025047Y0254878D02*
X0056098Y0254878D01*
X0056098Y0255376D02*
X0025047Y0255376D01*
X0025047Y0255875D02*
X0056098Y0255875D01*
X0056098Y0256373D02*
X0025047Y0256373D01*
X0025047Y0256872D02*
X0056098Y0256872D01*
X0056098Y0257370D02*
X0025047Y0257370D01*
X0025047Y0257869D02*
X0056098Y0257869D01*
X0056098Y0258367D02*
X0025047Y0258367D01*
X0025047Y0258866D02*
X0056098Y0258866D01*
X0056098Y0259364D02*
X0025047Y0259364D01*
X0025047Y0259863D02*
X0056098Y0259863D01*
X0056098Y0260361D02*
X0025047Y0260361D01*
X0025047Y0260860D02*
X0056098Y0260860D01*
X0056098Y0261358D02*
X0025047Y0261358D01*
X0025047Y0261857D02*
X0056098Y0261857D01*
X0056098Y0262355D02*
X0025047Y0262355D01*
X0025047Y0262854D02*
X0056098Y0262854D01*
X0056098Y0263352D02*
X0025047Y0263352D01*
X0025047Y0263851D02*
X0056098Y0263851D01*
X0056098Y0264349D02*
X0025047Y0264349D01*
X0025047Y0264848D02*
X0056098Y0264848D01*
X0056098Y0265347D02*
X0025047Y0265347D01*
X0025047Y0265845D02*
X0056098Y0265845D01*
X0056098Y0266344D02*
X0025047Y0266344D01*
X0025047Y0266842D02*
X0056098Y0266842D01*
X0056098Y0267341D02*
X0025047Y0267341D01*
X0025047Y0267839D02*
X0056098Y0267839D01*
X0056098Y0268338D02*
X0025047Y0268338D01*
X0025047Y0268836D02*
X0056098Y0268836D01*
X0056098Y0269335D02*
X0025047Y0269335D01*
X0025047Y0269833D02*
X0056098Y0269833D01*
X0056098Y0270332D02*
X0025047Y0270332D01*
X0025047Y0270830D02*
X0056098Y0270830D01*
X0056098Y0271329D02*
X0025047Y0271329D01*
X0025047Y0271827D02*
X0056098Y0271827D01*
X0056098Y0272326D02*
X0025047Y0272326D01*
X0025047Y0272824D02*
X0056098Y0272824D01*
X0056098Y0273323D02*
X0025047Y0273323D01*
X0025047Y0273821D02*
X0056098Y0273821D01*
X0056098Y0274320D02*
X0025047Y0274320D01*
X0025047Y0274818D02*
X0056098Y0274818D01*
X0056098Y0275317D02*
X0025047Y0275317D01*
X0025047Y0275815D02*
X0056098Y0275815D01*
X0056098Y0276314D02*
X0025047Y0276314D01*
X0025047Y0276812D02*
X0056098Y0276812D01*
X0056098Y0277311D02*
X0025047Y0277311D01*
X0025047Y0277809D02*
X0056098Y0277809D01*
X0056098Y0278308D02*
X0025047Y0278308D01*
X0025047Y0278806D02*
X0056098Y0278806D01*
X0056098Y0279305D02*
X0025047Y0279305D01*
X0025047Y0279803D02*
X0056098Y0279803D01*
X0056098Y0280302D02*
X0025047Y0280302D01*
X0025047Y0280800D02*
X0056098Y0280800D01*
X0056098Y0281299D02*
X0025047Y0281299D01*
X0025047Y0281797D02*
X0056098Y0281797D01*
X0056098Y0282296D02*
X0025047Y0282296D01*
X0025047Y0282794D02*
X0056098Y0282794D01*
X0056098Y0283293D02*
X0025047Y0283293D01*
X0025047Y0283791D02*
X0056098Y0283791D01*
X0056098Y0284290D02*
X0025047Y0284290D01*
X0025047Y0284788D02*
X0056098Y0284788D01*
X0056098Y0285287D02*
X0025047Y0285287D01*
X0025047Y0285785D02*
X0056098Y0285785D01*
X0056098Y0286284D02*
X0025047Y0286284D01*
X0025047Y0286783D02*
X0056098Y0286783D01*
X0056098Y0287281D02*
X0025047Y0287281D01*
X0025047Y0287780D02*
X0056098Y0287780D01*
X0056098Y0288278D02*
X0025047Y0288278D01*
X0025047Y0288777D02*
X0056098Y0288777D01*
X0056098Y0289275D02*
X0025047Y0289275D01*
X0025047Y0289774D02*
X0056098Y0289774D01*
X0056098Y0290272D02*
X0025047Y0290272D01*
X0025047Y0290771D02*
X0056098Y0290771D01*
X0056098Y0291269D02*
X0025047Y0291269D01*
X0025047Y0291768D02*
X0056098Y0291768D01*
X0056098Y0292266D02*
X0025047Y0292266D01*
X0025047Y0292765D02*
X0056098Y0292765D01*
X0056098Y0293263D02*
X0025047Y0293263D01*
X0025047Y0293762D02*
X0056098Y0293762D01*
X0056098Y0294260D02*
X0025047Y0294260D01*
X0025047Y0294759D02*
X0056098Y0294759D01*
X0056098Y0295257D02*
X0054799Y0295257D01*
X0056003Y0295756D02*
X0056098Y0295756D01*
X0050456Y0295257D02*
X0025047Y0295257D01*
X0025047Y0295756D02*
X0049253Y0295756D01*
X0048049Y0296254D02*
X0025047Y0296254D01*
X0025047Y0296753D02*
X0047396Y0296753D01*
X0046897Y0297251D02*
X0025047Y0297251D01*
X0025047Y0297750D02*
X0046399Y0297750D01*
X0045900Y0298248D02*
X0025047Y0298248D01*
X0025047Y0298747D02*
X0045402Y0298747D01*
X0045182Y0299245D02*
X0025047Y0299245D01*
X0025047Y0299744D02*
X0044976Y0299744D01*
X0044769Y0300242D02*
X0025047Y0300242D01*
X0025047Y0300741D02*
X0044563Y0300741D01*
X0044356Y0301239D02*
X0025047Y0301239D01*
X0025047Y0301738D02*
X0044150Y0301738D01*
X0044078Y0302236D02*
X0025047Y0302236D01*
X0025047Y0302735D02*
X0044078Y0302735D01*
X0044078Y0303233D02*
X0025047Y0303233D01*
X0025047Y0303732D02*
X0044078Y0303732D01*
X0044078Y0304230D02*
X0025047Y0304230D01*
X0025047Y0304729D02*
X0044078Y0304729D01*
X0044078Y0305227D02*
X0025047Y0305227D01*
X0025047Y0305726D02*
X0044249Y0305726D01*
X0044456Y0306224D02*
X0025047Y0306224D01*
X0025047Y0306723D02*
X0044662Y0306723D01*
X0044869Y0307221D02*
X0025047Y0307221D01*
X0025047Y0307720D02*
X0045075Y0307720D01*
X0045281Y0308218D02*
X0025047Y0308218D01*
X0025047Y0308717D02*
X0045641Y0308717D01*
X0046140Y0309216D02*
X0025047Y0309216D01*
X0025047Y0309714D02*
X0046638Y0309714D01*
X0047137Y0310213D02*
X0025047Y0310213D01*
X0025047Y0310711D02*
X0047635Y0310711D01*
X0048627Y0311210D02*
X0025047Y0311210D01*
X0025047Y0311708D02*
X0049831Y0311708D01*
X0055425Y0311708D02*
X0056098Y0311708D01*
X0056098Y0312207D02*
X0025047Y0312207D01*
X0025047Y0312705D02*
X0056098Y0312705D01*
X0056098Y0313204D02*
X0025047Y0313204D01*
X0025047Y0313702D02*
X0056098Y0313702D01*
X0056098Y0314201D02*
X0025047Y0314201D01*
X0025047Y0314699D02*
X0056098Y0314699D01*
X0056098Y0315198D02*
X0025047Y0315198D01*
X0025047Y0315696D02*
X0056098Y0315696D01*
X0056098Y0316195D02*
X0025047Y0316195D01*
X0025047Y0316693D02*
X0056098Y0316693D01*
X0056098Y0317192D02*
X0025047Y0317192D01*
X0025047Y0317690D02*
X0056098Y0317690D01*
X0056098Y0318189D02*
X0025047Y0318189D01*
X0025047Y0318687D02*
X0056098Y0318687D01*
X0056098Y0319186D02*
X0025047Y0319186D01*
X0025047Y0319684D02*
X0056098Y0319684D01*
X0056098Y0320183D02*
X0025047Y0320183D01*
X0025047Y0320681D02*
X0056098Y0320681D01*
X0056098Y0321180D02*
X0025047Y0321180D01*
X0025047Y0321678D02*
X0056098Y0321678D01*
X0056098Y0322177D02*
X0025047Y0322177D01*
X0025047Y0322675D02*
X0056098Y0322675D01*
X0056098Y0323174D02*
X0025047Y0323174D01*
X0025047Y0323672D02*
X0056098Y0323672D01*
X0056098Y0324171D02*
X0025047Y0324171D01*
X0025047Y0324669D02*
X0056098Y0324669D01*
X0056098Y0325168D02*
X0025047Y0325168D01*
X0025047Y0325666D02*
X0056098Y0325666D01*
X0056098Y0326165D02*
X0025047Y0326165D01*
X0025047Y0326663D02*
X0056098Y0326663D01*
X0056098Y0327162D02*
X0025047Y0327162D01*
X0025047Y0327660D02*
X0056098Y0327660D01*
X0056098Y0328159D02*
X0025047Y0328159D01*
X0025047Y0328657D02*
X0056098Y0328657D01*
X0056098Y0329156D02*
X0025047Y0329156D01*
X0025047Y0329654D02*
X0056098Y0329654D01*
X0056098Y0330153D02*
X0025047Y0330153D01*
X0025047Y0330652D02*
X0056098Y0330652D01*
X0056098Y0331150D02*
X0025047Y0331150D01*
X0025047Y0331649D02*
X0056098Y0331649D01*
X0056098Y0332147D02*
X0025047Y0332147D01*
X0025047Y0332646D02*
X0056098Y0332646D01*
X0056098Y0333144D02*
X0025047Y0333144D01*
X0025047Y0333643D02*
X0056098Y0333643D01*
X0056098Y0334141D02*
X0025047Y0334141D01*
X0025047Y0334640D02*
X0056098Y0334640D01*
X0056098Y0335138D02*
X0025047Y0335138D01*
X0025047Y0335637D02*
X0056098Y0335637D01*
X0056098Y0336135D02*
X0025047Y0336135D01*
X0025047Y0336634D02*
X0056098Y0336634D01*
X0056098Y0337132D02*
X0025047Y0337132D01*
X0025047Y0337631D02*
X0056098Y0337631D01*
X0056098Y0338129D02*
X0025047Y0338129D01*
X0025047Y0338628D02*
X0056098Y0338628D01*
X0056098Y0339126D02*
X0025047Y0339126D01*
X0025047Y0339625D02*
X0056098Y0339625D01*
X0056098Y0340123D02*
X0025047Y0340123D01*
X0025047Y0340622D02*
X0056098Y0340622D01*
X0056098Y0341120D02*
X0025047Y0341120D01*
X0025047Y0341619D02*
X0056098Y0341619D01*
X0056098Y0342117D02*
X0025047Y0342117D01*
X0025047Y0342616D02*
X0056098Y0342616D01*
X0056098Y0343114D02*
X0025047Y0343114D01*
X0025047Y0343613D02*
X0056098Y0343613D01*
X0056098Y0344111D02*
X0025047Y0344111D01*
X0025047Y0344610D02*
X0056098Y0344610D01*
X0056098Y0345108D02*
X0025047Y0345108D01*
X0025047Y0345607D02*
X0056098Y0345607D01*
X0056098Y0346105D02*
X0025047Y0346105D01*
X0025047Y0346604D02*
X0056098Y0346604D01*
X0056098Y0347102D02*
X0025047Y0347102D01*
X0025047Y0347601D02*
X0056098Y0347601D01*
X0056098Y0348099D02*
X0025047Y0348099D01*
X0025047Y0348598D02*
X0056098Y0348598D01*
X0056098Y0349096D02*
X0025047Y0349096D01*
X0025047Y0349595D02*
X0056098Y0349595D01*
X0056098Y0350093D02*
X0025047Y0350093D01*
X0025047Y0350592D02*
X0056098Y0350592D01*
X0056098Y0351090D02*
X0025047Y0351090D01*
X0025047Y0351589D02*
X0056098Y0351589D01*
X0056098Y0352087D02*
X0025047Y0352087D01*
X0025047Y0352586D02*
X0056098Y0352586D01*
X0056098Y0353085D02*
X0025047Y0353085D01*
X0025047Y0353583D02*
X0056098Y0353583D01*
X0056098Y0354082D02*
X0025047Y0354082D01*
X0025047Y0354580D02*
X0056098Y0354580D01*
X0056098Y0355079D02*
X0025047Y0355079D01*
X0025047Y0355577D02*
X0056098Y0355577D01*
X0056098Y0356076D02*
X0025047Y0356076D01*
X0025047Y0356574D02*
X0056098Y0356574D01*
X0056098Y0357073D02*
X0025047Y0357073D01*
X0025047Y0357571D02*
X0056098Y0357571D01*
X0056098Y0358070D02*
X0025047Y0358070D01*
X0025047Y0358568D02*
X0056098Y0358568D01*
X0056098Y0359067D02*
X0025047Y0359067D01*
X0025047Y0359565D02*
X0056098Y0359565D01*
X0056098Y0360064D02*
X0025047Y0360064D01*
X0025047Y0360562D02*
X0056098Y0360562D01*
X0056098Y0361061D02*
X0025047Y0361061D01*
X0025047Y0361559D02*
X0056098Y0361559D01*
X0056098Y0362058D02*
X0025047Y0362058D01*
X0025047Y0362556D02*
X0056098Y0362556D01*
X0056098Y0363055D02*
X0025047Y0363055D01*
X0025047Y0363553D02*
X0056098Y0363553D01*
X0056098Y0364052D02*
X0025047Y0364052D01*
X0025047Y0364550D02*
X0056098Y0364550D01*
X0056098Y0365049D02*
X0025047Y0365049D01*
X0025047Y0365547D02*
X0056098Y0365547D01*
X0056098Y0366046D02*
X0025047Y0366046D01*
X0025047Y0366544D02*
X0056098Y0366544D01*
X0056098Y0367043D02*
X0025047Y0367043D01*
X0025047Y0367541D02*
X0056098Y0367541D01*
X0056098Y0368040D02*
X0025047Y0368040D01*
X0025047Y0368538D02*
X0056098Y0368538D01*
X0056098Y0369037D02*
X0025047Y0369037D01*
X0025047Y0369535D02*
X0056098Y0369535D01*
X0056098Y0370034D02*
X0025047Y0370034D01*
X0025047Y0370532D02*
X0056098Y0370532D01*
X0056098Y0371031D02*
X0025047Y0371031D01*
X0025047Y0371529D02*
X0056098Y0371529D01*
X0056098Y0372028D02*
X0025047Y0372028D01*
X0025047Y0372526D02*
X0056098Y0372526D01*
X0056098Y0373025D02*
X0025047Y0373025D01*
X0025047Y0373523D02*
X0056098Y0373523D01*
X0056098Y0374022D02*
X0025047Y0374022D01*
X0025047Y0374520D02*
X0056098Y0374520D01*
X0056098Y0375019D02*
X0025047Y0375019D01*
X0025047Y0375518D02*
X0056098Y0375518D01*
X0056098Y0376016D02*
X0025047Y0376016D01*
X0025047Y0376515D02*
X0056098Y0376515D01*
X0056098Y0377013D02*
X0025047Y0377013D01*
X0025047Y0377512D02*
X0056098Y0377512D01*
X0056098Y0378010D02*
X0025047Y0378010D01*
X0025047Y0378509D02*
X0056098Y0378509D01*
X0056098Y0379007D02*
X0025047Y0379007D01*
X0025047Y0379506D02*
X0056098Y0379506D01*
X0056098Y0380004D02*
X0025047Y0380004D01*
X0025047Y0380503D02*
X0056098Y0380503D01*
X0056098Y0381001D02*
X0025047Y0381001D01*
X0025047Y0381500D02*
X0056098Y0381500D01*
X0056098Y0381998D02*
X0025047Y0381998D01*
X0025047Y0382497D02*
X0056098Y0382497D01*
X0056098Y0382995D02*
X0025047Y0382995D01*
X0025047Y0383494D02*
X0056098Y0383494D01*
X0056098Y0383992D02*
X0025047Y0383992D01*
X0025047Y0384491D02*
X0056098Y0384491D01*
X0056098Y0384989D02*
X0025047Y0384989D01*
X0025047Y0385488D02*
X0056098Y0385488D01*
X0056098Y0385986D02*
X0025047Y0385986D01*
X0025047Y0386485D02*
X0056098Y0386485D01*
X0056098Y0386983D02*
X0025047Y0386983D01*
X0025047Y0387482D02*
X0056098Y0387482D01*
X0056098Y0387980D02*
X0025047Y0387980D01*
X0025047Y0388479D02*
X0056098Y0388479D01*
X0056098Y0388977D02*
X0025047Y0388977D01*
X0025047Y0389476D02*
X0056098Y0389476D01*
X0056098Y0389974D02*
X0025047Y0389974D01*
X0025047Y0390473D02*
X0056294Y0390473D01*
X0056500Y0390971D02*
X0025047Y0390971D01*
X0025047Y0391470D02*
X0056954Y0391470D01*
X0057452Y0391968D02*
X0025047Y0391968D01*
X0025047Y0392467D02*
X0057951Y0392467D01*
X0058449Y0392965D02*
X0025047Y0392965D01*
X0025047Y0393464D02*
X0058948Y0393464D01*
X0061798Y0387980D02*
X0075162Y0387980D01*
X0075162Y0387482D02*
X0061798Y0387482D01*
X0061798Y0386983D02*
X0075162Y0386983D01*
X0075162Y0386485D02*
X0061798Y0386485D01*
X0061798Y0385986D02*
X0075162Y0385986D01*
X0075162Y0385488D02*
X0061798Y0385488D01*
X0061798Y0384989D02*
X0063737Y0384989D01*
X0063238Y0384491D02*
X0061798Y0384491D01*
X0061798Y0383992D02*
X0062740Y0383992D01*
X0062241Y0383494D02*
X0061798Y0383494D01*
X0063998Y0381998D02*
X0079824Y0381998D01*
X0079824Y0381500D02*
X0063850Y0381500D01*
X0063850Y0381001D02*
X0079824Y0381001D01*
X0079824Y0380503D02*
X0063850Y0380503D01*
X0063850Y0380004D02*
X0079824Y0380004D01*
X0079824Y0379506D02*
X0063850Y0379506D01*
X0063850Y0379007D02*
X0079824Y0379007D01*
X0079824Y0378509D02*
X0063850Y0378509D01*
X0063850Y0378010D02*
X0079824Y0378010D01*
X0079824Y0377512D02*
X0063850Y0377512D01*
X0063850Y0377013D02*
X0067916Y0377013D01*
X0066712Y0376515D02*
X0063850Y0376515D01*
X0063850Y0376016D02*
X0066117Y0376016D01*
X0065618Y0375518D02*
X0063850Y0375518D01*
X0063850Y0375019D02*
X0065206Y0375019D01*
X0064999Y0374520D02*
X0063850Y0374520D01*
X0063850Y0374022D02*
X0064793Y0374022D01*
X0064586Y0373523D02*
X0063850Y0373523D01*
X0063850Y0373025D02*
X0064574Y0373025D01*
X0064574Y0372526D02*
X0063850Y0372526D01*
X0063850Y0372028D02*
X0064574Y0372028D01*
X0064638Y0371529D02*
X0063850Y0371529D01*
X0063850Y0371031D02*
X0064844Y0371031D01*
X0065051Y0370532D02*
X0063850Y0370532D01*
X0063850Y0370034D02*
X0065257Y0370034D01*
X0065743Y0369535D02*
X0063850Y0369535D01*
X0063850Y0369037D02*
X0066241Y0369037D01*
X0067012Y0368538D02*
X0063850Y0368538D01*
X0063850Y0368040D02*
X0066783Y0368040D01*
X0066146Y0367541D02*
X0063850Y0367541D01*
X0063850Y0367043D02*
X0065648Y0367043D01*
X0065218Y0366544D02*
X0063850Y0366544D01*
X0063850Y0366046D02*
X0065011Y0366046D01*
X0064805Y0365547D02*
X0063850Y0365547D01*
X0063850Y0365049D02*
X0064598Y0365049D01*
X0064574Y0364550D02*
X0063850Y0364550D01*
X0063850Y0364052D02*
X0064574Y0364052D01*
X0064574Y0363553D02*
X0063850Y0363553D01*
X0063850Y0363055D02*
X0064626Y0363055D01*
X0064832Y0362556D02*
X0063850Y0362556D01*
X0063850Y0362058D02*
X0065039Y0362058D01*
X0065245Y0361559D02*
X0063850Y0361559D01*
X0063850Y0361061D02*
X0065713Y0361061D01*
X0066212Y0360562D02*
X0063850Y0360562D01*
X0063850Y0360064D02*
X0066942Y0360064D01*
X0068145Y0359565D02*
X0063850Y0359565D01*
X0063850Y0359067D02*
X0081781Y0359067D01*
X0081781Y0359565D02*
X0070103Y0359565D01*
X0071306Y0360064D02*
X0081781Y0360064D01*
X0081781Y0360562D02*
X0072036Y0360562D01*
X0072535Y0361061D02*
X0081781Y0361061D01*
X0081781Y0361559D02*
X0073003Y0361559D01*
X0073209Y0362058D02*
X0081781Y0362058D01*
X0081781Y0362556D02*
X0073416Y0362556D01*
X0072804Y0358568D02*
X0081781Y0358568D01*
X0081781Y0358070D02*
X0073631Y0358070D01*
X0074130Y0357571D02*
X0081781Y0357571D01*
X0083551Y0356076D02*
X0084518Y0356076D01*
X0085017Y0355577D02*
X0083053Y0355577D01*
X0082554Y0355079D02*
X0085515Y0355079D01*
X0086014Y0354580D02*
X0077516Y0354580D01*
X0077516Y0354082D02*
X0093827Y0354082D01*
X0094126Y0353583D02*
X0077516Y0353583D01*
X0077516Y0353085D02*
X0094624Y0353085D01*
X0095461Y0352586D02*
X0077516Y0352586D01*
X0077516Y0352087D02*
X0106515Y0352087D01*
X0106515Y0351589D02*
X0077516Y0351589D01*
X0077516Y0351090D02*
X0106515Y0351090D01*
X0106515Y0350592D02*
X0077516Y0350592D01*
X0077516Y0350093D02*
X0106515Y0350093D01*
X0106515Y0349595D02*
X0077516Y0349595D01*
X0077516Y0349096D02*
X0106515Y0349096D01*
X0106515Y0348598D02*
X0077516Y0348598D01*
X0077516Y0348099D02*
X0106515Y0348099D01*
X0106515Y0347601D02*
X0077516Y0347601D01*
X0077516Y0347102D02*
X0091577Y0347102D01*
X0091104Y0346907D02*
X0090303Y0346105D01*
X0077516Y0346105D01*
X0077516Y0345607D02*
X0089805Y0345607D01*
X0090303Y0346105D02*
X0084944Y0340746D01*
X0083159Y0340746D01*
X0081377Y0340007D01*
X0080012Y0338643D01*
X0079274Y0336860D01*
X0079274Y0334931D01*
X0080012Y0333148D01*
X0081377Y0331784D01*
X0083159Y0331046D01*
X0085089Y0331046D01*
X0086871Y0331784D01*
X0088236Y0333148D01*
X0088974Y0334931D01*
X0088974Y0336715D01*
X0093899Y0341640D01*
X0108678Y0341640D01*
X0109725Y0342074D01*
X0110527Y0342876D01*
X0110980Y0343329D01*
X0111781Y0344130D01*
X0112215Y0345178D01*
X0112215Y0397943D01*
X0111781Y0398990D01*
X0103323Y0407449D01*
X0103323Y0421623D01*
X0104369Y0421623D01*
X0104866Y0422121D01*
X0104866Y0429911D01*
X0104369Y0430409D01*
X0096578Y0430409D01*
X0096080Y0429911D01*
X0096080Y0422121D01*
X0096578Y0421623D01*
X0097623Y0421623D01*
X0097623Y0405701D01*
X0098057Y0404654D01*
X0106515Y0396195D01*
X0106515Y0347340D01*
X0092152Y0347340D01*
X0091104Y0346907D01*
X0090802Y0346604D02*
X0077516Y0346604D01*
X0077516Y0345108D02*
X0089306Y0345108D01*
X0088808Y0344610D02*
X0077516Y0344610D01*
X0077516Y0344111D02*
X0088309Y0344111D01*
X0087811Y0343613D02*
X0077516Y0343613D01*
X0077516Y0343114D02*
X0087312Y0343114D01*
X0086814Y0342616D02*
X0077516Y0342616D01*
X0077516Y0342117D02*
X0086315Y0342117D01*
X0085817Y0341619D02*
X0077516Y0341619D01*
X0077516Y0341120D02*
X0085318Y0341120D01*
X0088231Y0333144D02*
X0109778Y0333144D01*
X0109572Y0333643D02*
X0088440Y0333643D01*
X0088647Y0334141D02*
X0109365Y0334141D01*
X0109170Y0334613D02*
X0110152Y0332242D01*
X0111966Y0330428D01*
X0114337Y0329446D01*
X0116903Y0329446D01*
X0119274Y0330428D01*
X0121088Y0332242D01*
X0122070Y0334613D01*
X0122070Y0337179D01*
X0121088Y0339549D01*
X0119274Y0341364D01*
X0116903Y0342346D01*
X0114337Y0342346D01*
X0111966Y0341364D01*
X0110152Y0339549D01*
X0109170Y0337179D01*
X0109170Y0334613D01*
X0109170Y0334640D02*
X0088853Y0334640D01*
X0088974Y0335138D02*
X0109170Y0335138D01*
X0109170Y0335637D02*
X0088974Y0335637D01*
X0088974Y0336135D02*
X0109170Y0336135D01*
X0109170Y0336634D02*
X0088974Y0336634D01*
X0089391Y0337132D02*
X0109170Y0337132D01*
X0109357Y0337631D02*
X0089889Y0337631D01*
X0090388Y0338129D02*
X0109564Y0338129D01*
X0109770Y0338628D02*
X0090887Y0338628D01*
X0091385Y0339126D02*
X0109977Y0339126D01*
X0110227Y0339625D02*
X0091884Y0339625D01*
X0092382Y0340123D02*
X0110726Y0340123D01*
X0111224Y0340622D02*
X0092881Y0340622D01*
X0093379Y0341120D02*
X0111723Y0341120D01*
X0112582Y0341619D02*
X0093878Y0341619D01*
X0090303Y0346105D02*
X0090303Y0346105D01*
X0093824Y0357073D02*
X0086774Y0357073D01*
X0086275Y0357571D02*
X0094118Y0357571D01*
X0094617Y0358070D02*
X0086061Y0358070D01*
X0086061Y0358568D02*
X0095444Y0358568D01*
X0096547Y0360227D02*
X0095267Y0361507D01*
X0094574Y0363180D01*
X0094574Y0364990D01*
X0095267Y0366662D01*
X0096547Y0367942D01*
X0097499Y0368337D01*
X0096547Y0368731D01*
X0095267Y0370011D01*
X0094574Y0371684D01*
X0094574Y0373494D01*
X0095267Y0375166D01*
X0096547Y0376446D01*
X0098219Y0377139D01*
X0100029Y0377139D01*
X0101701Y0376446D01*
X0102981Y0375166D01*
X0103674Y0373494D01*
X0103674Y0371684D01*
X0102981Y0370011D01*
X0101701Y0368731D01*
X0100749Y0368337D01*
X0101701Y0367942D01*
X0102981Y0366662D01*
X0103674Y0364990D01*
X0103674Y0363180D01*
X0102981Y0361507D01*
X0101701Y0360227D01*
X0100029Y0359535D01*
X0098219Y0359535D01*
X0096547Y0360227D01*
X0096942Y0360064D02*
X0086061Y0360064D01*
X0086061Y0360562D02*
X0096212Y0360562D01*
X0095713Y0361061D02*
X0086061Y0361061D01*
X0086061Y0361559D02*
X0095245Y0361559D01*
X0095039Y0362058D02*
X0086061Y0362058D01*
X0086061Y0362556D02*
X0094832Y0362556D01*
X0094626Y0363055D02*
X0086061Y0363055D01*
X0086061Y0363553D02*
X0094574Y0363553D01*
X0094574Y0364052D02*
X0086061Y0364052D01*
X0086061Y0364550D02*
X0094574Y0364550D01*
X0094598Y0365049D02*
X0086061Y0365049D01*
X0086061Y0365547D02*
X0094805Y0365547D01*
X0095011Y0366046D02*
X0086061Y0366046D01*
X0086061Y0366544D02*
X0095218Y0366544D01*
X0095648Y0367043D02*
X0086061Y0367043D01*
X0086061Y0367541D02*
X0096146Y0367541D01*
X0096783Y0368040D02*
X0086061Y0368040D01*
X0086061Y0368538D02*
X0097012Y0368538D01*
X0096241Y0369037D02*
X0086061Y0369037D01*
X0086061Y0369535D02*
X0095743Y0369535D01*
X0095257Y0370034D02*
X0086061Y0370034D01*
X0086061Y0370532D02*
X0095051Y0370532D01*
X0094844Y0371031D02*
X0086061Y0371031D01*
X0086061Y0371529D02*
X0094638Y0371529D01*
X0094574Y0372028D02*
X0086061Y0372028D01*
X0086061Y0372526D02*
X0094574Y0372526D01*
X0094574Y0373025D02*
X0086061Y0373025D01*
X0086061Y0373523D02*
X0094586Y0373523D01*
X0094793Y0374022D02*
X0086061Y0374022D01*
X0086061Y0374520D02*
X0094999Y0374520D01*
X0095206Y0375019D02*
X0086061Y0375019D01*
X0086061Y0375518D02*
X0095618Y0375518D01*
X0096117Y0376016D02*
X0086061Y0376016D01*
X0086061Y0376515D02*
X0096712Y0376515D01*
X0097916Y0377013D02*
X0086061Y0377013D01*
X0086061Y0377512D02*
X0106515Y0377512D01*
X0106515Y0378010D02*
X0086061Y0378010D01*
X0086061Y0378509D02*
X0106515Y0378509D01*
X0106515Y0379007D02*
X0086061Y0379007D01*
X0086061Y0379506D02*
X0106515Y0379506D01*
X0106515Y0380004D02*
X0086061Y0380004D01*
X0086061Y0380503D02*
X0106515Y0380503D01*
X0106515Y0381001D02*
X0086061Y0381001D01*
X0086061Y0381500D02*
X0106515Y0381500D01*
X0106515Y0381998D02*
X0086061Y0381998D01*
X0086061Y0382497D02*
X0106515Y0382497D01*
X0106515Y0382995D02*
X0086061Y0382995D01*
X0086061Y0383494D02*
X0106515Y0383494D01*
X0106515Y0383992D02*
X0086061Y0383992D01*
X0086061Y0384491D02*
X0106515Y0384491D01*
X0106515Y0384989D02*
X0086061Y0384989D01*
X0086061Y0385488D02*
X0106515Y0385488D01*
X0106515Y0385986D02*
X0086061Y0385986D01*
X0086061Y0386485D02*
X0106515Y0386485D01*
X0106515Y0386983D02*
X0086061Y0386983D01*
X0086061Y0387482D02*
X0106515Y0387482D01*
X0106515Y0387980D02*
X0086061Y0387980D01*
X0086061Y0388479D02*
X0106515Y0388479D01*
X0106515Y0388977D02*
X0086061Y0388977D01*
X0086061Y0389476D02*
X0106515Y0389476D01*
X0106515Y0389974D02*
X0086061Y0389974D01*
X0086061Y0390473D02*
X0106515Y0390473D01*
X0106515Y0390971D02*
X0086061Y0390971D01*
X0086061Y0391470D02*
X0106515Y0391470D01*
X0106515Y0391968D02*
X0086061Y0391968D01*
X0086061Y0392467D02*
X0106515Y0392467D01*
X0106515Y0392965D02*
X0086061Y0392965D01*
X0086061Y0393464D02*
X0106515Y0393464D01*
X0106515Y0393962D02*
X0086061Y0393962D01*
X0086061Y0394461D02*
X0106515Y0394461D01*
X0106515Y0394959D02*
X0086061Y0394959D01*
X0086061Y0395458D02*
X0106515Y0395458D01*
X0106515Y0395956D02*
X0086061Y0395956D01*
X0086061Y0396455D02*
X0106256Y0396455D01*
X0105757Y0396954D02*
X0086061Y0396954D01*
X0086061Y0397452D02*
X0105259Y0397452D01*
X0104760Y0397951D02*
X0086061Y0397951D01*
X0086061Y0398449D02*
X0104262Y0398449D01*
X0103763Y0398948D02*
X0086061Y0398948D01*
X0086061Y0399446D02*
X0103265Y0399446D01*
X0102766Y0399945D02*
X0086061Y0399945D01*
X0086061Y0400443D02*
X0102268Y0400443D01*
X0101769Y0400942D02*
X0086061Y0400942D01*
X0086061Y0401440D02*
X0101271Y0401440D01*
X0100772Y0401939D02*
X0086061Y0401939D01*
X0086061Y0402437D02*
X0100274Y0402437D01*
X0099775Y0402936D02*
X0086061Y0402936D01*
X0086061Y0403434D02*
X0099277Y0403434D01*
X0098778Y0403933D02*
X0086061Y0403933D01*
X0086061Y0404431D02*
X0098280Y0404431D01*
X0097943Y0404930D02*
X0086061Y0404930D01*
X0086061Y0405428D02*
X0097736Y0405428D01*
X0097623Y0405927D02*
X0086061Y0405927D01*
X0086061Y0406425D02*
X0097623Y0406425D01*
X0097623Y0406924D02*
X0086061Y0406924D01*
X0086061Y0407422D02*
X0097623Y0407422D01*
X0097623Y0407921D02*
X0086061Y0407921D01*
X0086061Y0408419D02*
X0097623Y0408419D01*
X0097623Y0408918D02*
X0086061Y0408918D01*
X0086061Y0409416D02*
X0097623Y0409416D01*
X0097623Y0409915D02*
X0086061Y0409915D01*
X0086061Y0410413D02*
X0097623Y0410413D01*
X0097623Y0410912D02*
X0086061Y0410912D01*
X0086061Y0411410D02*
X0097623Y0411410D01*
X0097623Y0411909D02*
X0086061Y0411909D01*
X0086061Y0412407D02*
X0097623Y0412407D01*
X0097623Y0412906D02*
X0086061Y0412906D01*
X0086061Y0413404D02*
X0097623Y0413404D01*
X0097623Y0413903D02*
X0086061Y0413903D01*
X0086061Y0414401D02*
X0097623Y0414401D01*
X0097623Y0414900D02*
X0086061Y0414900D01*
X0086061Y0415398D02*
X0097623Y0415398D01*
X0097623Y0415897D02*
X0086061Y0415897D01*
X0086061Y0416395D02*
X0097623Y0416395D01*
X0097623Y0416894D02*
X0086061Y0416894D01*
X0086061Y0417392D02*
X0097623Y0417392D01*
X0097623Y0417891D02*
X0086061Y0417891D01*
X0086061Y0418389D02*
X0097623Y0418389D01*
X0097623Y0418888D02*
X0086061Y0418888D01*
X0086061Y0419387D02*
X0097623Y0419387D01*
X0097623Y0419885D02*
X0086061Y0419885D01*
X0086061Y0420384D02*
X0097623Y0420384D01*
X0097623Y0420882D02*
X0086061Y0420882D01*
X0086061Y0421381D02*
X0097623Y0421381D01*
X0096321Y0421879D02*
X0086061Y0421879D01*
X0086061Y0422378D02*
X0096080Y0422378D01*
X0096080Y0422876D02*
X0086061Y0422876D01*
X0086061Y0423375D02*
X0096080Y0423375D01*
X0096080Y0423873D02*
X0086061Y0423873D01*
X0086061Y0424372D02*
X0096080Y0424372D01*
X0096080Y0424870D02*
X0086061Y0424870D01*
X0086061Y0425369D02*
X0096080Y0425369D01*
X0096080Y0425867D02*
X0086061Y0425867D01*
X0086061Y0426366D02*
X0096080Y0426366D01*
X0096080Y0426864D02*
X0086061Y0426864D01*
X0086061Y0427363D02*
X0096080Y0427363D01*
X0096080Y0427861D02*
X0086061Y0427861D01*
X0086061Y0428360D02*
X0096080Y0428360D01*
X0096080Y0428858D02*
X0086061Y0428858D01*
X0086061Y0429357D02*
X0096080Y0429357D01*
X0096080Y0429855D02*
X0086061Y0429855D01*
X0086061Y0430354D02*
X0096522Y0430354D01*
X0104424Y0430354D02*
X0108333Y0430354D01*
X0108389Y0430409D02*
X0107891Y0429911D01*
X0107891Y0422121D01*
X0108389Y0421623D01*
X0116180Y0421623D01*
X0116677Y0422121D01*
X0116677Y0429911D01*
X0116180Y0430409D01*
X0108389Y0430409D01*
X0107891Y0429855D02*
X0104866Y0429855D01*
X0104866Y0429357D02*
X0107891Y0429357D01*
X0107891Y0428858D02*
X0104866Y0428858D01*
X0104866Y0428360D02*
X0107891Y0428360D01*
X0107891Y0427861D02*
X0104866Y0427861D01*
X0104866Y0427363D02*
X0107891Y0427363D01*
X0107891Y0426864D02*
X0104866Y0426864D01*
X0104866Y0426366D02*
X0107891Y0426366D01*
X0107891Y0425867D02*
X0104866Y0425867D01*
X0104866Y0425369D02*
X0107891Y0425369D01*
X0107891Y0424870D02*
X0104866Y0424870D01*
X0104866Y0424372D02*
X0107891Y0424372D01*
X0107891Y0423873D02*
X0104866Y0423873D01*
X0104866Y0423375D02*
X0107891Y0423375D01*
X0107891Y0422876D02*
X0104866Y0422876D01*
X0104866Y0422378D02*
X0107891Y0422378D01*
X0108132Y0421879D02*
X0104625Y0421879D01*
X0103323Y0421381D02*
X0124613Y0421381D01*
X0124613Y0421879D02*
X0116436Y0421879D01*
X0116677Y0422378D02*
X0124613Y0422378D01*
X0124613Y0422627D02*
X0124613Y0420817D01*
X0125306Y0419145D01*
X0126586Y0417865D01*
X0128258Y0417172D01*
X0130068Y0417172D01*
X0131741Y0417865D01*
X0133021Y0419145D01*
X0133713Y0420817D01*
X0133713Y0422627D01*
X0133021Y0424300D01*
X0131741Y0425580D01*
X0130068Y0426272D01*
X0128258Y0426272D01*
X0126586Y0425580D01*
X0125306Y0424300D01*
X0124613Y0422627D01*
X0124716Y0422876D02*
X0116677Y0422876D01*
X0116677Y0423375D02*
X0124923Y0423375D01*
X0125129Y0423873D02*
X0116677Y0423873D01*
X0116677Y0424372D02*
X0125378Y0424372D01*
X0125876Y0424870D02*
X0116677Y0424870D01*
X0116677Y0425369D02*
X0126375Y0425369D01*
X0127280Y0425867D02*
X0116677Y0425867D01*
X0116677Y0426366D02*
X0142413Y0426366D01*
X0142413Y0426864D02*
X0116677Y0426864D01*
X0116677Y0427363D02*
X0127799Y0427363D01*
X0128258Y0427172D02*
X0126586Y0427865D01*
X0125306Y0429145D01*
X0124613Y0430817D01*
X0124613Y0432627D01*
X0125306Y0434300D01*
X0126586Y0435580D01*
X0128258Y0436272D01*
X0130068Y0436272D01*
X0131741Y0435580D01*
X0133021Y0434300D01*
X0133713Y0432627D01*
X0133713Y0430817D01*
X0133021Y0429145D01*
X0131741Y0427865D01*
X0130068Y0427172D01*
X0128258Y0427172D01*
X0126595Y0427861D02*
X0116677Y0427861D01*
X0116677Y0428360D02*
X0126091Y0428360D01*
X0125593Y0428858D02*
X0116677Y0428858D01*
X0116677Y0429357D02*
X0125218Y0429357D01*
X0125012Y0429855D02*
X0116677Y0429855D01*
X0116235Y0430354D02*
X0124805Y0430354D01*
X0124613Y0430852D02*
X0086061Y0430852D01*
X0086061Y0431351D02*
X0124613Y0431351D01*
X0124613Y0431849D02*
X0086061Y0431849D01*
X0086061Y0432348D02*
X0124613Y0432348D01*
X0124704Y0432846D02*
X0086061Y0432846D01*
X0086061Y0433345D02*
X0124911Y0433345D01*
X0125117Y0433843D02*
X0086061Y0433843D01*
X0086061Y0434342D02*
X0125348Y0434342D01*
X0125847Y0434840D02*
X0086061Y0434840D01*
X0086061Y0435339D02*
X0126345Y0435339D01*
X0127208Y0435837D02*
X0086061Y0435837D01*
X0086061Y0436336D02*
X0142413Y0436336D01*
X0142413Y0436834D02*
X0086061Y0436834D01*
X0086061Y0437333D02*
X0127871Y0437333D01*
X0126667Y0437831D02*
X0086061Y0437831D01*
X0086061Y0438330D02*
X0126121Y0438330D01*
X0125623Y0438828D02*
X0086061Y0438828D01*
X0086061Y0439327D02*
X0125231Y0439327D01*
X0125024Y0439825D02*
X0086061Y0439825D01*
X0086061Y0440324D02*
X0124818Y0440324D01*
X0124613Y0440823D02*
X0086061Y0440823D01*
X0086061Y0441321D02*
X0124613Y0441321D01*
X0124613Y0441820D02*
X0086061Y0441820D01*
X0086061Y0442318D02*
X0124613Y0442318D01*
X0124692Y0442817D02*
X0086061Y0442817D01*
X0086061Y0443315D02*
X0124898Y0443315D01*
X0125105Y0443814D02*
X0086061Y0443814D01*
X0086349Y0444312D02*
X0125318Y0444312D01*
X0125817Y0444811D02*
X0086847Y0444811D01*
X0087346Y0445309D02*
X0126315Y0445309D01*
X0124886Y0453285D02*
X0082124Y0453285D01*
X0082124Y0452787D02*
X0083992Y0452787D01*
X0083494Y0452288D02*
X0082124Y0452288D01*
X0082124Y0451790D02*
X0082995Y0451790D01*
X0082497Y0451291D02*
X0082124Y0451291D01*
X0079824Y0451291D02*
X0070354Y0451291D01*
X0070852Y0450793D02*
X0079824Y0450793D01*
X0079824Y0450294D02*
X0071351Y0450294D01*
X0071849Y0449796D02*
X0079824Y0449796D01*
X0079824Y0449297D02*
X0072348Y0449297D01*
X0072846Y0448799D02*
X0079824Y0448799D01*
X0079824Y0448300D02*
X0073345Y0448300D01*
X0073843Y0447802D02*
X0079824Y0447802D01*
X0079824Y0447303D02*
X0074342Y0447303D01*
X0074840Y0446805D02*
X0079824Y0446805D01*
X0079824Y0446306D02*
X0075339Y0446306D01*
X0075837Y0445808D02*
X0079824Y0445808D01*
X0079824Y0445309D02*
X0076336Y0445309D01*
X0076834Y0444811D02*
X0079824Y0444811D01*
X0079824Y0444312D02*
X0077333Y0444312D01*
X0077462Y0443814D02*
X0079824Y0443814D01*
X0079824Y0443315D02*
X0077462Y0443315D01*
X0077462Y0442817D02*
X0079824Y0442817D01*
X0079824Y0442318D02*
X0077462Y0442318D01*
X0077462Y0441820D02*
X0079824Y0441820D01*
X0079824Y0441321D02*
X0077462Y0441321D01*
X0077462Y0440823D02*
X0079824Y0440823D01*
X0079824Y0440324D02*
X0077462Y0440324D01*
X0077462Y0439825D02*
X0079824Y0439825D01*
X0079824Y0439327D02*
X0077462Y0439327D01*
X0077462Y0438828D02*
X0079824Y0438828D01*
X0079824Y0438330D02*
X0077462Y0438330D01*
X0077462Y0437831D02*
X0079824Y0437831D01*
X0079824Y0437333D02*
X0077462Y0437333D01*
X0077462Y0436834D02*
X0079824Y0436834D01*
X0079824Y0436336D02*
X0077462Y0436336D01*
X0077462Y0435837D02*
X0079824Y0435837D01*
X0079824Y0435339D02*
X0077462Y0435339D01*
X0077462Y0434840D02*
X0079824Y0434840D01*
X0079824Y0434342D02*
X0077462Y0434342D01*
X0077462Y0433843D02*
X0079824Y0433843D01*
X0079824Y0433345D02*
X0077462Y0433345D01*
X0077462Y0432846D02*
X0079824Y0432846D01*
X0079824Y0432348D02*
X0077462Y0432348D01*
X0077462Y0431849D02*
X0079824Y0431849D01*
X0079824Y0431351D02*
X0077462Y0431351D01*
X0077462Y0430852D02*
X0079824Y0430852D01*
X0079824Y0430354D02*
X0077462Y0430354D01*
X0077462Y0429855D02*
X0079824Y0429855D01*
X0079824Y0429357D02*
X0077462Y0429357D01*
X0077462Y0428858D02*
X0079824Y0428858D01*
X0079824Y0428360D02*
X0077462Y0428360D01*
X0077462Y0427861D02*
X0079824Y0427861D01*
X0079824Y0427363D02*
X0077462Y0427363D01*
X0077462Y0426864D02*
X0079824Y0426864D01*
X0079824Y0426366D02*
X0077462Y0426366D01*
X0077462Y0425867D02*
X0079824Y0425867D01*
X0079824Y0425369D02*
X0077462Y0425369D01*
X0077462Y0424870D02*
X0079824Y0424870D01*
X0079824Y0424372D02*
X0077462Y0424372D01*
X0077462Y0423873D02*
X0079824Y0423873D01*
X0079824Y0423375D02*
X0077462Y0423375D01*
X0077462Y0422876D02*
X0079824Y0422876D01*
X0079824Y0422378D02*
X0077462Y0422378D01*
X0077462Y0421879D02*
X0079824Y0421879D01*
X0079824Y0421381D02*
X0077462Y0421381D01*
X0077462Y0420882D02*
X0079824Y0420882D01*
X0079824Y0420384D02*
X0077462Y0420384D01*
X0077462Y0419885D02*
X0079824Y0419885D01*
X0079824Y0419387D02*
X0077462Y0419387D01*
X0077462Y0418888D02*
X0079824Y0418888D01*
X0079824Y0418389D02*
X0077462Y0418389D01*
X0077462Y0417891D02*
X0079824Y0417891D01*
X0079824Y0417392D02*
X0077462Y0417392D01*
X0077462Y0416894D02*
X0079824Y0416894D01*
X0079824Y0416395D02*
X0077462Y0416395D01*
X0077462Y0415897D02*
X0079824Y0415897D01*
X0079824Y0415398D02*
X0077462Y0415398D01*
X0077462Y0414900D02*
X0079824Y0414900D01*
X0079824Y0414401D02*
X0077462Y0414401D01*
X0077462Y0413903D02*
X0079824Y0413903D01*
X0079824Y0413404D02*
X0077462Y0413404D01*
X0077462Y0412906D02*
X0079824Y0412906D01*
X0079824Y0412407D02*
X0077462Y0412407D01*
X0077462Y0411909D02*
X0079824Y0411909D01*
X0079824Y0411410D02*
X0077462Y0411410D01*
X0077462Y0410912D02*
X0079824Y0410912D01*
X0079824Y0410413D02*
X0077462Y0410413D01*
X0077462Y0409915D02*
X0079824Y0409915D01*
X0079824Y0409416D02*
X0077462Y0409416D01*
X0077462Y0408918D02*
X0079824Y0408918D01*
X0079824Y0408419D02*
X0077462Y0408419D01*
X0077462Y0407921D02*
X0079824Y0407921D01*
X0079824Y0407422D02*
X0077462Y0407422D01*
X0077462Y0406924D02*
X0079824Y0406924D01*
X0079824Y0406425D02*
X0077462Y0406425D01*
X0077462Y0405927D02*
X0079824Y0405927D01*
X0079824Y0405428D02*
X0077462Y0405428D01*
X0077462Y0404930D02*
X0079824Y0404930D01*
X0079824Y0404431D02*
X0077462Y0404431D01*
X0077462Y0403933D02*
X0079824Y0403933D01*
X0079824Y0403434D02*
X0077462Y0403434D01*
X0077462Y0402936D02*
X0079824Y0402936D01*
X0079824Y0402437D02*
X0077462Y0402437D01*
X0077462Y0401939D02*
X0079824Y0401939D01*
X0079824Y0401440D02*
X0077462Y0401440D01*
X0077462Y0400942D02*
X0079824Y0400942D01*
X0079824Y0400443D02*
X0077462Y0400443D01*
X0077462Y0399945D02*
X0079824Y0399945D01*
X0079824Y0399446D02*
X0077462Y0399446D01*
X0077462Y0398948D02*
X0079824Y0398948D01*
X0079824Y0398449D02*
X0077462Y0398449D01*
X0077462Y0397951D02*
X0079824Y0397951D01*
X0079824Y0397452D02*
X0077462Y0397452D01*
X0077462Y0396954D02*
X0079824Y0396954D01*
X0079824Y0396455D02*
X0077462Y0396455D01*
X0077462Y0395956D02*
X0079824Y0395956D01*
X0079824Y0395458D02*
X0077462Y0395458D01*
X0077462Y0394959D02*
X0079824Y0394959D01*
X0079824Y0394461D02*
X0077462Y0394461D01*
X0077462Y0393962D02*
X0079824Y0393962D01*
X0079824Y0393464D02*
X0077462Y0393464D01*
X0077462Y0392965D02*
X0079824Y0392965D01*
X0079824Y0392467D02*
X0077462Y0392467D01*
X0077462Y0391968D02*
X0079824Y0391968D01*
X0079824Y0391470D02*
X0077462Y0391470D01*
X0077462Y0390971D02*
X0079824Y0390971D01*
X0079824Y0390473D02*
X0077462Y0390473D01*
X0077462Y0389974D02*
X0079824Y0389974D01*
X0079824Y0389476D02*
X0077462Y0389476D01*
X0077462Y0388977D02*
X0079824Y0388977D01*
X0079824Y0388479D02*
X0077462Y0388479D01*
X0077462Y0387980D02*
X0079824Y0387980D01*
X0079824Y0387482D02*
X0077462Y0387482D01*
X0077462Y0386983D02*
X0079824Y0386983D01*
X0079824Y0386485D02*
X0077462Y0386485D01*
X0077462Y0385986D02*
X0079824Y0385986D01*
X0079824Y0385488D02*
X0077462Y0385488D01*
X0077462Y0384989D02*
X0079824Y0384989D01*
X0079824Y0384491D02*
X0077462Y0384491D01*
X0077305Y0383992D02*
X0079824Y0383992D01*
X0079824Y0383494D02*
X0076806Y0383494D01*
X0076788Y0383476D02*
X0076788Y0383476D01*
X0075162Y0388479D02*
X0067585Y0388479D01*
X0068381Y0388977D02*
X0075162Y0388977D01*
X0075162Y0389476D02*
X0068880Y0389476D01*
X0069378Y0389974D02*
X0075162Y0389974D01*
X0075162Y0390473D02*
X0069877Y0390473D01*
X0070375Y0390971D02*
X0075162Y0390971D01*
X0075162Y0391470D02*
X0070601Y0391470D01*
X0070808Y0391968D02*
X0075162Y0391968D01*
X0075162Y0392467D02*
X0070843Y0392467D01*
X0070843Y0392965D02*
X0075162Y0392965D01*
X0075162Y0393464D02*
X0070843Y0393464D01*
X0070843Y0393962D02*
X0075162Y0393962D01*
X0075162Y0394461D02*
X0070843Y0394461D01*
X0070843Y0394959D02*
X0075162Y0394959D01*
X0075162Y0395458D02*
X0070843Y0395458D01*
X0070843Y0395956D02*
X0075162Y0395956D01*
X0075162Y0396455D02*
X0070843Y0396455D01*
X0070843Y0396954D02*
X0075162Y0396954D01*
X0075162Y0397452D02*
X0070843Y0397452D01*
X0070843Y0397951D02*
X0075162Y0397951D01*
X0075162Y0398449D02*
X0070843Y0398449D01*
X0070843Y0398948D02*
X0075162Y0398948D01*
X0075162Y0399446D02*
X0070843Y0399446D01*
X0070843Y0399945D02*
X0075162Y0399945D01*
X0075162Y0400443D02*
X0070843Y0400443D01*
X0070843Y0400942D02*
X0075162Y0400942D01*
X0075162Y0401440D02*
X0070843Y0401440D01*
X0070843Y0401939D02*
X0075162Y0401939D01*
X0075162Y0402437D02*
X0070843Y0402437D01*
X0070843Y0402936D02*
X0075162Y0402936D01*
X0075162Y0403434D02*
X0070843Y0403434D01*
X0070843Y0403933D02*
X0075162Y0403933D01*
X0075162Y0404431D02*
X0070843Y0404431D01*
X0070843Y0404930D02*
X0075162Y0404930D01*
X0075162Y0405428D02*
X0070843Y0405428D01*
X0070843Y0405927D02*
X0075162Y0405927D01*
X0075162Y0406425D02*
X0070843Y0406425D01*
X0070843Y0406924D02*
X0075162Y0406924D01*
X0075162Y0407422D02*
X0070843Y0407422D01*
X0070843Y0407921D02*
X0075162Y0407921D01*
X0075162Y0408419D02*
X0070843Y0408419D01*
X0070843Y0408918D02*
X0075162Y0408918D01*
X0075162Y0409416D02*
X0070843Y0409416D01*
X0070843Y0409915D02*
X0075162Y0409915D01*
X0075162Y0410413D02*
X0070843Y0410413D01*
X0070843Y0410912D02*
X0075162Y0410912D01*
X0075162Y0411410D02*
X0070843Y0411410D01*
X0070843Y0411909D02*
X0075162Y0411909D01*
X0075162Y0412407D02*
X0070843Y0412407D01*
X0070843Y0412906D02*
X0075162Y0412906D01*
X0075162Y0413404D02*
X0070843Y0413404D01*
X0070843Y0413903D02*
X0075162Y0413903D01*
X0075162Y0414401D02*
X0070843Y0414401D01*
X0070843Y0414900D02*
X0075162Y0414900D01*
X0075162Y0415398D02*
X0070843Y0415398D01*
X0070843Y0415897D02*
X0075162Y0415897D01*
X0075162Y0416395D02*
X0070843Y0416395D01*
X0070843Y0416894D02*
X0075162Y0416894D01*
X0075162Y0417392D02*
X0070843Y0417392D01*
X0070843Y0417891D02*
X0075162Y0417891D01*
X0075162Y0418389D02*
X0070843Y0418389D01*
X0070843Y0418888D02*
X0075162Y0418888D01*
X0075162Y0419387D02*
X0070843Y0419387D01*
X0070843Y0419885D02*
X0075162Y0419885D01*
X0075162Y0420384D02*
X0070843Y0420384D01*
X0070843Y0420882D02*
X0075162Y0420882D01*
X0075162Y0421381D02*
X0070843Y0421381D01*
X0072145Y0421879D02*
X0075162Y0421879D01*
X0075162Y0422378D02*
X0072386Y0422378D01*
X0072386Y0422876D02*
X0075162Y0422876D01*
X0075162Y0423375D02*
X0072386Y0423375D01*
X0072386Y0423873D02*
X0075162Y0423873D01*
X0075162Y0424372D02*
X0072386Y0424372D01*
X0072386Y0424870D02*
X0075162Y0424870D01*
X0075162Y0425369D02*
X0072386Y0425369D01*
X0072386Y0425867D02*
X0075162Y0425867D01*
X0075162Y0426366D02*
X0072386Y0426366D01*
X0072386Y0426864D02*
X0075162Y0426864D01*
X0075162Y0427363D02*
X0072386Y0427363D01*
X0072386Y0427861D02*
X0075162Y0427861D01*
X0075162Y0428360D02*
X0072386Y0428360D01*
X0072386Y0428858D02*
X0075162Y0428858D01*
X0075162Y0429357D02*
X0072386Y0429357D01*
X0072386Y0429855D02*
X0075162Y0429855D01*
X0075162Y0430354D02*
X0071944Y0430354D01*
X0075162Y0430852D02*
X0044037Y0430852D01*
X0043991Y0430563D02*
X0044113Y0431333D01*
X0044113Y0431472D01*
X0039413Y0431472D01*
X0039413Y0426772D01*
X0039553Y0426772D01*
X0040323Y0426894D01*
X0041064Y0427135D01*
X0041758Y0427489D01*
X0042388Y0427947D01*
X0042939Y0428498D01*
X0043397Y0429128D01*
X0043751Y0429822D01*
X0043991Y0430563D01*
X0043923Y0430354D02*
X0051665Y0430354D01*
X0051638Y0430327D02*
X0051474Y0430042D01*
X0051388Y0429724D01*
X0051388Y0426266D01*
X0055932Y0426266D01*
X0055932Y0430809D01*
X0052474Y0430809D01*
X0052156Y0430724D01*
X0051871Y0430560D01*
X0051638Y0430327D01*
X0051424Y0429855D02*
X0043761Y0429855D01*
X0043514Y0429357D02*
X0051388Y0429357D01*
X0051388Y0428858D02*
X0043201Y0428858D01*
X0042801Y0428360D02*
X0051388Y0428360D01*
X0051388Y0427861D02*
X0042270Y0427861D01*
X0041510Y0427363D02*
X0051388Y0427363D01*
X0051388Y0426864D02*
X0040132Y0426864D01*
X0039413Y0426864D02*
X0038913Y0426864D01*
X0038913Y0426772D02*
X0038913Y0431472D01*
X0039413Y0431472D01*
X0039413Y0431972D01*
X0044113Y0431972D01*
X0044113Y0432112D01*
X0043991Y0432882D01*
X0043751Y0433623D01*
X0043397Y0434317D01*
X0042939Y0434947D01*
X0042388Y0435498D01*
X0041758Y0435956D01*
X0041064Y0436310D01*
X0040323Y0436551D01*
X0039553Y0436672D01*
X0039413Y0436672D01*
X0039413Y0431972D01*
X0038913Y0431972D01*
X0038913Y0431472D01*
X0034213Y0431472D01*
X0034213Y0431333D01*
X0034335Y0430563D01*
X0034576Y0429822D01*
X0034930Y0429128D01*
X0035388Y0428498D01*
X0035939Y0427947D01*
X0036569Y0427489D01*
X0037263Y0427135D01*
X0038004Y0426894D01*
X0038774Y0426772D01*
X0038913Y0426772D01*
X0038913Y0427363D02*
X0039413Y0427363D01*
X0039413Y0427861D02*
X0038913Y0427861D01*
X0038913Y0428360D02*
X0039413Y0428360D01*
X0039413Y0428858D02*
X0038913Y0428858D01*
X0038913Y0429357D02*
X0039413Y0429357D01*
X0039413Y0429855D02*
X0038913Y0429855D01*
X0038913Y0430354D02*
X0039413Y0430354D01*
X0039413Y0430852D02*
X0038913Y0430852D01*
X0038913Y0431351D02*
X0039413Y0431351D01*
X0039413Y0431849D02*
X0075162Y0431849D01*
X0075162Y0431351D02*
X0044113Y0431351D01*
X0044076Y0432348D02*
X0075162Y0432348D01*
X0075162Y0432846D02*
X0043997Y0432846D01*
X0043841Y0433345D02*
X0075162Y0433345D01*
X0075162Y0433843D02*
X0043638Y0433843D01*
X0043379Y0434342D02*
X0075162Y0434342D01*
X0075162Y0434840D02*
X0043017Y0434840D01*
X0042547Y0435339D02*
X0075162Y0435339D01*
X0075162Y0435837D02*
X0041921Y0435837D01*
X0040983Y0436336D02*
X0075162Y0436336D01*
X0075162Y0436834D02*
X0025047Y0436834D01*
X0025047Y0436336D02*
X0037344Y0436336D01*
X0037263Y0436310D02*
X0036569Y0435956D01*
X0035939Y0435498D01*
X0035388Y0434947D01*
X0034930Y0434317D01*
X0034576Y0433623D01*
X0034335Y0432882D01*
X0034213Y0432112D01*
X0034213Y0431972D01*
X0038913Y0431972D01*
X0038913Y0436672D01*
X0038774Y0436672D01*
X0038004Y0436551D01*
X0037263Y0436310D01*
X0036406Y0435837D02*
X0025047Y0435837D01*
X0025047Y0435339D02*
X0035779Y0435339D01*
X0035310Y0434840D02*
X0025047Y0434840D01*
X0025047Y0434342D02*
X0034948Y0434342D01*
X0034689Y0433843D02*
X0025047Y0433843D01*
X0025047Y0433345D02*
X0034486Y0433345D01*
X0034330Y0432846D02*
X0025047Y0432846D01*
X0025047Y0432348D02*
X0034251Y0432348D01*
X0034213Y0431351D02*
X0025047Y0431351D01*
X0025047Y0431849D02*
X0038913Y0431849D01*
X0038913Y0432348D02*
X0039413Y0432348D01*
X0039413Y0432846D02*
X0038913Y0432846D01*
X0038913Y0433345D02*
X0039413Y0433345D01*
X0039413Y0433843D02*
X0038913Y0433843D01*
X0038913Y0434342D02*
X0039413Y0434342D01*
X0039413Y0434840D02*
X0038913Y0434840D01*
X0038913Y0435339D02*
X0039413Y0435339D01*
X0039413Y0435837D02*
X0038913Y0435837D01*
X0038913Y0436336D02*
X0039413Y0436336D01*
X0040068Y0437172D02*
X0038258Y0437172D01*
X0036586Y0437865D01*
X0035306Y0439145D01*
X0034613Y0440817D01*
X0034613Y0442627D01*
X0035306Y0444300D01*
X0036586Y0445580D01*
X0038258Y0446272D01*
X0040068Y0446272D01*
X0041741Y0445580D01*
X0043021Y0444300D01*
X0043713Y0442627D01*
X0043713Y0440817D01*
X0043021Y0439145D01*
X0041741Y0437865D01*
X0040068Y0437172D01*
X0040456Y0437333D02*
X0075162Y0437333D01*
X0075162Y0437831D02*
X0041659Y0437831D01*
X0042206Y0438330D02*
X0075162Y0438330D01*
X0075162Y0438828D02*
X0042704Y0438828D01*
X0043096Y0439327D02*
X0075162Y0439327D01*
X0075162Y0439825D02*
X0043303Y0439825D01*
X0043509Y0440324D02*
X0075162Y0440324D01*
X0075162Y0440823D02*
X0043713Y0440823D01*
X0043713Y0441321D02*
X0075162Y0441321D01*
X0075162Y0441820D02*
X0043713Y0441820D01*
X0043713Y0442318D02*
X0075162Y0442318D01*
X0075162Y0442817D02*
X0043635Y0442817D01*
X0043429Y0443315D02*
X0075077Y0443315D01*
X0074579Y0443814D02*
X0043222Y0443814D01*
X0043008Y0444312D02*
X0074080Y0444312D01*
X0073582Y0444811D02*
X0042510Y0444811D01*
X0042011Y0445309D02*
X0073083Y0445309D01*
X0072585Y0445808D02*
X0041191Y0445808D01*
X0040384Y0447303D02*
X0071089Y0447303D01*
X0071588Y0446805D02*
X0025047Y0446805D01*
X0025047Y0447303D02*
X0037943Y0447303D01*
X0038258Y0447172D02*
X0040068Y0447172D01*
X0041741Y0447865D01*
X0043021Y0449145D01*
X0043713Y0450817D01*
X0043713Y0452627D01*
X0043021Y0454300D01*
X0041741Y0455580D01*
X0040068Y0456272D01*
X0038258Y0456272D01*
X0036586Y0455580D01*
X0035306Y0454300D01*
X0034613Y0452627D01*
X0034613Y0450817D01*
X0035306Y0449145D01*
X0036586Y0447865D01*
X0038258Y0447172D01*
X0036739Y0447802D02*
X0025047Y0447802D01*
X0025047Y0448300D02*
X0036151Y0448300D01*
X0035652Y0448799D02*
X0025047Y0448799D01*
X0025047Y0449297D02*
X0035243Y0449297D01*
X0035037Y0449796D02*
X0025047Y0449796D01*
X0025047Y0450294D02*
X0034830Y0450294D01*
X0034624Y0450793D02*
X0025047Y0450793D01*
X0025047Y0451291D02*
X0034613Y0451291D01*
X0034613Y0451790D02*
X0025047Y0451790D01*
X0025047Y0452288D02*
X0034613Y0452288D01*
X0034679Y0452787D02*
X0025047Y0452787D01*
X0025047Y0453285D02*
X0034886Y0453285D01*
X0035092Y0453784D02*
X0025047Y0453784D01*
X0025047Y0454282D02*
X0035299Y0454282D01*
X0035787Y0454781D02*
X0025047Y0454781D01*
X0025047Y0455279D02*
X0036286Y0455279D01*
X0037064Y0455778D02*
X0025047Y0455778D01*
X0025047Y0456276D02*
X0065679Y0456276D01*
X0065679Y0455778D02*
X0041262Y0455778D01*
X0042041Y0455279D02*
X0065679Y0455279D01*
X0065679Y0454781D02*
X0042540Y0454781D01*
X0043028Y0454282D02*
X0065679Y0454282D01*
X0065679Y0453784D02*
X0043234Y0453784D01*
X0043441Y0453285D02*
X0065679Y0453285D01*
X0065679Y0452787D02*
X0043647Y0452787D01*
X0043713Y0452288D02*
X0066104Y0452288D01*
X0066602Y0451790D02*
X0043713Y0451790D01*
X0043713Y0451291D02*
X0067101Y0451291D01*
X0067599Y0450793D02*
X0043703Y0450793D01*
X0043497Y0450294D02*
X0068098Y0450294D01*
X0068596Y0449796D02*
X0043290Y0449796D01*
X0043084Y0449297D02*
X0069095Y0449297D01*
X0069593Y0448799D02*
X0042674Y0448799D01*
X0042176Y0448300D02*
X0070092Y0448300D01*
X0070590Y0447802D02*
X0041588Y0447802D01*
X0040068Y0457172D02*
X0038258Y0457172D01*
X0036586Y0457865D01*
X0035306Y0459145D01*
X0034613Y0460817D01*
X0034613Y0462627D01*
X0035306Y0464300D01*
X0036586Y0465580D01*
X0038258Y0466272D01*
X0040068Y0466272D01*
X0041741Y0465580D01*
X0043021Y0464300D01*
X0043713Y0462627D01*
X0043713Y0460817D01*
X0043021Y0459145D01*
X0041741Y0457865D01*
X0040068Y0457172D01*
X0040312Y0457273D02*
X0065679Y0457273D01*
X0065679Y0456775D02*
X0025047Y0456775D01*
X0025047Y0457273D02*
X0038015Y0457273D01*
X0036811Y0457772D02*
X0025047Y0457772D01*
X0025047Y0458270D02*
X0036181Y0458270D01*
X0035682Y0458769D02*
X0025047Y0458769D01*
X0025047Y0459267D02*
X0035255Y0459267D01*
X0035049Y0459766D02*
X0025047Y0459766D01*
X0025047Y0460264D02*
X0034842Y0460264D01*
X0034636Y0460763D02*
X0025047Y0460763D01*
X0025047Y0461261D02*
X0034613Y0461261D01*
X0034613Y0461760D02*
X0025047Y0461760D01*
X0025047Y0462258D02*
X0034613Y0462258D01*
X0034667Y0462757D02*
X0025047Y0462757D01*
X0025047Y0463256D02*
X0034874Y0463256D01*
X0035080Y0463754D02*
X0025047Y0463754D01*
X0025047Y0464253D02*
X0035287Y0464253D01*
X0035757Y0464751D02*
X0025047Y0464751D01*
X0025047Y0465250D02*
X0036256Y0465250D01*
X0036992Y0465748D02*
X0025047Y0465748D01*
X0025047Y0466247D02*
X0038196Y0466247D01*
X0038258Y0467172D02*
X0040068Y0467172D01*
X0041741Y0467865D01*
X0043021Y0469145D01*
X0043713Y0470817D01*
X0043713Y0472627D01*
X0043021Y0474300D01*
X0041741Y0475580D01*
X0040068Y0476272D01*
X0038258Y0476272D01*
X0036586Y0475580D01*
X0035306Y0474300D01*
X0034613Y0472627D01*
X0034613Y0470817D01*
X0035306Y0469145D01*
X0036586Y0467865D01*
X0038258Y0467172D01*
X0038087Y0467244D02*
X0025047Y0467244D01*
X0025047Y0467742D02*
X0036883Y0467742D01*
X0036211Y0468241D02*
X0025047Y0468241D01*
X0025047Y0468739D02*
X0035712Y0468739D01*
X0035268Y0469238D02*
X0025047Y0469238D01*
X0025047Y0469736D02*
X0035061Y0469736D01*
X0034855Y0470235D02*
X0025047Y0470235D01*
X0025047Y0470733D02*
X0034648Y0470733D01*
X0034613Y0471232D02*
X0025047Y0471232D01*
X0025047Y0471730D02*
X0034613Y0471730D01*
X0034613Y0472229D02*
X0025047Y0472229D01*
X0025047Y0472727D02*
X0034655Y0472727D01*
X0034861Y0473226D02*
X0025047Y0473226D01*
X0025047Y0473724D02*
X0035068Y0473724D01*
X0035274Y0474223D02*
X0025047Y0474223D01*
X0025047Y0474721D02*
X0035728Y0474721D01*
X0036226Y0475220D02*
X0025047Y0475220D01*
X0025047Y0475718D02*
X0036921Y0475718D01*
X0038124Y0476217D02*
X0025047Y0476217D01*
X0025047Y0476715D02*
X0065679Y0476715D01*
X0065679Y0476217D02*
X0040203Y0476217D01*
X0040068Y0477172D02*
X0038258Y0477172D01*
X0036586Y0477865D01*
X0035306Y0479145D01*
X0034613Y0480817D01*
X0034613Y0482627D01*
X0035306Y0484300D01*
X0036586Y0485580D01*
X0038258Y0486272D01*
X0040068Y0486272D01*
X0041741Y0485580D01*
X0043021Y0484300D01*
X0043713Y0482627D01*
X0043713Y0480817D01*
X0043021Y0479145D01*
X0041741Y0477865D01*
X0040068Y0477172D01*
X0040168Y0477214D02*
X0065679Y0477214D01*
X0065679Y0477712D02*
X0041372Y0477712D01*
X0042086Y0478211D02*
X0065679Y0478211D01*
X0065679Y0478709D02*
X0042585Y0478709D01*
X0043047Y0479208D02*
X0065679Y0479208D01*
X0065679Y0479706D02*
X0043253Y0479706D01*
X0043460Y0480205D02*
X0065679Y0480205D01*
X0065679Y0480703D02*
X0043666Y0480703D01*
X0043713Y0481202D02*
X0065679Y0481202D01*
X0065679Y0481700D02*
X0043713Y0481700D01*
X0043713Y0482199D02*
X0065679Y0482199D01*
X0065679Y0482697D02*
X0043684Y0482697D01*
X0043478Y0483196D02*
X0065679Y0483196D01*
X0065679Y0483694D02*
X0043271Y0483694D01*
X0043065Y0484193D02*
X0065679Y0484193D01*
X0065679Y0484691D02*
X0042629Y0484691D01*
X0042130Y0485190D02*
X0065679Y0485190D01*
X0065679Y0485689D02*
X0041478Y0485689D01*
X0040275Y0486187D02*
X0065679Y0486187D01*
X0065679Y0486686D02*
X0025047Y0486686D01*
X0025047Y0487184D02*
X0038230Y0487184D01*
X0038258Y0487172D02*
X0040068Y0487172D01*
X0041741Y0487865D01*
X0043021Y0489145D01*
X0043713Y0490817D01*
X0043713Y0492627D01*
X0043021Y0494300D01*
X0041741Y0495580D01*
X0040068Y0496272D01*
X0038258Y0496272D01*
X0036586Y0495580D01*
X0035306Y0494300D01*
X0034613Y0492627D01*
X0034613Y0490817D01*
X0035306Y0489145D01*
X0036586Y0487865D01*
X0038258Y0487172D01*
X0038052Y0486187D02*
X0025047Y0486187D01*
X0025047Y0485689D02*
X0036849Y0485689D01*
X0036196Y0485190D02*
X0025047Y0485190D01*
X0025047Y0484691D02*
X0035698Y0484691D01*
X0035262Y0484193D02*
X0025047Y0484193D01*
X0025047Y0483694D02*
X0035055Y0483694D01*
X0034849Y0483196D02*
X0025047Y0483196D01*
X0025047Y0482697D02*
X0034642Y0482697D01*
X0034613Y0482199D02*
X0025047Y0482199D01*
X0025047Y0481700D02*
X0034613Y0481700D01*
X0034613Y0481202D02*
X0025047Y0481202D01*
X0025047Y0480703D02*
X0034661Y0480703D01*
X0034867Y0480205D02*
X0025047Y0480205D01*
X0025047Y0479706D02*
X0035074Y0479706D01*
X0035280Y0479208D02*
X0025047Y0479208D01*
X0025047Y0478709D02*
X0035742Y0478709D01*
X0036240Y0478211D02*
X0025047Y0478211D01*
X0025047Y0477712D02*
X0036955Y0477712D01*
X0038158Y0477214D02*
X0025047Y0477214D01*
X0025047Y0487683D02*
X0037027Y0487683D01*
X0036270Y0488181D02*
X0025047Y0488181D01*
X0025047Y0488680D02*
X0035772Y0488680D01*
X0035292Y0489178D02*
X0025047Y0489178D01*
X0025047Y0489677D02*
X0035086Y0489677D01*
X0034879Y0490175D02*
X0025047Y0490175D01*
X0025047Y0490674D02*
X0034673Y0490674D01*
X0034613Y0491172D02*
X0025047Y0491172D01*
X0025047Y0491671D02*
X0034613Y0491671D01*
X0034613Y0492169D02*
X0025047Y0492169D01*
X0025047Y0492668D02*
X0034630Y0492668D01*
X0034837Y0493166D02*
X0025047Y0493166D01*
X0025047Y0493665D02*
X0035043Y0493665D01*
X0035250Y0494163D02*
X0025047Y0494163D01*
X0025047Y0494662D02*
X0035668Y0494662D01*
X0036167Y0495160D02*
X0025047Y0495160D01*
X0025047Y0495659D02*
X0036777Y0495659D01*
X0037980Y0496157D02*
X0025047Y0496157D01*
X0025047Y0496656D02*
X0128013Y0496656D01*
X0128013Y0497154D02*
X0025047Y0497154D01*
X0025047Y0497653D02*
X0128013Y0497653D01*
X0128013Y0498151D02*
X0025047Y0498151D01*
X0025047Y0498650D02*
X0128013Y0498650D01*
X0128013Y0499148D02*
X0025047Y0499148D01*
X0025047Y0499647D02*
X0128013Y0499647D01*
X0128013Y0500145D02*
X0025047Y0500145D01*
X0025047Y0500644D02*
X0128013Y0500644D01*
X0128013Y0501142D02*
X0025047Y0501142D01*
X0025047Y0501641D02*
X0128013Y0501641D01*
X0128013Y0502139D02*
X0025047Y0502139D01*
X0025047Y0502638D02*
X0128013Y0502638D01*
X0128013Y0503136D02*
X0025047Y0503136D01*
X0025047Y0503635D02*
X0128013Y0503635D01*
X0128013Y0504133D02*
X0025047Y0504133D01*
X0025047Y0504632D02*
X0128013Y0504632D01*
X0128013Y0505130D02*
X0025047Y0505130D01*
X0025047Y0505629D02*
X0128013Y0505629D01*
X0128013Y0506127D02*
X0103315Y0506127D01*
X0103164Y0505976D02*
X0099227Y0505976D01*
X0097761Y0505976D01*
X0096724Y0507013D01*
X0096724Y0513597D01*
X0097761Y0514634D01*
X0103164Y0514634D01*
X0104201Y0513597D01*
X0104201Y0507013D01*
X0103164Y0505976D01*
X0103814Y0506626D02*
X0128013Y0506626D01*
X0128013Y0507125D02*
X0104201Y0507125D01*
X0104201Y0507623D02*
X0128013Y0507623D01*
X0128013Y0508122D02*
X0104201Y0508122D01*
X0104201Y0508620D02*
X0128013Y0508620D01*
X0128013Y0509119D02*
X0104201Y0509119D01*
X0104201Y0509617D02*
X0128013Y0509617D01*
X0128013Y0510116D02*
X0116483Y0510116D01*
X0116677Y0510614D02*
X0128013Y0510614D01*
X0128013Y0511113D02*
X0116677Y0511113D01*
X0116677Y0511611D02*
X0128013Y0511611D01*
X0128013Y0512110D02*
X0116677Y0512110D01*
X0116677Y0512608D02*
X0128013Y0512608D01*
X0128013Y0513107D02*
X0116677Y0513107D01*
X0116677Y0513605D02*
X0128013Y0513605D01*
X0128013Y0514104D02*
X0116677Y0514104D01*
X0116677Y0514602D02*
X0128013Y0514602D01*
X0128013Y0515101D02*
X0116677Y0515101D01*
X0116677Y0515599D02*
X0128013Y0515599D01*
X0128013Y0516098D02*
X0116677Y0516098D01*
X0116677Y0516596D02*
X0128013Y0516596D01*
X0128013Y0517095D02*
X0116677Y0517095D01*
X0116677Y0517593D02*
X0128013Y0517593D01*
X0130313Y0517593D02*
X0140051Y0517593D01*
X0140051Y0517095D02*
X0130313Y0517095D01*
X0130313Y0516596D02*
X0140051Y0516596D01*
X0140051Y0516098D02*
X0130313Y0516098D01*
X0130313Y0515599D02*
X0140051Y0515599D01*
X0140051Y0515101D02*
X0130313Y0515101D01*
X0130313Y0514602D02*
X0140051Y0514602D01*
X0140051Y0514104D02*
X0130313Y0514104D01*
X0130313Y0513605D02*
X0140051Y0513605D01*
X0140051Y0513107D02*
X0130313Y0513107D01*
X0130313Y0512608D02*
X0140051Y0512608D01*
X0140278Y0512110D02*
X0130313Y0512110D01*
X0130313Y0511611D02*
X0140776Y0511611D01*
X0142413Y0511113D02*
X0130313Y0511113D01*
X0130313Y0510614D02*
X0142413Y0510614D01*
X0142413Y0510116D02*
X0130313Y0510116D01*
X0130313Y0509617D02*
X0142413Y0509617D01*
X0142413Y0509119D02*
X0130313Y0509119D01*
X0130313Y0508620D02*
X0142413Y0508620D01*
X0142413Y0508122D02*
X0130313Y0508122D01*
X0130313Y0507623D02*
X0142413Y0507623D01*
X0142413Y0507125D02*
X0130313Y0507125D01*
X0130313Y0506626D02*
X0142413Y0506626D01*
X0142413Y0506127D02*
X0130313Y0506127D01*
X0130313Y0505629D02*
X0142413Y0505629D01*
X0142413Y0505130D02*
X0130313Y0505130D01*
X0130313Y0504632D02*
X0142413Y0504632D01*
X0142413Y0504133D02*
X0130313Y0504133D01*
X0130313Y0503635D02*
X0142413Y0503635D01*
X0142413Y0503136D02*
X0130313Y0503136D01*
X0130313Y0502638D02*
X0142413Y0502638D01*
X0142413Y0502139D02*
X0130313Y0502139D01*
X0130313Y0501641D02*
X0142413Y0501641D01*
X0142413Y0501142D02*
X0130313Y0501142D01*
X0130313Y0500644D02*
X0142413Y0500644D01*
X0142413Y0500145D02*
X0130313Y0500145D01*
X0130313Y0499647D02*
X0142413Y0499647D01*
X0142413Y0499148D02*
X0130313Y0499148D01*
X0130313Y0498650D02*
X0142413Y0498650D01*
X0142413Y0498151D02*
X0130313Y0498151D01*
X0130313Y0497653D02*
X0142413Y0497653D01*
X0142413Y0497154D02*
X0130313Y0497154D01*
X0130313Y0496656D02*
X0142413Y0496656D01*
X0142413Y0496157D02*
X0130346Y0496157D01*
X0131550Y0495659D02*
X0142413Y0495659D01*
X0142413Y0495160D02*
X0132160Y0495160D01*
X0132659Y0494662D02*
X0142413Y0494662D01*
X0142413Y0494163D02*
X0133077Y0494163D01*
X0133284Y0493665D02*
X0142413Y0493665D01*
X0142413Y0493166D02*
X0133490Y0493166D01*
X0133697Y0492668D02*
X0142413Y0492668D01*
X0142413Y0492169D02*
X0133713Y0492169D01*
X0133713Y0491671D02*
X0142413Y0491671D01*
X0142413Y0491172D02*
X0133713Y0491172D01*
X0133654Y0490674D02*
X0142413Y0490674D01*
X0142413Y0490175D02*
X0133447Y0490175D01*
X0133241Y0489677D02*
X0142413Y0489677D01*
X0142413Y0489178D02*
X0133034Y0489178D01*
X0132555Y0488680D02*
X0142413Y0488680D01*
X0142413Y0488181D02*
X0132057Y0488181D01*
X0131300Y0487683D02*
X0142413Y0487683D01*
X0142413Y0487184D02*
X0130096Y0487184D01*
X0130275Y0486187D02*
X0142413Y0486187D01*
X0142413Y0485689D02*
X0131478Y0485689D01*
X0132130Y0485190D02*
X0142413Y0485190D01*
X0142413Y0484691D02*
X0132629Y0484691D01*
X0133065Y0484193D02*
X0142413Y0484193D01*
X0142413Y0483694D02*
X0133271Y0483694D01*
X0133478Y0483196D02*
X0142413Y0483196D01*
X0142413Y0482697D02*
X0133684Y0482697D01*
X0133713Y0482199D02*
X0142413Y0482199D01*
X0142413Y0481700D02*
X0133713Y0481700D01*
X0133713Y0481202D02*
X0142413Y0481202D01*
X0142413Y0480703D02*
X0133666Y0480703D01*
X0133460Y0480205D02*
X0142413Y0480205D01*
X0142413Y0479706D02*
X0133253Y0479706D01*
X0133047Y0479208D02*
X0142413Y0479208D01*
X0142413Y0478709D02*
X0132585Y0478709D01*
X0132086Y0478211D02*
X0142413Y0478211D01*
X0142413Y0477712D02*
X0131372Y0477712D01*
X0130168Y0477214D02*
X0142413Y0477214D01*
X0142413Y0476715D02*
X0082124Y0476715D01*
X0082124Y0476217D02*
X0128124Y0476217D01*
X0128158Y0477214D02*
X0082124Y0477214D01*
X0082124Y0477712D02*
X0126955Y0477712D01*
X0126240Y0478211D02*
X0082124Y0478211D01*
X0082124Y0478709D02*
X0125742Y0478709D01*
X0125280Y0479208D02*
X0082124Y0479208D01*
X0082599Y0479706D02*
X0125074Y0479706D01*
X0124867Y0480205D02*
X0083098Y0480205D01*
X0081341Y0481700D02*
X0067979Y0481700D01*
X0067979Y0481202D02*
X0080842Y0481202D01*
X0080344Y0480703D02*
X0067979Y0480703D01*
X0067979Y0480205D02*
X0079845Y0480205D01*
X0079824Y0479706D02*
X0067979Y0479706D01*
X0067979Y0479208D02*
X0079824Y0479208D01*
X0079824Y0478709D02*
X0067979Y0478709D01*
X0067979Y0478211D02*
X0079824Y0478211D01*
X0079824Y0477712D02*
X0067979Y0477712D01*
X0067979Y0477214D02*
X0079824Y0477214D01*
X0079824Y0476715D02*
X0067979Y0476715D01*
X0067979Y0476217D02*
X0079824Y0476217D01*
X0079824Y0475718D02*
X0067979Y0475718D01*
X0067979Y0475220D02*
X0079824Y0475220D01*
X0079824Y0474721D02*
X0067979Y0474721D01*
X0067979Y0474223D02*
X0079824Y0474223D01*
X0079824Y0473724D02*
X0067979Y0473724D01*
X0067979Y0473226D02*
X0079824Y0473226D01*
X0079824Y0472727D02*
X0067979Y0472727D01*
X0067979Y0472229D02*
X0079824Y0472229D01*
X0079824Y0471730D02*
X0067979Y0471730D01*
X0067979Y0471232D02*
X0079824Y0471232D01*
X0079824Y0470733D02*
X0067979Y0470733D01*
X0067979Y0470235D02*
X0079824Y0470235D01*
X0079824Y0469736D02*
X0067979Y0469736D01*
X0067979Y0469238D02*
X0079824Y0469238D01*
X0079824Y0468739D02*
X0067979Y0468739D01*
X0067979Y0468241D02*
X0079824Y0468241D01*
X0079824Y0467742D02*
X0067979Y0467742D01*
X0067979Y0467244D02*
X0079824Y0467244D01*
X0079824Y0466745D02*
X0067979Y0466745D01*
X0067979Y0466247D02*
X0079824Y0466247D01*
X0079824Y0465748D02*
X0067979Y0465748D01*
X0067979Y0465250D02*
X0079824Y0465250D01*
X0079824Y0464751D02*
X0067979Y0464751D01*
X0067979Y0464253D02*
X0079824Y0464253D01*
X0079824Y0463754D02*
X0067979Y0463754D01*
X0067979Y0463256D02*
X0079824Y0463256D01*
X0079824Y0462757D02*
X0067979Y0462757D01*
X0067979Y0462258D02*
X0079824Y0462258D01*
X0079824Y0461760D02*
X0067979Y0461760D01*
X0067979Y0461261D02*
X0079824Y0461261D01*
X0079824Y0460763D02*
X0067979Y0460763D01*
X0067979Y0460264D02*
X0079824Y0460264D01*
X0079824Y0459766D02*
X0067979Y0459766D01*
X0067979Y0459267D02*
X0079824Y0459267D01*
X0079824Y0458769D02*
X0067979Y0458769D01*
X0067979Y0458270D02*
X0079824Y0458270D01*
X0079824Y0457772D02*
X0067979Y0457772D01*
X0067979Y0457273D02*
X0079824Y0457273D01*
X0079824Y0456775D02*
X0067979Y0456775D01*
X0067979Y0456276D02*
X0079824Y0456276D01*
X0079824Y0455778D02*
X0067979Y0455778D01*
X0067979Y0455279D02*
X0079824Y0455279D01*
X0079824Y0454781D02*
X0067979Y0454781D01*
X0067979Y0454282D02*
X0079824Y0454282D01*
X0079824Y0453784D02*
X0067979Y0453784D01*
X0068360Y0453285D02*
X0079824Y0453285D01*
X0079824Y0452787D02*
X0068858Y0452787D01*
X0069357Y0452288D02*
X0079824Y0452288D01*
X0079824Y0451790D02*
X0069855Y0451790D01*
X0072086Y0446306D02*
X0025047Y0446306D01*
X0025047Y0445808D02*
X0037136Y0445808D01*
X0036315Y0445309D02*
X0025047Y0445309D01*
X0025047Y0444811D02*
X0035817Y0444811D01*
X0035318Y0444312D02*
X0025047Y0444312D01*
X0025047Y0443814D02*
X0035105Y0443814D01*
X0034898Y0443315D02*
X0025047Y0443315D01*
X0025047Y0442817D02*
X0034692Y0442817D01*
X0034613Y0442318D02*
X0025047Y0442318D01*
X0025047Y0441820D02*
X0034613Y0441820D01*
X0034613Y0441321D02*
X0025047Y0441321D01*
X0025047Y0440823D02*
X0034613Y0440823D01*
X0034818Y0440324D02*
X0025047Y0440324D01*
X0025047Y0439825D02*
X0035024Y0439825D01*
X0035231Y0439327D02*
X0025047Y0439327D01*
X0025047Y0438828D02*
X0035623Y0438828D01*
X0036121Y0438330D02*
X0025047Y0438330D01*
X0025047Y0437831D02*
X0036667Y0437831D01*
X0037871Y0437333D02*
X0025047Y0437333D01*
X0025047Y0430852D02*
X0034289Y0430852D01*
X0034403Y0430354D02*
X0025047Y0430354D01*
X0025047Y0429855D02*
X0034565Y0429855D01*
X0034813Y0429357D02*
X0025047Y0429357D01*
X0025047Y0428858D02*
X0035126Y0428858D01*
X0035526Y0428360D02*
X0025047Y0428360D01*
X0025047Y0427861D02*
X0036056Y0427861D01*
X0036817Y0427363D02*
X0025047Y0427363D01*
X0025047Y0426864D02*
X0038195Y0426864D01*
X0035111Y0426272D02*
X0034613Y0425775D01*
X0034613Y0417670D01*
X0035111Y0417172D01*
X0043215Y0417172D01*
X0043713Y0417670D01*
X0043713Y0425775D01*
X0043215Y0426272D01*
X0035111Y0426272D01*
X0034706Y0425867D02*
X0025047Y0425867D01*
X0025047Y0425369D02*
X0034613Y0425369D01*
X0034613Y0424870D02*
X0025047Y0424870D01*
X0025047Y0424372D02*
X0034613Y0424372D01*
X0034613Y0423873D02*
X0025047Y0423873D01*
X0025047Y0423375D02*
X0034613Y0423375D01*
X0034613Y0422876D02*
X0025047Y0422876D01*
X0025047Y0422378D02*
X0034613Y0422378D01*
X0034613Y0421879D02*
X0025047Y0421879D01*
X0025047Y0421381D02*
X0034613Y0421381D01*
X0034613Y0420882D02*
X0025047Y0420882D01*
X0025047Y0420384D02*
X0034613Y0420384D01*
X0034613Y0419885D02*
X0025047Y0419885D01*
X0025047Y0419387D02*
X0034613Y0419387D01*
X0034613Y0418888D02*
X0025047Y0418888D01*
X0025047Y0418389D02*
X0034613Y0418389D01*
X0034613Y0417891D02*
X0025047Y0417891D01*
X0025047Y0417392D02*
X0034891Y0417392D01*
X0043435Y0417392D02*
X0065143Y0417392D01*
X0065143Y0416894D02*
X0025047Y0416894D01*
X0025047Y0416395D02*
X0065143Y0416395D01*
X0065143Y0415897D02*
X0025047Y0415897D01*
X0025047Y0415398D02*
X0065143Y0415398D01*
X0065143Y0414900D02*
X0025047Y0414900D01*
X0025047Y0414401D02*
X0065143Y0414401D01*
X0065143Y0413903D02*
X0025047Y0413903D01*
X0025047Y0413404D02*
X0065143Y0413404D01*
X0065143Y0412906D02*
X0025047Y0412906D01*
X0025047Y0412407D02*
X0065143Y0412407D01*
X0065143Y0411909D02*
X0025047Y0411909D01*
X0025047Y0411410D02*
X0065143Y0411410D01*
X0065143Y0410912D02*
X0025047Y0410912D01*
X0025047Y0410413D02*
X0065143Y0410413D01*
X0065143Y0409915D02*
X0025047Y0409915D01*
X0025047Y0409416D02*
X0065143Y0409416D01*
X0065143Y0408918D02*
X0025047Y0408918D01*
X0025047Y0408419D02*
X0065143Y0408419D01*
X0065143Y0407921D02*
X0025047Y0407921D01*
X0025047Y0407422D02*
X0065143Y0407422D01*
X0065143Y0406924D02*
X0025047Y0406924D01*
X0025047Y0406425D02*
X0065143Y0406425D01*
X0065143Y0405927D02*
X0025047Y0405927D01*
X0025047Y0405428D02*
X0065143Y0405428D01*
X0065143Y0404930D02*
X0025047Y0404930D01*
X0025047Y0404431D02*
X0065143Y0404431D01*
X0065143Y0403933D02*
X0025047Y0403933D01*
X0025047Y0403434D02*
X0065143Y0403434D01*
X0065143Y0402936D02*
X0025047Y0402936D01*
X0025047Y0402437D02*
X0065143Y0402437D01*
X0065143Y0401939D02*
X0025047Y0401939D01*
X0025047Y0401440D02*
X0065143Y0401440D01*
X0065143Y0400942D02*
X0025047Y0400942D01*
X0025047Y0400443D02*
X0065143Y0400443D01*
X0065143Y0399945D02*
X0025047Y0399945D01*
X0025047Y0399446D02*
X0065143Y0399446D01*
X0065143Y0398948D02*
X0025047Y0398948D01*
X0025047Y0398449D02*
X0065143Y0398449D01*
X0065143Y0397951D02*
X0025047Y0397951D01*
X0025047Y0397452D02*
X0065143Y0397452D01*
X0065143Y0396954D02*
X0025047Y0396954D01*
X0025047Y0396455D02*
X0065143Y0396455D01*
X0065143Y0395956D02*
X0025047Y0395956D01*
X0025047Y0395458D02*
X0065143Y0395458D01*
X0065143Y0394959D02*
X0025047Y0394959D01*
X0025047Y0394461D02*
X0065143Y0394461D01*
X0065143Y0393962D02*
X0025047Y0393962D01*
X0025047Y0426366D02*
X0051388Y0426366D01*
X0051388Y0425766D02*
X0051388Y0422308D01*
X0051474Y0421990D01*
X0051638Y0421705D01*
X0051871Y0421472D01*
X0052156Y0421308D01*
X0052474Y0421223D01*
X0055932Y0421223D01*
X0055932Y0425766D01*
X0056432Y0425766D01*
X0056432Y0426266D01*
X0060975Y0426266D01*
X0060975Y0429724D01*
X0060890Y0430042D01*
X0060725Y0430327D01*
X0060493Y0430560D01*
X0060208Y0430724D01*
X0059890Y0430809D01*
X0056432Y0430809D01*
X0056432Y0426266D01*
X0055932Y0426266D01*
X0055932Y0425766D01*
X0051388Y0425766D01*
X0051388Y0425369D02*
X0043713Y0425369D01*
X0043713Y0424870D02*
X0051388Y0424870D01*
X0051388Y0424372D02*
X0043713Y0424372D01*
X0043713Y0423873D02*
X0051388Y0423873D01*
X0051388Y0423375D02*
X0043713Y0423375D01*
X0043713Y0422876D02*
X0051388Y0422876D01*
X0051388Y0422378D02*
X0043713Y0422378D01*
X0043713Y0421879D02*
X0051538Y0421879D01*
X0052030Y0421381D02*
X0043713Y0421381D01*
X0043713Y0420882D02*
X0065143Y0420882D01*
X0065143Y0420384D02*
X0043713Y0420384D01*
X0043713Y0419885D02*
X0065143Y0419885D01*
X0065143Y0419387D02*
X0043713Y0419387D01*
X0043713Y0418888D02*
X0065143Y0418888D01*
X0065143Y0418389D02*
X0043713Y0418389D01*
X0043713Y0417891D02*
X0065143Y0417891D01*
X0065143Y0421381D02*
X0060334Y0421381D01*
X0060208Y0421308D02*
X0060493Y0421472D01*
X0060725Y0421705D01*
X0060890Y0421990D01*
X0060975Y0422308D01*
X0060975Y0425766D01*
X0056432Y0425766D01*
X0056432Y0421223D01*
X0059890Y0421223D01*
X0060208Y0421308D01*
X0060826Y0421879D02*
X0063841Y0421879D01*
X0063599Y0422378D02*
X0060975Y0422378D01*
X0060975Y0422876D02*
X0063599Y0422876D01*
X0063599Y0423375D02*
X0060975Y0423375D01*
X0060975Y0423873D02*
X0063599Y0423873D01*
X0063599Y0424372D02*
X0060975Y0424372D01*
X0060975Y0424870D02*
X0063599Y0424870D01*
X0063599Y0425369D02*
X0060975Y0425369D01*
X0060975Y0426366D02*
X0063599Y0426366D01*
X0063599Y0426864D02*
X0060975Y0426864D01*
X0060975Y0427363D02*
X0063599Y0427363D01*
X0063599Y0427861D02*
X0060975Y0427861D01*
X0060975Y0428360D02*
X0063599Y0428360D01*
X0063599Y0428858D02*
X0060975Y0428858D01*
X0060975Y0429357D02*
X0063599Y0429357D01*
X0063599Y0429855D02*
X0060940Y0429855D01*
X0060698Y0430354D02*
X0064042Y0430354D01*
X0063599Y0425867D02*
X0056432Y0425867D01*
X0056432Y0425369D02*
X0055932Y0425369D01*
X0055932Y0425867D02*
X0043621Y0425867D01*
X0041516Y0457772D02*
X0065679Y0457772D01*
X0065679Y0458270D02*
X0042146Y0458270D01*
X0042645Y0458769D02*
X0065679Y0458769D01*
X0065679Y0459267D02*
X0043071Y0459267D01*
X0043278Y0459766D02*
X0065679Y0459766D01*
X0065679Y0460264D02*
X0043484Y0460264D01*
X0043691Y0460763D02*
X0065679Y0460763D01*
X0065679Y0461261D02*
X0043713Y0461261D01*
X0043713Y0461760D02*
X0065679Y0461760D01*
X0065679Y0462258D02*
X0043713Y0462258D01*
X0043660Y0462757D02*
X0065679Y0462757D01*
X0065679Y0463256D02*
X0043453Y0463256D01*
X0043247Y0463754D02*
X0065679Y0463754D01*
X0065679Y0464253D02*
X0043040Y0464253D01*
X0042569Y0464751D02*
X0065679Y0464751D01*
X0065679Y0465250D02*
X0042071Y0465250D01*
X0041334Y0465748D02*
X0065679Y0465748D01*
X0065679Y0466247D02*
X0040131Y0466247D01*
X0040240Y0467244D02*
X0065679Y0467244D01*
X0065679Y0467742D02*
X0041444Y0467742D01*
X0042116Y0468241D02*
X0065679Y0468241D01*
X0065679Y0468739D02*
X0042615Y0468739D01*
X0043059Y0469238D02*
X0065679Y0469238D01*
X0065679Y0469736D02*
X0043266Y0469736D01*
X0043472Y0470235D02*
X0065679Y0470235D01*
X0065679Y0470733D02*
X0043678Y0470733D01*
X0043713Y0471232D02*
X0065679Y0471232D01*
X0065679Y0471730D02*
X0043713Y0471730D01*
X0043713Y0472229D02*
X0065679Y0472229D01*
X0065679Y0472727D02*
X0043672Y0472727D01*
X0043466Y0473226D02*
X0065679Y0473226D01*
X0065679Y0473724D02*
X0043259Y0473724D01*
X0043053Y0474223D02*
X0065679Y0474223D01*
X0065679Y0474721D02*
X0042599Y0474721D01*
X0042101Y0475220D02*
X0065679Y0475220D01*
X0065679Y0475718D02*
X0041406Y0475718D01*
X0040096Y0487184D02*
X0065679Y0487184D01*
X0065679Y0487683D02*
X0041300Y0487683D01*
X0042057Y0488181D02*
X0065679Y0488181D01*
X0065679Y0488680D02*
X0042555Y0488680D01*
X0043034Y0489178D02*
X0065679Y0489178D01*
X0065679Y0489677D02*
X0043241Y0489677D01*
X0043447Y0490175D02*
X0065679Y0490175D01*
X0065679Y0490674D02*
X0043654Y0490674D01*
X0043713Y0491172D02*
X0065679Y0491172D01*
X0066164Y0491671D02*
X0043713Y0491671D01*
X0043713Y0492169D02*
X0066662Y0492169D01*
X0067161Y0492668D02*
X0043697Y0492668D01*
X0043490Y0493166D02*
X0124837Y0493166D01*
X0125043Y0493665D02*
X0043284Y0493665D01*
X0043077Y0494163D02*
X0125250Y0494163D01*
X0125668Y0494662D02*
X0042659Y0494662D01*
X0042160Y0495160D02*
X0126167Y0495160D01*
X0126777Y0495659D02*
X0041550Y0495659D01*
X0040346Y0496157D02*
X0127980Y0496157D01*
X0126270Y0488181D02*
X0067979Y0488181D01*
X0067979Y0487683D02*
X0127027Y0487683D01*
X0128230Y0487184D02*
X0067979Y0487184D01*
X0067979Y0486686D02*
X0142413Y0486686D01*
X0142413Y0476217D02*
X0130203Y0476217D01*
X0131406Y0475718D02*
X0142413Y0475718D01*
X0142413Y0475220D02*
X0132101Y0475220D01*
X0132599Y0474721D02*
X0142413Y0474721D01*
X0142413Y0474223D02*
X0133053Y0474223D01*
X0133259Y0473724D02*
X0142413Y0473724D01*
X0142413Y0473226D02*
X0133466Y0473226D01*
X0134621Y0472727D02*
X0142413Y0472727D01*
X0142413Y0472229D02*
X0135119Y0472229D01*
X0135618Y0471730D02*
X0142413Y0471730D01*
X0142413Y0471232D02*
X0136116Y0471232D01*
X0136258Y0470733D02*
X0142413Y0470733D01*
X0142413Y0470235D02*
X0136258Y0470235D01*
X0136258Y0469736D02*
X0142413Y0469736D01*
X0142413Y0469238D02*
X0136258Y0469238D01*
X0136258Y0468739D02*
X0142413Y0468739D01*
X0142413Y0468241D02*
X0136258Y0468241D01*
X0136258Y0467742D02*
X0142413Y0467742D01*
X0142413Y0467244D02*
X0136258Y0467244D01*
X0136258Y0466745D02*
X0142413Y0466745D01*
X0142413Y0466247D02*
X0136258Y0466247D01*
X0136258Y0465748D02*
X0142413Y0465748D01*
X0142413Y0465250D02*
X0136258Y0465250D01*
X0136258Y0464751D02*
X0142413Y0464751D01*
X0142413Y0464253D02*
X0136258Y0464253D01*
X0136258Y0463754D02*
X0142413Y0463754D01*
X0142413Y0463256D02*
X0136258Y0463256D01*
X0136258Y0462757D02*
X0142413Y0462757D01*
X0142413Y0462258D02*
X0136258Y0462258D01*
X0136258Y0461760D02*
X0142413Y0461760D01*
X0142413Y0461261D02*
X0136258Y0461261D01*
X0136258Y0460763D02*
X0142413Y0460763D01*
X0142413Y0460264D02*
X0136258Y0460264D01*
X0136258Y0459766D02*
X0142413Y0459766D01*
X0142413Y0459267D02*
X0136258Y0459267D01*
X0136258Y0458769D02*
X0142413Y0458769D01*
X0142413Y0458270D02*
X0136258Y0458270D01*
X0136258Y0457772D02*
X0142413Y0457772D01*
X0142413Y0457273D02*
X0136258Y0457273D01*
X0136258Y0456775D02*
X0142413Y0456775D01*
X0142413Y0456276D02*
X0136258Y0456276D01*
X0136258Y0455778D02*
X0142413Y0455778D01*
X0142413Y0455279D02*
X0136258Y0455279D01*
X0136258Y0454781D02*
X0142413Y0454781D01*
X0142413Y0454282D02*
X0136258Y0454282D01*
X0136258Y0453784D02*
X0142413Y0453784D01*
X0142413Y0453285D02*
X0136258Y0453285D01*
X0136258Y0452787D02*
X0142413Y0452787D01*
X0142413Y0452288D02*
X0136258Y0452288D01*
X0136258Y0451790D02*
X0142413Y0451790D01*
X0142413Y0451291D02*
X0136258Y0451291D01*
X0136258Y0450793D02*
X0142413Y0450793D01*
X0142413Y0450294D02*
X0136258Y0450294D01*
X0136258Y0449796D02*
X0142413Y0449796D01*
X0142413Y0449297D02*
X0136258Y0449297D01*
X0136258Y0448799D02*
X0142413Y0448799D01*
X0142413Y0448300D02*
X0136258Y0448300D01*
X0136258Y0447802D02*
X0142413Y0447802D01*
X0142413Y0447303D02*
X0136066Y0447303D01*
X0135567Y0446805D02*
X0142413Y0446805D01*
X0142413Y0446306D02*
X0135069Y0446306D01*
X0134570Y0445808D02*
X0142413Y0445808D01*
X0142413Y0445309D02*
X0132011Y0445309D01*
X0132510Y0444811D02*
X0142413Y0444811D01*
X0142413Y0444312D02*
X0133008Y0444312D01*
X0133222Y0443814D02*
X0142413Y0443814D01*
X0142413Y0443315D02*
X0133429Y0443315D01*
X0133635Y0442817D02*
X0142413Y0442817D01*
X0142413Y0442318D02*
X0133713Y0442318D01*
X0133713Y0441820D02*
X0142413Y0441820D01*
X0142413Y0441321D02*
X0133713Y0441321D01*
X0133713Y0440823D02*
X0142413Y0440823D01*
X0142413Y0440324D02*
X0133509Y0440324D01*
X0133303Y0439825D02*
X0142413Y0439825D01*
X0142413Y0439327D02*
X0133096Y0439327D01*
X0132704Y0438828D02*
X0142413Y0438828D01*
X0142413Y0438330D02*
X0132206Y0438330D01*
X0131659Y0437831D02*
X0142413Y0437831D01*
X0142413Y0437333D02*
X0130456Y0437333D01*
X0131119Y0435837D02*
X0142413Y0435837D01*
X0142413Y0435339D02*
X0131982Y0435339D01*
X0132480Y0434840D02*
X0142413Y0434840D01*
X0142413Y0434342D02*
X0132979Y0434342D01*
X0133210Y0433843D02*
X0142413Y0433843D01*
X0142413Y0433345D02*
X0133416Y0433345D01*
X0133623Y0432846D02*
X0142413Y0432846D01*
X0142413Y0432348D02*
X0133713Y0432348D01*
X0133713Y0431849D02*
X0142413Y0431849D01*
X0142413Y0431351D02*
X0133713Y0431351D01*
X0133713Y0430852D02*
X0142413Y0430852D01*
X0142413Y0430354D02*
X0133521Y0430354D01*
X0133315Y0429855D02*
X0142413Y0429855D01*
X0142413Y0429357D02*
X0133108Y0429357D01*
X0132734Y0428858D02*
X0142413Y0428858D01*
X0142413Y0428360D02*
X0132235Y0428360D01*
X0131731Y0427861D02*
X0142413Y0427861D01*
X0142413Y0427363D02*
X0130528Y0427363D01*
X0131047Y0425867D02*
X0142413Y0425867D01*
X0142413Y0425369D02*
X0131952Y0425369D01*
X0132450Y0424870D02*
X0142413Y0424870D01*
X0142413Y0424372D02*
X0132949Y0424372D01*
X0133197Y0423873D02*
X0142413Y0423873D01*
X0142413Y0423375D02*
X0133404Y0423375D01*
X0133610Y0422876D02*
X0142413Y0422876D01*
X0142413Y0422378D02*
X0133713Y0422378D01*
X0133713Y0421879D02*
X0142413Y0421879D01*
X0142413Y0421381D02*
X0133713Y0421381D01*
X0133713Y0420882D02*
X0142413Y0420882D01*
X0142413Y0420384D02*
X0133534Y0420384D01*
X0133327Y0419885D02*
X0142413Y0419885D01*
X0142413Y0419387D02*
X0133121Y0419387D01*
X0132764Y0418888D02*
X0142413Y0418888D01*
X0142413Y0418389D02*
X0132265Y0418389D01*
X0131767Y0417891D02*
X0142413Y0417891D01*
X0142413Y0417392D02*
X0130600Y0417392D01*
X0127727Y0417392D02*
X0103323Y0417392D01*
X0103323Y0416894D02*
X0142413Y0416894D01*
X0142413Y0416395D02*
X0103323Y0416395D01*
X0103323Y0415897D02*
X0142413Y0415897D01*
X0142413Y0415398D02*
X0103323Y0415398D01*
X0103323Y0414900D02*
X0142413Y0414900D01*
X0142413Y0414401D02*
X0103323Y0414401D01*
X0103323Y0413903D02*
X0142413Y0413903D01*
X0142413Y0413404D02*
X0103323Y0413404D01*
X0103323Y0412906D02*
X0142413Y0412906D01*
X0142413Y0412407D02*
X0103323Y0412407D01*
X0103323Y0411909D02*
X0142413Y0411909D01*
X0142413Y0411410D02*
X0103323Y0411410D01*
X0103323Y0410912D02*
X0142413Y0410912D01*
X0142413Y0410413D02*
X0103323Y0410413D01*
X0103323Y0409915D02*
X0142413Y0409915D01*
X0142413Y0409416D02*
X0103323Y0409416D01*
X0103323Y0408918D02*
X0142413Y0408918D01*
X0142413Y0408419D02*
X0103323Y0408419D01*
X0103323Y0407921D02*
X0142413Y0407921D01*
X0142413Y0407422D02*
X0103349Y0407422D01*
X0103848Y0406924D02*
X0142413Y0406924D01*
X0142413Y0406425D02*
X0104346Y0406425D01*
X0104845Y0405927D02*
X0142413Y0405927D01*
X0142413Y0405428D02*
X0105343Y0405428D01*
X0105842Y0404930D02*
X0142413Y0404930D01*
X0142413Y0404431D02*
X0106341Y0404431D01*
X0106839Y0403933D02*
X0142413Y0403933D01*
X0142413Y0403434D02*
X0107338Y0403434D01*
X0107836Y0402936D02*
X0142413Y0402936D01*
X0142413Y0402437D02*
X0108335Y0402437D01*
X0108833Y0401939D02*
X0142413Y0401939D01*
X0142413Y0401440D02*
X0109332Y0401440D01*
X0109830Y0400942D02*
X0142413Y0400942D01*
X0142413Y0400443D02*
X0110329Y0400443D01*
X0110827Y0399945D02*
X0142413Y0399945D01*
X0142413Y0399446D02*
X0111326Y0399446D01*
X0111799Y0398948D02*
X0142413Y0398948D01*
X0142413Y0398449D02*
X0112006Y0398449D01*
X0112212Y0397951D02*
X0142413Y0397951D01*
X0142413Y0397452D02*
X0112215Y0397452D01*
X0112215Y0396954D02*
X0142413Y0396954D01*
X0142413Y0396455D02*
X0112215Y0396455D01*
X0112215Y0395956D02*
X0142413Y0395956D01*
X0142413Y0395458D02*
X0112215Y0395458D01*
X0112215Y0394959D02*
X0142413Y0394959D01*
X0142413Y0394461D02*
X0112215Y0394461D01*
X0112215Y0393962D02*
X0142413Y0393962D01*
X0142413Y0393464D02*
X0112215Y0393464D01*
X0112215Y0392965D02*
X0142413Y0392965D01*
X0142413Y0392467D02*
X0112215Y0392467D01*
X0112215Y0391968D02*
X0142413Y0391968D01*
X0142413Y0391470D02*
X0112215Y0391470D01*
X0112215Y0390971D02*
X0142413Y0390971D01*
X0142413Y0390473D02*
X0112215Y0390473D01*
X0112215Y0389974D02*
X0142413Y0389974D01*
X0142413Y0389476D02*
X0112215Y0389476D01*
X0112215Y0388977D02*
X0142413Y0388977D01*
X0142413Y0388479D02*
X0112215Y0388479D01*
X0112215Y0387980D02*
X0142413Y0387980D01*
X0142413Y0387482D02*
X0112215Y0387482D01*
X0112215Y0386983D02*
X0142413Y0386983D01*
X0142413Y0386485D02*
X0112215Y0386485D01*
X0112215Y0385986D02*
X0142413Y0385986D01*
X0142413Y0385488D02*
X0112215Y0385488D01*
X0112215Y0384989D02*
X0142413Y0384989D01*
X0142413Y0384491D02*
X0112215Y0384491D01*
X0112215Y0383992D02*
X0142413Y0383992D01*
X0142413Y0383494D02*
X0112215Y0383494D01*
X0112215Y0382995D02*
X0142413Y0382995D01*
X0142413Y0382497D02*
X0112215Y0382497D01*
X0112215Y0381998D02*
X0142413Y0381998D01*
X0142413Y0381500D02*
X0112215Y0381500D01*
X0112215Y0381001D02*
X0142413Y0381001D01*
X0142413Y0380503D02*
X0112215Y0380503D01*
X0112215Y0380004D02*
X0142413Y0380004D01*
X0142413Y0379506D02*
X0112215Y0379506D01*
X0112215Y0379007D02*
X0142413Y0379007D01*
X0142413Y0378509D02*
X0112215Y0378509D01*
X0112215Y0378010D02*
X0142413Y0378010D01*
X0142413Y0377512D02*
X0112215Y0377512D01*
X0112215Y0377013D02*
X0142413Y0377013D01*
X0142413Y0376515D02*
X0112215Y0376515D01*
X0112215Y0376016D02*
X0142413Y0376016D01*
X0142413Y0375518D02*
X0112215Y0375518D01*
X0112215Y0375019D02*
X0142413Y0375019D01*
X0142413Y0374520D02*
X0112215Y0374520D01*
X0112215Y0374022D02*
X0142413Y0374022D01*
X0142413Y0373523D02*
X0112215Y0373523D01*
X0112215Y0373025D02*
X0142413Y0373025D01*
X0142413Y0372526D02*
X0112215Y0372526D01*
X0112215Y0372028D02*
X0142413Y0372028D01*
X0142413Y0371529D02*
X0112215Y0371529D01*
X0112215Y0371031D02*
X0142413Y0371031D01*
X0142413Y0370532D02*
X0112215Y0370532D01*
X0112215Y0370034D02*
X0142413Y0370034D01*
X0142413Y0369535D02*
X0112215Y0369535D01*
X0112215Y0369037D02*
X0142413Y0369037D01*
X0142413Y0368538D02*
X0112215Y0368538D01*
X0112215Y0368040D02*
X0142413Y0368040D01*
X0142413Y0367541D02*
X0112215Y0367541D01*
X0112215Y0367043D02*
X0142413Y0367043D01*
X0142413Y0366544D02*
X0112215Y0366544D01*
X0112215Y0366046D02*
X0142413Y0366046D01*
X0142413Y0365547D02*
X0112215Y0365547D01*
X0112215Y0365049D02*
X0142413Y0365049D01*
X0142413Y0364550D02*
X0112215Y0364550D01*
X0112215Y0364052D02*
X0142413Y0364052D01*
X0142413Y0363553D02*
X0112215Y0363553D01*
X0112215Y0363055D02*
X0142413Y0363055D01*
X0142413Y0362556D02*
X0112215Y0362556D01*
X0112215Y0362058D02*
X0142413Y0362058D01*
X0142413Y0361559D02*
X0112215Y0361559D01*
X0112215Y0361061D02*
X0142413Y0361061D01*
X0142413Y0360562D02*
X0112215Y0360562D01*
X0112215Y0360064D02*
X0142413Y0360064D01*
X0142413Y0359565D02*
X0112215Y0359565D01*
X0112215Y0359067D02*
X0142413Y0359067D01*
X0142413Y0358568D02*
X0112215Y0358568D01*
X0112215Y0358070D02*
X0142413Y0358070D01*
X0142413Y0357571D02*
X0112215Y0357571D01*
X0112215Y0357073D02*
X0142413Y0357073D01*
X0142413Y0356574D02*
X0112215Y0356574D01*
X0112215Y0356076D02*
X0142413Y0356076D01*
X0142413Y0355577D02*
X0112215Y0355577D01*
X0112215Y0355079D02*
X0142413Y0355079D01*
X0142413Y0354580D02*
X0112215Y0354580D01*
X0112215Y0354082D02*
X0142413Y0354082D01*
X0142413Y0353583D02*
X0112215Y0353583D01*
X0112215Y0353085D02*
X0142413Y0353085D01*
X0142413Y0352586D02*
X0112215Y0352586D01*
X0112215Y0352087D02*
X0142413Y0352087D01*
X0142413Y0351589D02*
X0112215Y0351589D01*
X0112215Y0351090D02*
X0142413Y0351090D01*
X0142413Y0350592D02*
X0112215Y0350592D01*
X0112215Y0350093D02*
X0142413Y0350093D01*
X0142413Y0349595D02*
X0112215Y0349595D01*
X0112215Y0349096D02*
X0142413Y0349096D01*
X0142413Y0348598D02*
X0112215Y0348598D01*
X0112215Y0348099D02*
X0142413Y0348099D01*
X0142413Y0347601D02*
X0112215Y0347601D01*
X0112215Y0347102D02*
X0142413Y0347102D01*
X0142413Y0346604D02*
X0112215Y0346604D01*
X0112215Y0346105D02*
X0142413Y0346105D01*
X0142413Y0345607D02*
X0112215Y0345607D01*
X0112186Y0345108D02*
X0142413Y0345108D01*
X0142413Y0344610D02*
X0111980Y0344610D01*
X0111762Y0344111D02*
X0142413Y0344111D01*
X0142413Y0343613D02*
X0111264Y0343613D01*
X0110765Y0343114D02*
X0142413Y0343114D01*
X0142413Y0342616D02*
X0110267Y0342616D01*
X0109768Y0342117D02*
X0113786Y0342117D01*
X0117454Y0342117D02*
X0142413Y0342117D01*
X0142413Y0341619D02*
X0118658Y0341619D01*
X0119517Y0341120D02*
X0142413Y0341120D01*
X0142413Y0340622D02*
X0120016Y0340622D01*
X0120514Y0340123D02*
X0142413Y0340123D01*
X0142413Y0339625D02*
X0121013Y0339625D01*
X0121263Y0339126D02*
X0142413Y0339126D01*
X0142413Y0338628D02*
X0121470Y0338628D01*
X0121676Y0338129D02*
X0142413Y0338129D01*
X0142413Y0337631D02*
X0121883Y0337631D01*
X0122070Y0337132D02*
X0142413Y0337132D01*
X0142413Y0336634D02*
X0122070Y0336634D01*
X0122070Y0336135D02*
X0142413Y0336135D01*
X0142413Y0335637D02*
X0122070Y0335637D01*
X0122070Y0335138D02*
X0142413Y0335138D01*
X0142413Y0334640D02*
X0122070Y0334640D01*
X0121875Y0334141D02*
X0142413Y0334141D01*
X0142413Y0333643D02*
X0121668Y0333643D01*
X0121462Y0333144D02*
X0142413Y0333144D01*
X0142413Y0332646D02*
X0121255Y0332646D01*
X0120993Y0332147D02*
X0142413Y0332147D01*
X0142413Y0331649D02*
X0120495Y0331649D01*
X0119996Y0331150D02*
X0142413Y0331150D01*
X0142413Y0330652D02*
X0119498Y0330652D01*
X0118611Y0330153D02*
X0142413Y0330153D01*
X0142413Y0329654D02*
X0117407Y0329654D01*
X0113833Y0329654D02*
X0077516Y0329654D01*
X0077516Y0329156D02*
X0142413Y0329156D01*
X0142413Y0328657D02*
X0077516Y0328657D01*
X0077516Y0328159D02*
X0142413Y0328159D01*
X0142413Y0327660D02*
X0077516Y0327660D01*
X0077516Y0327162D02*
X0142413Y0327162D01*
X0142413Y0326663D02*
X0077516Y0326663D01*
X0077516Y0326165D02*
X0142413Y0326165D01*
X0142413Y0325666D02*
X0077516Y0325666D01*
X0077516Y0325168D02*
X0142413Y0325168D01*
X0142413Y0324669D02*
X0077592Y0324669D01*
X0075835Y0323174D02*
X0061798Y0323174D01*
X0061798Y0323672D02*
X0075337Y0323672D01*
X0075216Y0324171D02*
X0061798Y0324171D01*
X0061798Y0324669D02*
X0075216Y0324669D01*
X0075216Y0325168D02*
X0061798Y0325168D01*
X0061798Y0325666D02*
X0075216Y0325666D01*
X0075216Y0326165D02*
X0061798Y0326165D01*
X0061798Y0326663D02*
X0075216Y0326663D01*
X0075216Y0327162D02*
X0061798Y0327162D01*
X0061798Y0327660D02*
X0075216Y0327660D01*
X0075216Y0328159D02*
X0061798Y0328159D01*
X0061798Y0328657D02*
X0075216Y0328657D01*
X0075216Y0329156D02*
X0061798Y0329156D01*
X0061798Y0329654D02*
X0075216Y0329654D01*
X0075216Y0330153D02*
X0061798Y0330153D01*
X0061798Y0330652D02*
X0075216Y0330652D01*
X0075216Y0331150D02*
X0061798Y0331150D01*
X0061798Y0331649D02*
X0075216Y0331649D01*
X0075216Y0332147D02*
X0061798Y0332147D01*
X0061798Y0332646D02*
X0075216Y0332646D01*
X0075216Y0333144D02*
X0061798Y0333144D01*
X0061798Y0333643D02*
X0075216Y0333643D01*
X0075216Y0334141D02*
X0061798Y0334141D01*
X0061798Y0334640D02*
X0075216Y0334640D01*
X0075216Y0335138D02*
X0061798Y0335138D01*
X0061798Y0335637D02*
X0075216Y0335637D01*
X0075216Y0336135D02*
X0061798Y0336135D01*
X0061798Y0336634D02*
X0075216Y0336634D01*
X0075216Y0337132D02*
X0061798Y0337132D01*
X0061798Y0337631D02*
X0075216Y0337631D01*
X0075216Y0338129D02*
X0061798Y0338129D01*
X0061798Y0338628D02*
X0075216Y0338628D01*
X0075216Y0339126D02*
X0061798Y0339126D01*
X0061798Y0339625D02*
X0075216Y0339625D01*
X0075216Y0340123D02*
X0061798Y0340123D01*
X0061798Y0340622D02*
X0075216Y0340622D01*
X0075216Y0341120D02*
X0061798Y0341120D01*
X0061798Y0341619D02*
X0075216Y0341619D01*
X0075216Y0342117D02*
X0061798Y0342117D01*
X0061798Y0342616D02*
X0075216Y0342616D01*
X0075216Y0343114D02*
X0061798Y0343114D01*
X0061798Y0343613D02*
X0075216Y0343613D01*
X0075216Y0344111D02*
X0061798Y0344111D01*
X0061798Y0344610D02*
X0075216Y0344610D01*
X0075216Y0345108D02*
X0061798Y0345108D01*
X0061798Y0345607D02*
X0075216Y0345607D01*
X0075216Y0346105D02*
X0061798Y0346105D01*
X0061798Y0346604D02*
X0075216Y0346604D01*
X0075216Y0347102D02*
X0061798Y0347102D01*
X0061798Y0347601D02*
X0075216Y0347601D01*
X0075216Y0348099D02*
X0061798Y0348099D01*
X0061798Y0348598D02*
X0075216Y0348598D01*
X0075216Y0349096D02*
X0061798Y0349096D01*
X0061798Y0349595D02*
X0075216Y0349595D01*
X0075216Y0350093D02*
X0061798Y0350093D01*
X0061798Y0350592D02*
X0075216Y0350592D01*
X0075216Y0351090D02*
X0061798Y0351090D01*
X0061798Y0351589D02*
X0075216Y0351589D01*
X0075216Y0352087D02*
X0061798Y0352087D01*
X0061798Y0352586D02*
X0065461Y0352586D01*
X0064624Y0353085D02*
X0061798Y0353085D01*
X0061798Y0353583D02*
X0064126Y0353583D01*
X0063827Y0354082D02*
X0061798Y0354082D01*
X0061798Y0354580D02*
X0063621Y0354580D01*
X0063264Y0355079D02*
X0061798Y0355079D01*
X0061798Y0355577D02*
X0062765Y0355577D01*
X0062267Y0356076D02*
X0061798Y0356076D01*
X0064024Y0357571D02*
X0064118Y0357571D01*
X0063850Y0358070D02*
X0064617Y0358070D01*
X0063850Y0358568D02*
X0065444Y0358568D01*
X0072787Y0352586D02*
X0075216Y0352586D01*
X0075216Y0353085D02*
X0073624Y0353085D01*
X0074123Y0353583D02*
X0075216Y0353583D01*
X0075216Y0354082D02*
X0074421Y0354082D01*
X0074627Y0354580D02*
X0075216Y0354580D01*
X0075216Y0355079D02*
X0074774Y0355079D01*
X0074774Y0355577D02*
X0075216Y0355577D01*
X0075336Y0356076D02*
X0074774Y0356076D01*
X0074630Y0356574D02*
X0075835Y0356574D01*
X0076333Y0357073D02*
X0074424Y0357073D01*
X0077516Y0340622D02*
X0082860Y0340622D01*
X0081657Y0340123D02*
X0077516Y0340123D01*
X0077516Y0339625D02*
X0080994Y0339625D01*
X0080496Y0339126D02*
X0077516Y0339126D01*
X0077516Y0338628D02*
X0080006Y0338628D01*
X0079800Y0338129D02*
X0077516Y0338129D01*
X0077516Y0337631D02*
X0079593Y0337631D01*
X0079387Y0337132D02*
X0077516Y0337132D01*
X0077516Y0336634D02*
X0079274Y0336634D01*
X0079274Y0336135D02*
X0077516Y0336135D01*
X0077516Y0335637D02*
X0079274Y0335637D01*
X0079274Y0335138D02*
X0077516Y0335138D01*
X0077516Y0334640D02*
X0079395Y0334640D01*
X0079601Y0334141D02*
X0077516Y0334141D01*
X0077516Y0333643D02*
X0079808Y0333643D01*
X0080017Y0333144D02*
X0077516Y0333144D01*
X0077516Y0332646D02*
X0080515Y0332646D01*
X0081014Y0332147D02*
X0077516Y0332147D01*
X0077516Y0331649D02*
X0081704Y0331649D01*
X0082907Y0331150D02*
X0077516Y0331150D01*
X0077516Y0330652D02*
X0111743Y0330652D01*
X0111244Y0331150D02*
X0085341Y0331150D01*
X0086544Y0331649D02*
X0110746Y0331649D01*
X0110247Y0332147D02*
X0087234Y0332147D01*
X0087733Y0332646D02*
X0109985Y0332646D01*
X0112629Y0330153D02*
X0077516Y0330153D01*
X0076334Y0322675D02*
X0061798Y0322675D01*
X0061798Y0322177D02*
X0076832Y0322177D01*
X0083696Y0324171D02*
X0142413Y0324171D01*
X0126560Y0417891D02*
X0103323Y0417891D01*
X0103323Y0418389D02*
X0126062Y0418389D01*
X0125563Y0418888D02*
X0103323Y0418888D01*
X0103323Y0419387D02*
X0125206Y0419387D01*
X0125000Y0419885D02*
X0103323Y0419885D01*
X0103323Y0420384D02*
X0124793Y0420384D01*
X0124613Y0420882D02*
X0103323Y0420882D01*
X0100332Y0377013D02*
X0106515Y0377013D01*
X0106515Y0376515D02*
X0101536Y0376515D01*
X0102131Y0376016D02*
X0106515Y0376016D01*
X0106515Y0375518D02*
X0102630Y0375518D01*
X0103042Y0375019D02*
X0106515Y0375019D01*
X0106515Y0374520D02*
X0103249Y0374520D01*
X0103455Y0374022D02*
X0106515Y0374022D01*
X0106515Y0373523D02*
X0103662Y0373523D01*
X0103674Y0373025D02*
X0106515Y0373025D01*
X0106515Y0372526D02*
X0103674Y0372526D01*
X0103674Y0372028D02*
X0106515Y0372028D01*
X0106515Y0371529D02*
X0103610Y0371529D01*
X0103404Y0371031D02*
X0106515Y0371031D01*
X0106515Y0370532D02*
X0103197Y0370532D01*
X0102991Y0370034D02*
X0106515Y0370034D01*
X0106515Y0369535D02*
X0102505Y0369535D01*
X0102007Y0369037D02*
X0106515Y0369037D01*
X0106515Y0368538D02*
X0101236Y0368538D01*
X0101465Y0368040D02*
X0106515Y0368040D01*
X0106515Y0367541D02*
X0102102Y0367541D01*
X0102600Y0367043D02*
X0106515Y0367043D01*
X0106515Y0366544D02*
X0103030Y0366544D01*
X0103237Y0366046D02*
X0106515Y0366046D01*
X0106515Y0365547D02*
X0103443Y0365547D01*
X0103650Y0365049D02*
X0106515Y0365049D01*
X0106515Y0364550D02*
X0103674Y0364550D01*
X0103674Y0364052D02*
X0106515Y0364052D01*
X0106515Y0363553D02*
X0103674Y0363553D01*
X0103622Y0363055D02*
X0106515Y0363055D01*
X0106515Y0362556D02*
X0103416Y0362556D01*
X0103209Y0362058D02*
X0106515Y0362058D01*
X0106515Y0361559D02*
X0103003Y0361559D01*
X0102535Y0361061D02*
X0106515Y0361061D01*
X0106515Y0360562D02*
X0102036Y0360562D01*
X0101306Y0360064D02*
X0106515Y0360064D01*
X0106515Y0359565D02*
X0100103Y0359565D01*
X0098145Y0359565D02*
X0086061Y0359565D01*
X0086061Y0359067D02*
X0106515Y0359067D01*
X0106515Y0358568D02*
X0102804Y0358568D01*
X0103631Y0358070D02*
X0106515Y0358070D01*
X0106515Y0357571D02*
X0104130Y0357571D01*
X0104424Y0357073D02*
X0106515Y0357073D01*
X0106515Y0356574D02*
X0104630Y0356574D01*
X0104774Y0356076D02*
X0106515Y0356076D01*
X0106515Y0355577D02*
X0104774Y0355577D01*
X0104774Y0355079D02*
X0106515Y0355079D01*
X0106515Y0354580D02*
X0104627Y0354580D01*
X0104421Y0354082D02*
X0106515Y0354082D01*
X0106515Y0353583D02*
X0104123Y0353583D01*
X0103624Y0353085D02*
X0106515Y0353085D01*
X0106515Y0352586D02*
X0102787Y0352586D01*
X0079581Y0374022D02*
X0073455Y0374022D01*
X0073249Y0374520D02*
X0079824Y0374520D01*
X0079824Y0375019D02*
X0073042Y0375019D01*
X0072630Y0375518D02*
X0079824Y0375518D01*
X0079824Y0376016D02*
X0072131Y0376016D01*
X0071536Y0376515D02*
X0079824Y0376515D01*
X0079824Y0377013D02*
X0070332Y0377013D01*
X0064995Y0382995D02*
X0079824Y0382995D01*
X0079824Y0382497D02*
X0064497Y0382497D01*
X0056432Y0421381D02*
X0055932Y0421381D01*
X0055932Y0421879D02*
X0056432Y0421879D01*
X0056432Y0422378D02*
X0055932Y0422378D01*
X0055932Y0422876D02*
X0056432Y0422876D01*
X0056432Y0423375D02*
X0055932Y0423375D01*
X0055932Y0423873D02*
X0056432Y0423873D01*
X0056432Y0424372D02*
X0055932Y0424372D01*
X0055932Y0424870D02*
X0056432Y0424870D01*
X0056432Y0426366D02*
X0055932Y0426366D01*
X0055932Y0426864D02*
X0056432Y0426864D01*
X0056432Y0427363D02*
X0055932Y0427363D01*
X0055932Y0427861D02*
X0056432Y0427861D01*
X0056432Y0428360D02*
X0055932Y0428360D01*
X0055932Y0428858D02*
X0056432Y0428858D01*
X0056432Y0429357D02*
X0055932Y0429357D01*
X0055932Y0429855D02*
X0056432Y0429855D01*
X0056432Y0430354D02*
X0055932Y0430354D01*
X0065679Y0466745D02*
X0025047Y0466745D01*
X0025047Y0506127D02*
X0064933Y0506127D01*
X0065084Y0505976D02*
X0066550Y0505976D01*
X0070487Y0505976D01*
X0071524Y0507013D01*
X0071524Y0513597D01*
X0070487Y0514634D01*
X0065084Y0514634D01*
X0064047Y0513597D01*
X0064047Y0507013D01*
X0065084Y0505976D01*
X0064434Y0506626D02*
X0025047Y0506626D01*
X0025047Y0507125D02*
X0064047Y0507125D01*
X0064047Y0507623D02*
X0025047Y0507623D01*
X0025047Y0508122D02*
X0064047Y0508122D01*
X0064047Y0508620D02*
X0025047Y0508620D01*
X0025047Y0509119D02*
X0064047Y0509119D01*
X0064047Y0509617D02*
X0060416Y0509617D01*
X0060853Y0510116D02*
X0064047Y0510116D01*
X0064047Y0510614D02*
X0060975Y0510614D01*
X0060975Y0511113D02*
X0064047Y0511113D01*
X0064047Y0511611D02*
X0060975Y0511611D01*
X0060975Y0512110D02*
X0064047Y0512110D01*
X0064047Y0512608D02*
X0060975Y0512608D01*
X0060975Y0513107D02*
X0064047Y0513107D01*
X0064055Y0513605D02*
X0060975Y0513605D01*
X0060975Y0514602D02*
X0065052Y0514602D01*
X0064554Y0514104D02*
X0056432Y0514104D01*
X0056432Y0513605D02*
X0055932Y0513605D01*
X0055932Y0513107D02*
X0056432Y0513107D01*
X0056432Y0512608D02*
X0055932Y0512608D01*
X0055932Y0512110D02*
X0056432Y0512110D01*
X0056432Y0511611D02*
X0055932Y0511611D01*
X0055932Y0511113D02*
X0056432Y0511113D01*
X0056432Y0510614D02*
X0055932Y0510614D01*
X0055932Y0510116D02*
X0056432Y0510116D01*
X0056432Y0509617D02*
X0055932Y0509617D01*
X0055932Y0514104D02*
X0043670Y0514104D01*
X0044169Y0514602D02*
X0051388Y0514602D01*
X0051388Y0515101D02*
X0044667Y0515101D01*
X0044903Y0515599D02*
X0051388Y0515599D01*
X0051388Y0516098D02*
X0045109Y0516098D01*
X0043789Y0521581D02*
X0043441Y0521581D01*
X0043791Y0522080D02*
X0042243Y0522080D01*
X0043791Y0522578D02*
X0031878Y0522578D01*
X0031110Y0522578D02*
X0030610Y0522578D01*
X0030610Y0522080D02*
X0031110Y0522080D01*
X0031110Y0521581D02*
X0030610Y0521581D01*
X0030610Y0521083D02*
X0031110Y0521083D01*
X0031110Y0520584D02*
X0030610Y0520584D01*
X0030610Y0520086D02*
X0031110Y0520086D01*
X0031110Y0519587D02*
X0030610Y0519587D01*
X0030610Y0519089D02*
X0031110Y0519089D01*
X0031110Y0518590D02*
X0030610Y0518590D01*
X0030610Y0518092D02*
X0031110Y0518092D01*
X0031110Y0517593D02*
X0036310Y0517593D01*
X0036310Y0517095D02*
X0035771Y0517095D01*
X0035692Y0516596D02*
X0036404Y0516596D01*
X0036610Y0516098D02*
X0035535Y0516098D01*
X0035331Y0515599D02*
X0036817Y0515599D01*
X0037052Y0515101D02*
X0035070Y0515101D01*
X0034707Y0514602D02*
X0037551Y0514602D01*
X0038049Y0514104D02*
X0034236Y0514104D01*
X0033607Y0513605D02*
X0038923Y0513605D01*
X0036310Y0518092D02*
X0035810Y0518092D01*
X0035735Y0518590D02*
X0036310Y0518590D01*
X0036499Y0519089D02*
X0035622Y0519089D01*
X0035460Y0519587D02*
X0036705Y0519587D01*
X0036912Y0520086D02*
X0035214Y0520086D01*
X0034903Y0520584D02*
X0037282Y0520584D01*
X0037780Y0521083D02*
X0034505Y0521083D01*
X0033977Y0521581D02*
X0038279Y0521581D01*
X0039477Y0522080D02*
X0033222Y0522080D01*
X0031110Y0517095D02*
X0030610Y0517095D01*
X0030610Y0516596D02*
X0031110Y0516596D01*
X0031110Y0516098D02*
X0030610Y0516098D01*
X0030610Y0515599D02*
X0031110Y0515599D01*
X0031110Y0515101D02*
X0030610Y0515101D01*
X0030610Y0514602D02*
X0031110Y0514602D01*
X0031110Y0514104D02*
X0030610Y0514104D01*
X0030610Y0513605D02*
X0031110Y0513605D01*
X0031110Y0513107D02*
X0030610Y0513107D01*
X0029064Y0513107D02*
X0027409Y0513107D01*
X0027409Y0513605D02*
X0028113Y0513605D01*
X0027484Y0514104D02*
X0027409Y0514104D01*
X0027409Y0512608D02*
X0051388Y0512608D01*
X0051388Y0512110D02*
X0027183Y0512110D01*
X0026684Y0511611D02*
X0051388Y0511611D01*
X0051388Y0511113D02*
X0025047Y0511113D01*
X0025047Y0510614D02*
X0051388Y0510614D01*
X0051510Y0510116D02*
X0025047Y0510116D01*
X0025047Y0509617D02*
X0051948Y0509617D01*
X0051388Y0513107D02*
X0032656Y0513107D01*
X0029842Y0522578D02*
X0027409Y0522578D01*
X0027409Y0522080D02*
X0028498Y0522080D01*
X0027742Y0521581D02*
X0027409Y0521581D01*
X0027409Y0523077D02*
X0043791Y0523077D01*
X0043791Y0523575D02*
X0027409Y0523575D01*
X0027409Y0524074D02*
X0043791Y0524074D01*
X0043791Y0524572D02*
X0027409Y0524572D01*
X0027409Y0525071D02*
X0043791Y0525071D01*
X0043791Y0525569D02*
X0027409Y0525569D01*
X0027409Y0526068D02*
X0043791Y0526068D01*
X0043791Y0526566D02*
X0027409Y0526566D01*
X0027409Y0527065D02*
X0043791Y0527065D01*
X0043791Y0527563D02*
X0027409Y0527563D01*
X0027409Y0528062D02*
X0043791Y0528062D01*
X0043791Y0528560D02*
X0027409Y0528560D01*
X0027409Y0529059D02*
X0043791Y0529059D01*
X0043460Y0529558D02*
X0027741Y0529558D01*
X0028240Y0530056D02*
X0042961Y0530056D01*
X0042463Y0530555D02*
X0028738Y0530555D01*
X0029237Y0531053D02*
X0041964Y0531053D01*
X0041466Y0531552D02*
X0029735Y0531552D01*
X0042796Y0513605D02*
X0051388Y0513605D01*
X0051388Y0516596D02*
X0049347Y0516596D01*
X0049845Y0517095D02*
X0051388Y0517095D01*
X0051388Y0517593D02*
X0050344Y0517593D01*
X0060975Y0517593D02*
X0107891Y0517593D01*
X0107891Y0517095D02*
X0060975Y0517095D01*
X0060975Y0516596D02*
X0107891Y0516596D01*
X0107891Y0516098D02*
X0060975Y0516098D01*
X0060975Y0515599D02*
X0107891Y0515599D01*
X0107891Y0515101D02*
X0060975Y0515101D01*
X0067979Y0490175D02*
X0124879Y0490175D01*
X0125086Y0489677D02*
X0067979Y0489677D01*
X0067979Y0489178D02*
X0125292Y0489178D01*
X0125772Y0488680D02*
X0067979Y0488680D01*
X0067979Y0486187D02*
X0128052Y0486187D01*
X0126849Y0485689D02*
X0067979Y0485689D01*
X0067979Y0485190D02*
X0126196Y0485190D01*
X0125698Y0484691D02*
X0067979Y0484691D01*
X0067979Y0484193D02*
X0125262Y0484193D01*
X0125055Y0483694D02*
X0067979Y0483694D01*
X0067979Y0483196D02*
X0124849Y0483196D01*
X0126921Y0475718D02*
X0082124Y0475718D01*
X0082124Y0475220D02*
X0126226Y0475220D01*
X0125728Y0474721D02*
X0082124Y0474721D01*
X0082124Y0474223D02*
X0125274Y0474223D01*
X0125068Y0473724D02*
X0082124Y0473724D01*
X0082124Y0473226D02*
X0124861Y0473226D01*
X0124655Y0472727D02*
X0082124Y0472727D01*
X0082124Y0472229D02*
X0124613Y0472229D01*
X0124613Y0471730D02*
X0082124Y0471730D01*
X0082124Y0471232D02*
X0124613Y0471232D01*
X0124648Y0470733D02*
X0082124Y0470733D01*
X0082124Y0470235D02*
X0124855Y0470235D01*
X0125061Y0469736D02*
X0082124Y0469736D01*
X0082124Y0469238D02*
X0125268Y0469238D01*
X0125712Y0468739D02*
X0082124Y0468739D01*
X0082124Y0468241D02*
X0126211Y0468241D01*
X0126883Y0467742D02*
X0082124Y0467742D01*
X0082124Y0467244D02*
X0128087Y0467244D01*
X0128258Y0466272D02*
X0126586Y0465580D01*
X0125306Y0464300D01*
X0124613Y0462627D01*
X0124613Y0460817D01*
X0125306Y0459145D01*
X0126586Y0457865D01*
X0128258Y0457172D01*
X0130068Y0457172D01*
X0131741Y0457865D01*
X0133021Y0459145D01*
X0133713Y0460817D01*
X0133713Y0462627D01*
X0133021Y0464300D01*
X0131741Y0465580D01*
X0130068Y0466272D01*
X0128258Y0466272D01*
X0128196Y0466247D02*
X0082124Y0466247D01*
X0082124Y0466745D02*
X0133958Y0466745D01*
X0133958Y0466247D02*
X0130131Y0466247D01*
X0130240Y0467244D02*
X0133958Y0467244D01*
X0133958Y0467742D02*
X0131444Y0467742D01*
X0132116Y0468241D02*
X0133958Y0468241D01*
X0133958Y0468739D02*
X0132615Y0468739D01*
X0133059Y0469238D02*
X0133958Y0469238D01*
X0133958Y0469736D02*
X0133266Y0469736D01*
X0133472Y0470235D02*
X0133861Y0470235D01*
X0133958Y0465748D02*
X0131334Y0465748D01*
X0132071Y0465250D02*
X0133958Y0465250D01*
X0133958Y0464751D02*
X0132569Y0464751D01*
X0133040Y0464253D02*
X0133958Y0464253D01*
X0133958Y0463754D02*
X0133247Y0463754D01*
X0133453Y0463256D02*
X0133958Y0463256D01*
X0133958Y0462757D02*
X0133660Y0462757D01*
X0133713Y0462258D02*
X0133958Y0462258D01*
X0133958Y0461760D02*
X0133713Y0461760D01*
X0133713Y0461261D02*
X0133958Y0461261D01*
X0133958Y0460763D02*
X0133691Y0460763D01*
X0133484Y0460264D02*
X0133958Y0460264D01*
X0133958Y0459766D02*
X0133278Y0459766D01*
X0133071Y0459267D02*
X0133958Y0459267D01*
X0133958Y0458769D02*
X0132645Y0458769D01*
X0132146Y0458270D02*
X0133958Y0458270D01*
X0133958Y0457772D02*
X0131516Y0457772D01*
X0130312Y0457273D02*
X0133958Y0457273D01*
X0133958Y0456775D02*
X0082124Y0456775D01*
X0082124Y0457273D02*
X0128015Y0457273D01*
X0126811Y0457772D02*
X0082124Y0457772D01*
X0082124Y0458270D02*
X0126181Y0458270D01*
X0125682Y0458769D02*
X0082124Y0458769D01*
X0082124Y0459267D02*
X0125255Y0459267D01*
X0125049Y0459766D02*
X0082124Y0459766D01*
X0082124Y0460264D02*
X0124842Y0460264D01*
X0124636Y0460763D02*
X0082124Y0460763D01*
X0082124Y0461261D02*
X0124613Y0461261D01*
X0124613Y0461760D02*
X0082124Y0461760D01*
X0082124Y0462258D02*
X0124613Y0462258D01*
X0124667Y0462757D02*
X0082124Y0462757D01*
X0082124Y0463256D02*
X0124874Y0463256D01*
X0125080Y0463754D02*
X0082124Y0463754D01*
X0082124Y0464253D02*
X0125287Y0464253D01*
X0125757Y0464751D02*
X0082124Y0464751D01*
X0082124Y0465250D02*
X0126256Y0465250D01*
X0126992Y0465748D02*
X0082124Y0465748D01*
X0082124Y0456276D02*
X0133958Y0456276D01*
X0133958Y0455778D02*
X0131262Y0455778D01*
X0132041Y0455279D02*
X0133958Y0455279D01*
X0133958Y0454781D02*
X0132540Y0454781D01*
X0133028Y0454282D02*
X0133958Y0454282D01*
X0133958Y0453784D02*
X0133234Y0453784D01*
X0133441Y0453285D02*
X0133958Y0453285D01*
X0133958Y0452787D02*
X0133647Y0452787D01*
X0133713Y0452288D02*
X0133958Y0452288D01*
X0133958Y0451790D02*
X0133713Y0451790D01*
X0133713Y0451291D02*
X0133958Y0451291D01*
X0133958Y0450793D02*
X0133703Y0450793D01*
X0133497Y0450294D02*
X0133958Y0450294D01*
X0133958Y0449796D02*
X0133290Y0449796D01*
X0133084Y0449297D02*
X0133958Y0449297D01*
X0133958Y0448799D02*
X0132674Y0448799D01*
X0132176Y0448300D02*
X0133810Y0448300D01*
X0133311Y0447802D02*
X0131587Y0447802D01*
X0126286Y0455279D02*
X0082124Y0455279D01*
X0082124Y0454781D02*
X0125787Y0454781D01*
X0125299Y0454282D02*
X0082124Y0454282D01*
X0082124Y0453784D02*
X0125092Y0453784D01*
X0127064Y0455778D02*
X0082124Y0455778D01*
X0081839Y0482199D02*
X0067979Y0482199D01*
X0067979Y0482697D02*
X0082338Y0482697D01*
X0083485Y0507093D02*
X0082304Y0507582D01*
X0081401Y0508486D01*
X0080912Y0509666D01*
X0080912Y0510944D01*
X0081401Y0512125D01*
X0082304Y0513028D01*
X0083485Y0513517D01*
X0084763Y0513517D01*
X0085944Y0513028D01*
X0086847Y0512125D01*
X0087336Y0510944D01*
X0087336Y0509666D01*
X0086847Y0508486D01*
X0085944Y0507582D01*
X0084763Y0507093D01*
X0083485Y0507093D01*
X0083409Y0507125D02*
X0076965Y0507125D01*
X0076889Y0507093D02*
X0078070Y0507582D01*
X0078973Y0508486D01*
X0079462Y0509666D01*
X0079462Y0510944D01*
X0078973Y0512125D01*
X0078070Y0513028D01*
X0076889Y0513517D01*
X0075611Y0513517D01*
X0074430Y0513028D01*
X0073527Y0512125D01*
X0073038Y0510944D01*
X0073038Y0509666D01*
X0073527Y0508486D01*
X0074430Y0507582D01*
X0075611Y0507093D01*
X0076889Y0507093D01*
X0078111Y0507623D02*
X0082263Y0507623D01*
X0081765Y0508122D02*
X0078609Y0508122D01*
X0079029Y0508620D02*
X0081345Y0508620D01*
X0081139Y0509119D02*
X0079235Y0509119D01*
X0079442Y0509617D02*
X0080932Y0509617D01*
X0080912Y0510116D02*
X0079462Y0510116D01*
X0079462Y0510614D02*
X0080912Y0510614D01*
X0080982Y0511113D02*
X0079392Y0511113D01*
X0079186Y0511611D02*
X0081188Y0511611D01*
X0081395Y0512110D02*
X0078979Y0512110D01*
X0078490Y0512608D02*
X0081884Y0512608D01*
X0082494Y0513107D02*
X0077880Y0513107D01*
X0074620Y0513107D02*
X0071524Y0513107D01*
X0071516Y0513605D02*
X0096732Y0513605D01*
X0096724Y0513107D02*
X0093628Y0513107D01*
X0093818Y0513028D02*
X0092637Y0513517D01*
X0091359Y0513517D01*
X0090178Y0513028D01*
X0089275Y0512125D01*
X0088786Y0510944D01*
X0088786Y0509666D01*
X0089275Y0508486D01*
X0090178Y0507582D01*
X0091359Y0507093D01*
X0092637Y0507093D01*
X0093818Y0507582D01*
X0094721Y0508486D01*
X0095210Y0509666D01*
X0095210Y0510944D01*
X0094721Y0512125D01*
X0093818Y0513028D01*
X0094238Y0512608D02*
X0096724Y0512608D01*
X0096724Y0512110D02*
X0094727Y0512110D01*
X0094934Y0511611D02*
X0096724Y0511611D01*
X0096724Y0511113D02*
X0095140Y0511113D01*
X0095210Y0510614D02*
X0096724Y0510614D01*
X0096724Y0510116D02*
X0095210Y0510116D01*
X0095190Y0509617D02*
X0096724Y0509617D01*
X0096724Y0509119D02*
X0094983Y0509119D01*
X0094777Y0508620D02*
X0096724Y0508620D01*
X0096724Y0508122D02*
X0094357Y0508122D01*
X0093859Y0507623D02*
X0096724Y0507623D01*
X0096724Y0507125D02*
X0092713Y0507125D01*
X0091283Y0507125D02*
X0084839Y0507125D01*
X0085985Y0507623D02*
X0090137Y0507623D01*
X0089639Y0508122D02*
X0086483Y0508122D01*
X0086903Y0508620D02*
X0089219Y0508620D01*
X0089013Y0509119D02*
X0087109Y0509119D01*
X0087316Y0509617D02*
X0088806Y0509617D01*
X0088786Y0510116D02*
X0087336Y0510116D01*
X0087336Y0510614D02*
X0088786Y0510614D01*
X0088856Y0511113D02*
X0087266Y0511113D01*
X0087060Y0511611D02*
X0089062Y0511611D01*
X0089269Y0512110D02*
X0086853Y0512110D01*
X0086364Y0512608D02*
X0089758Y0512608D01*
X0090368Y0513107D02*
X0085754Y0513107D01*
X0097231Y0514104D02*
X0071017Y0514104D01*
X0070519Y0514602D02*
X0097729Y0514602D01*
X0097111Y0506626D02*
X0071137Y0506626D01*
X0071524Y0507125D02*
X0075535Y0507125D01*
X0074389Y0507623D02*
X0071524Y0507623D01*
X0071524Y0508122D02*
X0073891Y0508122D01*
X0073471Y0508620D02*
X0071524Y0508620D01*
X0071524Y0509119D02*
X0073265Y0509119D01*
X0073058Y0509617D02*
X0071524Y0509617D01*
X0071524Y0510116D02*
X0073038Y0510116D01*
X0073038Y0510614D02*
X0071524Y0510614D01*
X0071524Y0511113D02*
X0073108Y0511113D01*
X0073314Y0511611D02*
X0071524Y0511611D01*
X0071524Y0512110D02*
X0073521Y0512110D01*
X0074010Y0512608D02*
X0071524Y0512608D01*
X0070638Y0506127D02*
X0097610Y0506127D01*
X0104201Y0510116D02*
X0108085Y0510116D01*
X0107891Y0510614D02*
X0104201Y0510614D01*
X0104201Y0511113D02*
X0107891Y0511113D01*
X0107891Y0511611D02*
X0104201Y0511611D01*
X0104201Y0512110D02*
X0107891Y0512110D01*
X0107891Y0512608D02*
X0104201Y0512608D01*
X0104201Y0513107D02*
X0107891Y0513107D01*
X0107891Y0513605D02*
X0104193Y0513605D01*
X0103694Y0514104D02*
X0107891Y0514104D01*
X0107891Y0514602D02*
X0103196Y0514602D01*
X0124459Y0520584D02*
X0140051Y0520584D01*
X0140051Y0520086D02*
X0129041Y0520086D01*
X0129539Y0519587D02*
X0140051Y0519587D01*
X0140051Y0519089D02*
X0130038Y0519089D01*
X0130313Y0518590D02*
X0140051Y0518590D01*
X0140051Y0518092D02*
X0130313Y0518092D01*
X0126284Y0531053D02*
X0138224Y0531053D01*
X0138723Y0530555D02*
X0125785Y0530555D01*
X0125287Y0530056D02*
X0139221Y0530056D01*
X0139720Y0529558D02*
X0124788Y0529558D01*
X0124457Y0529059D02*
X0140051Y0529059D01*
X0140051Y0528560D02*
X0124457Y0528560D01*
X0124457Y0528062D02*
X0140051Y0528062D01*
X0140051Y0527563D02*
X0124457Y0527563D01*
X0124457Y0527065D02*
X0140051Y0527065D01*
X0140051Y0526566D02*
X0124457Y0526566D01*
X0124457Y0526068D02*
X0140051Y0526068D01*
X0140051Y0525569D02*
X0124457Y0525569D01*
X0124457Y0525071D02*
X0140051Y0525071D01*
X0140051Y0524572D02*
X0124457Y0524572D01*
X0124457Y0524074D02*
X0140051Y0524074D01*
X0140051Y0523575D02*
X0124457Y0523575D01*
X0124457Y0523077D02*
X0140051Y0523077D01*
X0140051Y0522578D02*
X0124457Y0522578D01*
X0124457Y0522080D02*
X0140051Y0522080D01*
X0140051Y0521581D02*
X0124459Y0521581D01*
X0124459Y0521083D02*
X0140051Y0521083D01*
X0137726Y0531552D02*
X0126782Y0531552D01*
D19*
X0100473Y0426016D02*
X0100473Y0406268D01*
X0109365Y0397376D01*
X0109365Y0345745D01*
X0108111Y0344490D01*
X0092719Y0344490D01*
X0084124Y0335896D01*
X0066479Y0391106D02*
X0060620Y0391106D01*
X0058948Y0389433D01*
X0058948Y0311859D01*
X0062928Y0307879D01*
X0062928Y0299346D01*
X0058948Y0295366D01*
X0058948Y0056230D01*
X0061458Y0053720D01*
X0083838Y0053720D01*
X0084124Y0054006D01*
X0066479Y0391106D02*
X0067993Y0392619D01*
X0067993Y0426016D01*
M02*
