G75*
%MOIN*%
%OFA0B0*%
%FSLAX25Y25*%
%IPPOS*%
%LPD*%
%AMOC8*
5,1,8,0,0,1.08239X$1,22.5*
%
%ADD10C,0.08062*%
%ADD11C,0.08246*%
%ADD12C,0.14200*%
%ADD13C,0.08600*%
%ADD14C,0.10000*%
%ADD15C,0.05324*%
%ADD16R,0.05748X0.06929*%
%ADD17C,0.08000*%
%ADD18R,0.08000X0.08000*%
%ADD19C,0.05400*%
%ADD20R,0.07687X0.07687*%
D10*
X0069124Y0364085D03*
X0069124Y0372589D03*
D11*
X0099124Y0372589D03*
X0099124Y0364085D03*
D12*
X0052628Y0303612D03*
X0115620Y0086289D03*
D13*
X0084124Y0054006D03*
X0084124Y0335896D03*
D14*
X0115620Y0335896D03*
D15*
X0091998Y0510305D03*
X0084124Y0510305D03*
X0076250Y0510305D03*
D16*
X0067785Y0510305D03*
X0100465Y0510309D03*
D17*
X0074124Y0083140D03*
X0084124Y0083140D03*
X0094124Y0083140D03*
X0110241Y0137793D03*
X0110241Y0147793D03*
X0110241Y0157793D03*
X0129163Y0421722D03*
X0129163Y0431722D03*
X0129163Y0441722D03*
X0129163Y0451722D03*
X0129163Y0461722D03*
X0129163Y0471722D03*
X0129163Y0481722D03*
X0129163Y0491722D03*
X0040860Y0517728D03*
X0030860Y0517728D03*
X0039163Y0491722D03*
X0039163Y0481722D03*
X0039163Y0471722D03*
X0039163Y0461722D03*
X0039163Y0451722D03*
X0039163Y0441722D03*
X0039163Y0431722D03*
D18*
X0039163Y0421722D03*
X0110241Y0167793D03*
D19*
X0101524Y0355581D02*
X0096724Y0355581D01*
X0071524Y0355581D02*
X0066724Y0355581D01*
D20*
X0067993Y0426016D03*
X0056182Y0426016D03*
X0056182Y0514205D03*
X0100473Y0426016D03*
X0112284Y0426016D03*
X0112284Y0514205D03*
M02*
