%
M48
M72
T01C0.0315
T02C0.0320
T03C0.0354
T04C0.0394
T05C0.0400
T06C0.0470
T07C0.0940
T08C0.1360
%
T01
X9200Y51031
X8412Y51031
X7625Y51031
T02
X7412Y8314
X8412Y8314
X9412Y8314
X9912Y35558
X6912Y35558
T03
X6912Y37259
X6912Y36408
X9912Y36408
X9912Y37259
T04
X10047Y42602
X11228Y42602
X11228Y51420
X5618Y51420
X5618Y42602
X6799Y42602
T05
X12916Y49172
X12916Y48172
X12916Y47172
X12916Y46172
X12916Y45172
X12916Y44172
X12916Y43172
X12916Y42172
X11024Y16779
X11024Y15779
X11024Y14779
X11024Y13779
X3916Y42172
X3916Y43172
X3916Y44172
X3916Y45172
X3916Y46172
X3916Y47172
X3916Y48172
X3916Y49172
X4086Y51773
X3086Y51773
T06
X8412Y33590
X8412Y5401
T07
X11562Y33590
T08
X5263Y30361
X11562Y8629
M30
