G75*
%MOIN*%
%OFA0B0*%
%FSLAX25Y25*%
%IPPOS*%
%LPD*%
%AMOC8*
5,1,8,0,0,1.08239X$1,22.5*
%
%ADD10C,0.00000*%
%ADD11C,0.00039*%
%ADD12C,0.00004*%
D10*
X0024675Y0048494D02*
X0023297Y0049872D01*
X0023297Y0513061D01*
X0025659Y0513061D01*
X0025659Y0529951D01*
X0029400Y0533691D01*
X0041801Y0533691D01*
X0045541Y0529951D01*
X0045541Y0520935D01*
X0045828Y0303612D02*
X0045830Y0303779D01*
X0045836Y0303946D01*
X0045846Y0304112D01*
X0045861Y0304279D01*
X0045879Y0304444D01*
X0045902Y0304610D01*
X0045928Y0304775D01*
X0045959Y0304939D01*
X0045993Y0305102D01*
X0046032Y0305264D01*
X0046074Y0305426D01*
X0046121Y0305586D01*
X0046171Y0305745D01*
X0046226Y0305903D01*
X0046284Y0306059D01*
X0046346Y0306214D01*
X0046411Y0306368D01*
X0046481Y0306519D01*
X0046554Y0306669D01*
X0046631Y0306817D01*
X0046711Y0306964D01*
X0046795Y0307108D01*
X0046883Y0307250D01*
X0046974Y0307390D01*
X0047068Y0307527D01*
X0047166Y0307663D01*
X0047267Y0307796D01*
X0047372Y0307926D01*
X0047479Y0308054D01*
X0047590Y0308179D01*
X0047703Y0308301D01*
X0047820Y0308420D01*
X0047939Y0308537D01*
X0048061Y0308650D01*
X0048186Y0308761D01*
X0048314Y0308868D01*
X0048444Y0308973D01*
X0048577Y0309074D01*
X0048713Y0309172D01*
X0048850Y0309266D01*
X0048990Y0309357D01*
X0049132Y0309445D01*
X0049276Y0309529D01*
X0049423Y0309609D01*
X0049571Y0309686D01*
X0049721Y0309759D01*
X0049872Y0309829D01*
X0050026Y0309894D01*
X0050181Y0309956D01*
X0050337Y0310014D01*
X0050495Y0310069D01*
X0050654Y0310119D01*
X0050814Y0310166D01*
X0050976Y0310208D01*
X0051138Y0310247D01*
X0051301Y0310281D01*
X0051465Y0310312D01*
X0051630Y0310338D01*
X0051796Y0310361D01*
X0051961Y0310379D01*
X0052128Y0310394D01*
X0052294Y0310404D01*
X0052461Y0310410D01*
X0052628Y0310412D01*
X0052795Y0310410D01*
X0052962Y0310404D01*
X0053128Y0310394D01*
X0053295Y0310379D01*
X0053460Y0310361D01*
X0053626Y0310338D01*
X0053791Y0310312D01*
X0053955Y0310281D01*
X0054118Y0310247D01*
X0054280Y0310208D01*
X0054442Y0310166D01*
X0054602Y0310119D01*
X0054761Y0310069D01*
X0054919Y0310014D01*
X0055075Y0309956D01*
X0055230Y0309894D01*
X0055384Y0309829D01*
X0055535Y0309759D01*
X0055685Y0309686D01*
X0055833Y0309609D01*
X0055980Y0309529D01*
X0056124Y0309445D01*
X0056266Y0309357D01*
X0056406Y0309266D01*
X0056543Y0309172D01*
X0056679Y0309074D01*
X0056812Y0308973D01*
X0056942Y0308868D01*
X0057070Y0308761D01*
X0057195Y0308650D01*
X0057317Y0308537D01*
X0057436Y0308420D01*
X0057553Y0308301D01*
X0057666Y0308179D01*
X0057777Y0308054D01*
X0057884Y0307926D01*
X0057989Y0307796D01*
X0058090Y0307663D01*
X0058188Y0307527D01*
X0058282Y0307390D01*
X0058373Y0307250D01*
X0058461Y0307108D01*
X0058545Y0306964D01*
X0058625Y0306817D01*
X0058702Y0306669D01*
X0058775Y0306519D01*
X0058845Y0306368D01*
X0058910Y0306214D01*
X0058972Y0306059D01*
X0059030Y0305903D01*
X0059085Y0305745D01*
X0059135Y0305586D01*
X0059182Y0305426D01*
X0059224Y0305264D01*
X0059263Y0305102D01*
X0059297Y0304939D01*
X0059328Y0304775D01*
X0059354Y0304610D01*
X0059377Y0304444D01*
X0059395Y0304279D01*
X0059410Y0304112D01*
X0059420Y0303946D01*
X0059426Y0303779D01*
X0059428Y0303612D01*
X0059426Y0303445D01*
X0059420Y0303278D01*
X0059410Y0303112D01*
X0059395Y0302945D01*
X0059377Y0302780D01*
X0059354Y0302614D01*
X0059328Y0302449D01*
X0059297Y0302285D01*
X0059263Y0302122D01*
X0059224Y0301960D01*
X0059182Y0301798D01*
X0059135Y0301638D01*
X0059085Y0301479D01*
X0059030Y0301321D01*
X0058972Y0301165D01*
X0058910Y0301010D01*
X0058845Y0300856D01*
X0058775Y0300705D01*
X0058702Y0300555D01*
X0058625Y0300407D01*
X0058545Y0300260D01*
X0058461Y0300116D01*
X0058373Y0299974D01*
X0058282Y0299834D01*
X0058188Y0299697D01*
X0058090Y0299561D01*
X0057989Y0299428D01*
X0057884Y0299298D01*
X0057777Y0299170D01*
X0057666Y0299045D01*
X0057553Y0298923D01*
X0057436Y0298804D01*
X0057317Y0298687D01*
X0057195Y0298574D01*
X0057070Y0298463D01*
X0056942Y0298356D01*
X0056812Y0298251D01*
X0056679Y0298150D01*
X0056543Y0298052D01*
X0056406Y0297958D01*
X0056266Y0297867D01*
X0056124Y0297779D01*
X0055980Y0297695D01*
X0055833Y0297615D01*
X0055685Y0297538D01*
X0055535Y0297465D01*
X0055384Y0297395D01*
X0055230Y0297330D01*
X0055075Y0297268D01*
X0054919Y0297210D01*
X0054761Y0297155D01*
X0054602Y0297105D01*
X0054442Y0297058D01*
X0054280Y0297016D01*
X0054118Y0296977D01*
X0053955Y0296943D01*
X0053791Y0296912D01*
X0053626Y0296886D01*
X0053460Y0296863D01*
X0053295Y0296845D01*
X0053128Y0296830D01*
X0052962Y0296820D01*
X0052795Y0296814D01*
X0052628Y0296812D01*
X0052461Y0296814D01*
X0052294Y0296820D01*
X0052128Y0296830D01*
X0051961Y0296845D01*
X0051796Y0296863D01*
X0051630Y0296886D01*
X0051465Y0296912D01*
X0051301Y0296943D01*
X0051138Y0296977D01*
X0050976Y0297016D01*
X0050814Y0297058D01*
X0050654Y0297105D01*
X0050495Y0297155D01*
X0050337Y0297210D01*
X0050181Y0297268D01*
X0050026Y0297330D01*
X0049872Y0297395D01*
X0049721Y0297465D01*
X0049571Y0297538D01*
X0049423Y0297615D01*
X0049276Y0297695D01*
X0049132Y0297779D01*
X0048990Y0297867D01*
X0048850Y0297958D01*
X0048713Y0298052D01*
X0048577Y0298150D01*
X0048444Y0298251D01*
X0048314Y0298356D01*
X0048186Y0298463D01*
X0048061Y0298574D01*
X0047939Y0298687D01*
X0047820Y0298804D01*
X0047703Y0298923D01*
X0047590Y0299045D01*
X0047479Y0299170D01*
X0047372Y0299298D01*
X0047267Y0299428D01*
X0047166Y0299561D01*
X0047068Y0299697D01*
X0046974Y0299834D01*
X0046883Y0299974D01*
X0046795Y0300116D01*
X0046711Y0300260D01*
X0046631Y0300407D01*
X0046554Y0300555D01*
X0046481Y0300705D01*
X0046411Y0300856D01*
X0046346Y0301010D01*
X0046284Y0301165D01*
X0046226Y0301321D01*
X0046171Y0301479D01*
X0046121Y0301638D01*
X0046074Y0301798D01*
X0046032Y0301960D01*
X0045993Y0302122D01*
X0045959Y0302285D01*
X0045928Y0302449D01*
X0045902Y0302614D01*
X0045879Y0302780D01*
X0045861Y0302945D01*
X0045846Y0303112D01*
X0045836Y0303278D01*
X0045830Y0303445D01*
X0045828Y0303612D01*
X0110920Y0335896D02*
X0110922Y0336033D01*
X0110928Y0336169D01*
X0110938Y0336306D01*
X0110952Y0336442D01*
X0110970Y0336577D01*
X0110991Y0336712D01*
X0111017Y0336846D01*
X0111047Y0336980D01*
X0111080Y0337112D01*
X0111117Y0337244D01*
X0111159Y0337374D01*
X0111203Y0337503D01*
X0111252Y0337631D01*
X0111304Y0337758D01*
X0111360Y0337882D01*
X0111420Y0338005D01*
X0111483Y0338127D01*
X0111550Y0338246D01*
X0111620Y0338363D01*
X0111693Y0338479D01*
X0111770Y0338592D01*
X0111850Y0338703D01*
X0111933Y0338811D01*
X0112020Y0338917D01*
X0112109Y0339021D01*
X0112201Y0339121D01*
X0112297Y0339219D01*
X0112395Y0339315D01*
X0112495Y0339407D01*
X0112599Y0339496D01*
X0112705Y0339583D01*
X0112813Y0339666D01*
X0112924Y0339746D01*
X0113037Y0339823D01*
X0113153Y0339896D01*
X0113270Y0339966D01*
X0113389Y0340033D01*
X0113511Y0340096D01*
X0113634Y0340156D01*
X0113758Y0340212D01*
X0113885Y0340264D01*
X0114013Y0340313D01*
X0114142Y0340357D01*
X0114272Y0340399D01*
X0114404Y0340436D01*
X0114536Y0340469D01*
X0114670Y0340499D01*
X0114804Y0340525D01*
X0114939Y0340546D01*
X0115074Y0340564D01*
X0115210Y0340578D01*
X0115347Y0340588D01*
X0115483Y0340594D01*
X0115620Y0340596D01*
X0115757Y0340594D01*
X0115893Y0340588D01*
X0116030Y0340578D01*
X0116166Y0340564D01*
X0116301Y0340546D01*
X0116436Y0340525D01*
X0116570Y0340499D01*
X0116704Y0340469D01*
X0116836Y0340436D01*
X0116968Y0340399D01*
X0117098Y0340357D01*
X0117227Y0340313D01*
X0117355Y0340264D01*
X0117482Y0340212D01*
X0117606Y0340156D01*
X0117729Y0340096D01*
X0117851Y0340033D01*
X0117970Y0339966D01*
X0118087Y0339896D01*
X0118203Y0339823D01*
X0118316Y0339746D01*
X0118427Y0339666D01*
X0118535Y0339583D01*
X0118641Y0339496D01*
X0118745Y0339407D01*
X0118845Y0339315D01*
X0118943Y0339219D01*
X0119039Y0339121D01*
X0119131Y0339021D01*
X0119220Y0338917D01*
X0119307Y0338811D01*
X0119390Y0338703D01*
X0119470Y0338592D01*
X0119547Y0338479D01*
X0119620Y0338363D01*
X0119690Y0338246D01*
X0119757Y0338127D01*
X0119820Y0338005D01*
X0119880Y0337882D01*
X0119936Y0337758D01*
X0119988Y0337631D01*
X0120037Y0337503D01*
X0120081Y0337374D01*
X0120123Y0337244D01*
X0120160Y0337112D01*
X0120193Y0336980D01*
X0120223Y0336846D01*
X0120249Y0336712D01*
X0120270Y0336577D01*
X0120288Y0336442D01*
X0120302Y0336306D01*
X0120312Y0336169D01*
X0120318Y0336033D01*
X0120320Y0335896D01*
X0120318Y0335759D01*
X0120312Y0335623D01*
X0120302Y0335486D01*
X0120288Y0335350D01*
X0120270Y0335215D01*
X0120249Y0335080D01*
X0120223Y0334946D01*
X0120193Y0334812D01*
X0120160Y0334680D01*
X0120123Y0334548D01*
X0120081Y0334418D01*
X0120037Y0334289D01*
X0119988Y0334161D01*
X0119936Y0334034D01*
X0119880Y0333910D01*
X0119820Y0333787D01*
X0119757Y0333665D01*
X0119690Y0333546D01*
X0119620Y0333429D01*
X0119547Y0333313D01*
X0119470Y0333200D01*
X0119390Y0333089D01*
X0119307Y0332981D01*
X0119220Y0332875D01*
X0119131Y0332771D01*
X0119039Y0332671D01*
X0118943Y0332573D01*
X0118845Y0332477D01*
X0118745Y0332385D01*
X0118641Y0332296D01*
X0118535Y0332209D01*
X0118427Y0332126D01*
X0118316Y0332046D01*
X0118203Y0331969D01*
X0118087Y0331896D01*
X0117970Y0331826D01*
X0117851Y0331759D01*
X0117729Y0331696D01*
X0117606Y0331636D01*
X0117482Y0331580D01*
X0117355Y0331528D01*
X0117227Y0331479D01*
X0117098Y0331435D01*
X0116968Y0331393D01*
X0116836Y0331356D01*
X0116704Y0331323D01*
X0116570Y0331293D01*
X0116436Y0331267D01*
X0116301Y0331246D01*
X0116166Y0331228D01*
X0116030Y0331214D01*
X0115893Y0331204D01*
X0115757Y0331198D01*
X0115620Y0331196D01*
X0115483Y0331198D01*
X0115347Y0331204D01*
X0115210Y0331214D01*
X0115074Y0331228D01*
X0114939Y0331246D01*
X0114804Y0331267D01*
X0114670Y0331293D01*
X0114536Y0331323D01*
X0114404Y0331356D01*
X0114272Y0331393D01*
X0114142Y0331435D01*
X0114013Y0331479D01*
X0113885Y0331528D01*
X0113758Y0331580D01*
X0113634Y0331636D01*
X0113511Y0331696D01*
X0113389Y0331759D01*
X0113270Y0331826D01*
X0113153Y0331896D01*
X0113037Y0331969D01*
X0112924Y0332046D01*
X0112813Y0332126D01*
X0112705Y0332209D01*
X0112599Y0332296D01*
X0112495Y0332385D01*
X0112395Y0332477D01*
X0112297Y0332573D01*
X0112201Y0332671D01*
X0112109Y0332771D01*
X0112020Y0332875D01*
X0111933Y0332981D01*
X0111850Y0333089D01*
X0111770Y0333200D01*
X0111693Y0333313D01*
X0111620Y0333429D01*
X0111550Y0333546D01*
X0111483Y0333665D01*
X0111420Y0333787D01*
X0111360Y0333910D01*
X0111304Y0334034D01*
X0111252Y0334161D01*
X0111203Y0334289D01*
X0111159Y0334418D01*
X0111117Y0334548D01*
X0111080Y0334680D01*
X0111047Y0334812D01*
X0111017Y0334946D01*
X0110991Y0335080D01*
X0110970Y0335215D01*
X0110952Y0335350D01*
X0110938Y0335486D01*
X0110928Y0335623D01*
X0110922Y0335759D01*
X0110920Y0335896D01*
X0141801Y0513061D02*
X0141801Y0529951D01*
X0138061Y0533691D01*
X0126447Y0533691D01*
X0122707Y0529951D01*
X0122707Y0520935D01*
X0141801Y0513061D02*
X0144163Y0513061D01*
X0144163Y0049872D01*
X0142785Y0048494D01*
X0024675Y0048494D01*
X0108820Y0086289D02*
X0108822Y0086456D01*
X0108828Y0086623D01*
X0108838Y0086789D01*
X0108853Y0086956D01*
X0108871Y0087121D01*
X0108894Y0087287D01*
X0108920Y0087452D01*
X0108951Y0087616D01*
X0108985Y0087779D01*
X0109024Y0087941D01*
X0109066Y0088103D01*
X0109113Y0088263D01*
X0109163Y0088422D01*
X0109218Y0088580D01*
X0109276Y0088736D01*
X0109338Y0088891D01*
X0109403Y0089045D01*
X0109473Y0089196D01*
X0109546Y0089346D01*
X0109623Y0089494D01*
X0109703Y0089641D01*
X0109787Y0089785D01*
X0109875Y0089927D01*
X0109966Y0090067D01*
X0110060Y0090204D01*
X0110158Y0090340D01*
X0110259Y0090473D01*
X0110364Y0090603D01*
X0110471Y0090731D01*
X0110582Y0090856D01*
X0110695Y0090978D01*
X0110812Y0091097D01*
X0110931Y0091214D01*
X0111053Y0091327D01*
X0111178Y0091438D01*
X0111306Y0091545D01*
X0111436Y0091650D01*
X0111569Y0091751D01*
X0111705Y0091849D01*
X0111842Y0091943D01*
X0111982Y0092034D01*
X0112124Y0092122D01*
X0112268Y0092206D01*
X0112415Y0092286D01*
X0112563Y0092363D01*
X0112713Y0092436D01*
X0112864Y0092506D01*
X0113018Y0092571D01*
X0113173Y0092633D01*
X0113329Y0092691D01*
X0113487Y0092746D01*
X0113646Y0092796D01*
X0113806Y0092843D01*
X0113968Y0092885D01*
X0114130Y0092924D01*
X0114293Y0092958D01*
X0114457Y0092989D01*
X0114622Y0093015D01*
X0114788Y0093038D01*
X0114953Y0093056D01*
X0115120Y0093071D01*
X0115286Y0093081D01*
X0115453Y0093087D01*
X0115620Y0093089D01*
X0115787Y0093087D01*
X0115954Y0093081D01*
X0116120Y0093071D01*
X0116287Y0093056D01*
X0116452Y0093038D01*
X0116618Y0093015D01*
X0116783Y0092989D01*
X0116947Y0092958D01*
X0117110Y0092924D01*
X0117272Y0092885D01*
X0117434Y0092843D01*
X0117594Y0092796D01*
X0117753Y0092746D01*
X0117911Y0092691D01*
X0118067Y0092633D01*
X0118222Y0092571D01*
X0118376Y0092506D01*
X0118527Y0092436D01*
X0118677Y0092363D01*
X0118825Y0092286D01*
X0118972Y0092206D01*
X0119116Y0092122D01*
X0119258Y0092034D01*
X0119398Y0091943D01*
X0119535Y0091849D01*
X0119671Y0091751D01*
X0119804Y0091650D01*
X0119934Y0091545D01*
X0120062Y0091438D01*
X0120187Y0091327D01*
X0120309Y0091214D01*
X0120428Y0091097D01*
X0120545Y0090978D01*
X0120658Y0090856D01*
X0120769Y0090731D01*
X0120876Y0090603D01*
X0120981Y0090473D01*
X0121082Y0090340D01*
X0121180Y0090204D01*
X0121274Y0090067D01*
X0121365Y0089927D01*
X0121453Y0089785D01*
X0121537Y0089641D01*
X0121617Y0089494D01*
X0121694Y0089346D01*
X0121767Y0089196D01*
X0121837Y0089045D01*
X0121902Y0088891D01*
X0121964Y0088736D01*
X0122022Y0088580D01*
X0122077Y0088422D01*
X0122127Y0088263D01*
X0122174Y0088103D01*
X0122216Y0087941D01*
X0122255Y0087779D01*
X0122289Y0087616D01*
X0122320Y0087452D01*
X0122346Y0087287D01*
X0122369Y0087121D01*
X0122387Y0086956D01*
X0122402Y0086789D01*
X0122412Y0086623D01*
X0122418Y0086456D01*
X0122420Y0086289D01*
X0122418Y0086122D01*
X0122412Y0085955D01*
X0122402Y0085789D01*
X0122387Y0085622D01*
X0122369Y0085457D01*
X0122346Y0085291D01*
X0122320Y0085126D01*
X0122289Y0084962D01*
X0122255Y0084799D01*
X0122216Y0084637D01*
X0122174Y0084475D01*
X0122127Y0084315D01*
X0122077Y0084156D01*
X0122022Y0083998D01*
X0121964Y0083842D01*
X0121902Y0083687D01*
X0121837Y0083533D01*
X0121767Y0083382D01*
X0121694Y0083232D01*
X0121617Y0083084D01*
X0121537Y0082937D01*
X0121453Y0082793D01*
X0121365Y0082651D01*
X0121274Y0082511D01*
X0121180Y0082374D01*
X0121082Y0082238D01*
X0120981Y0082105D01*
X0120876Y0081975D01*
X0120769Y0081847D01*
X0120658Y0081722D01*
X0120545Y0081600D01*
X0120428Y0081481D01*
X0120309Y0081364D01*
X0120187Y0081251D01*
X0120062Y0081140D01*
X0119934Y0081033D01*
X0119804Y0080928D01*
X0119671Y0080827D01*
X0119535Y0080729D01*
X0119398Y0080635D01*
X0119258Y0080544D01*
X0119116Y0080456D01*
X0118972Y0080372D01*
X0118825Y0080292D01*
X0118677Y0080215D01*
X0118527Y0080142D01*
X0118376Y0080072D01*
X0118222Y0080007D01*
X0118067Y0079945D01*
X0117911Y0079887D01*
X0117753Y0079832D01*
X0117594Y0079782D01*
X0117434Y0079735D01*
X0117272Y0079693D01*
X0117110Y0079654D01*
X0116947Y0079620D01*
X0116783Y0079589D01*
X0116618Y0079563D01*
X0116452Y0079540D01*
X0116287Y0079522D01*
X0116120Y0079507D01*
X0115954Y0079497D01*
X0115787Y0079491D01*
X0115620Y0079489D01*
X0115453Y0079491D01*
X0115286Y0079497D01*
X0115120Y0079507D01*
X0114953Y0079522D01*
X0114788Y0079540D01*
X0114622Y0079563D01*
X0114457Y0079589D01*
X0114293Y0079620D01*
X0114130Y0079654D01*
X0113968Y0079693D01*
X0113806Y0079735D01*
X0113646Y0079782D01*
X0113487Y0079832D01*
X0113329Y0079887D01*
X0113173Y0079945D01*
X0113018Y0080007D01*
X0112864Y0080072D01*
X0112713Y0080142D01*
X0112563Y0080215D01*
X0112415Y0080292D01*
X0112268Y0080372D01*
X0112124Y0080456D01*
X0111982Y0080544D01*
X0111842Y0080635D01*
X0111705Y0080729D01*
X0111569Y0080827D01*
X0111436Y0080928D01*
X0111306Y0081033D01*
X0111178Y0081140D01*
X0111053Y0081251D01*
X0110931Y0081364D01*
X0110812Y0081481D01*
X0110695Y0081600D01*
X0110582Y0081722D01*
X0110471Y0081847D01*
X0110364Y0081975D01*
X0110259Y0082105D01*
X0110158Y0082238D01*
X0110060Y0082374D01*
X0109966Y0082511D01*
X0109875Y0082651D01*
X0109787Y0082793D01*
X0109703Y0082937D01*
X0109623Y0083084D01*
X0109546Y0083232D01*
X0109473Y0083382D01*
X0109403Y0083533D01*
X0109338Y0083687D01*
X0109276Y0083842D01*
X0109218Y0083998D01*
X0109163Y0084156D01*
X0109113Y0084315D01*
X0109066Y0084475D01*
X0109024Y0084637D01*
X0108985Y0084799D01*
X0108951Y0084962D01*
X0108920Y0085126D01*
X0108894Y0085291D01*
X0108871Y0085457D01*
X0108853Y0085622D01*
X0108838Y0085789D01*
X0108828Y0085955D01*
X0108822Y0086122D01*
X0108820Y0086289D01*
D11*
X0102431Y0507746D02*
X0098494Y0507746D01*
X0098494Y0512864D01*
X0102431Y0512864D01*
X0102431Y0507746D01*
X0069754Y0507746D02*
X0065817Y0507746D01*
X0065817Y0512864D01*
X0069754Y0512864D01*
X0069754Y0507746D01*
D12*
X0045541Y0520935D02*
X0122707Y0520935D01*
M02*
